<svg width="496" height="388" viewBox="0 0 496 388" fill="none" xmlns="http://www.w3.org/2000/svg">
<g clip-path="url(#clip0_2008_11808)">
<path d="M390.56 91.7224C346.622 73.3347 172.217 90.3209 146.123 101.757C120.03 113.249 61.4459 201.096 61.4459 201.096C54.207 224.809 63.0732 272.516 77.1019 312.487L0 358.961L87.5393 338.667C95.3393 355.821 103.813 369.276 111.613 375.274C138.772 396.129 280.911 385.702 334.389 382.562C387.866 379.423 463.734 279.187 463.734 242.244C463.734 205.356 434.498 110.166 390.56 91.7224Z" fill="#10C9E1"/>
<path d="M420.413 77.5393C376.475 59.1516 202.07 76.1378 175.976 87.574C149.883 99.0664 91.299 186.913 91.299 186.913C84.0602 210.626 92.9263 258.333 106.955 298.304L29.8531 344.722L117.392 324.428C125.192 341.582 133.666 355.037 141.466 361.035C168.625 381.889 310.765 371.462 364.242 368.323C417.72 365.184 493.587 264.948 493.587 228.005C493.587 191.117 464.351 95.927 420.413 77.5393Z" fill="white"/>
<path d="M234.504 376.171C234.055 376.171 233.606 376.171 233.101 376.171C181.869 376.115 151.398 371.799 139.951 362.997C130.636 355.821 121.882 339.956 115.99 327.287L15.5999 350.496L103.981 297.239C90.9623 259.454 81.3667 210.962 88.9422 186.184L89.0544 185.847L89.2227 185.567C91.6357 181.979 148.48 96.992 174.91 85.3315C188.546 79.3892 238.601 72.3256 291.349 68.962C321.258 66.9999 393.815 63.7484 421.367 75.2968C432.085 79.7816 442.466 88.8073 452.343 102.206C460.816 113.698 468.728 128.105 475.742 144.923C487.695 173.626 496.056 207.823 496.056 228.061C496.056 239.889 488.986 255.362 483.094 266.293C475.013 281.205 463.566 297.631 450.884 312.487C437.191 328.576 422.489 342.311 408.461 352.29C392.3 363.782 377.485 370.005 364.41 370.789C360.539 371.014 356.218 371.294 351.504 371.574C321.314 373.424 275.973 376.171 234.504 376.171ZM118.739 321.681L119.581 323.475C127.605 341.134 135.91 353.803 142.925 359.185C153.362 367.202 183.72 371.294 233.158 371.406C274.851 371.462 320.753 368.659 351.167 366.809C355.881 366.529 360.202 366.249 364.074 366.024C386.969 364.679 418 343.488 447.124 309.404C473.049 279.019 491.174 245.607 491.174 228.117C491.174 208.383 482.981 174.972 471.253 146.829C456.495 111.399 438.089 87.63 419.459 79.7816C400.773 71.8771 354.198 69.6908 291.685 73.7271C240.228 77.0907 189.837 84.0982 176.93 89.7603C152.52 100.524 97.2472 182.372 93.4875 187.921C86.3048 212.139 96.181 260.295 109.2 297.463L109.873 299.313L44.1063 339.003L118.739 321.681Z" fill="#07171A"/>
</g>
<g clip-path="url(#clip1_2008_11808)">
<path d="M280.285 11.2303C272.276 2.62695 259.604 -1.51053 248.246 2.2329C235.247 6.43605 225.858 18.7171 225.399 32.4431C225.202 38.1567 234.131 38.1567 234.328 32.4431C234.656 22.0009 242.469 12.6751 252.579 10.2452C262.821 7.81521 273.457 14.1856 277.987 23.3143C283.371 34.1506 277.856 46.366 270.897 54.9693C262.821 64.9518 251.989 72.176 243.322 81.5674C234.393 91.2872 226.121 105.867 236.297 117.754C240.04 122.154 246.342 115.784 242.6 111.449C237.939 105.998 241.615 98.3143 245.161 93.3231C249.362 87.4781 254.812 82.5525 260.195 77.824C270.634 68.6296 281.205 59.3038 286.522 46.0376C291.25 33.9536 289.214 20.753 280.285 11.2303Z" fill="#07171A"/>
<path d="M242.994 137.587C237.282 137.587 237.216 146.519 242.994 146.519C248.772 146.519 248.772 137.587 242.994 137.587Z" fill="#07171A"/>
<path d="M325.652 4.26871C321.122 39.3388 316.592 74.4088 311.996 109.413C311.274 115.061 320.203 115.061 320.925 109.413C325.455 74.3431 329.985 39.2731 334.581 4.26871C335.303 -1.44495 326.374 -1.37928 325.652 4.26871Z" fill="#07171A"/>
<path d="M314.491 141.068C308.779 141.068 308.713 150 314.491 150C320.203 150 320.203 141.068 314.491 141.068Z" fill="#07171A"/>
<path d="M298.209 19.3738C297.684 17.3379 294.532 18.1917 295.123 20.2276C298.143 31.5892 295.911 44.0673 289.477 53.8528C287.639 56.6111 285.538 59.1068 283.109 61.4053C281.598 62.7845 283.896 65.0831 285.406 63.7039C294.664 55.1663 299.85 42.5568 299.719 30.0131C299.588 26.4666 299.128 22.8546 298.209 19.3738Z" fill="#07171A"/>
<path d="M274.639 72.4385C273.851 72.0444 272.932 72.2415 272.407 73.0295C272.144 73.4236 271.882 73.8833 271.619 74.2774C271.488 74.4744 271.291 74.6714 271.16 74.8684C271.16 74.8684 271.094 74.9998 271.028 75.0654C270.963 75.1311 270.897 75.1968 270.897 75.1968C270.306 75.9849 269.649 76.7073 268.927 77.364C268.271 78.0208 267.549 78.6775 266.761 79.2686C266.695 79.3343 266.564 79.3999 266.498 79.4656C266.761 79.2686 266.432 79.5313 266.367 79.5313C266.17 79.6626 265.973 79.794 265.776 79.9253C265.382 80.2537 264.922 80.5164 264.463 80.7791C263.741 81.2388 263.412 82.2239 263.872 83.012C264.332 83.7345 265.316 84.0628 266.104 83.6031C269.781 81.3045 272.867 78.2178 275.099 74.6057C275.69 73.949 275.427 72.8325 274.639 72.4385Z" fill="#07171A"/>
<path d="M225.202 89.8422C221.131 96.0812 219.95 104.028 221.985 111.186C222.51 113.157 225.661 112.368 225.071 110.333C223.298 103.962 224.348 97.0664 227.959 91.484C229.141 89.7108 226.318 88.069 225.202 89.8422Z" fill="#07171A"/>
<path d="M340.424 23.7083C339.439 23.7083 338.914 24.4307 338.783 25.3501C336.945 40.1925 335.172 55.0349 333.334 69.9429C333.202 70.7967 334.122 71.5848 334.975 71.5848C335.96 71.5848 336.485 70.8624 336.616 69.9429C338.455 55.1005 340.227 40.2582 342.066 25.3501C342.131 24.4963 341.212 23.7083 340.424 23.7083Z" fill="#07171A"/>
<path d="M334.319 82.6182C333.399 82.6838 332.808 83.3406 332.677 84.26C332.415 86.5586 332.218 88.9229 331.955 91.2215C331.889 92.0753 332.743 92.8633 333.596 92.8633C334.515 92.7977 335.106 92.1409 335.238 91.2215C335.5 88.9229 335.697 86.5586 335.96 84.26C336.026 83.4063 335.106 82.6182 334.319 82.6182Z" fill="#07171A"/>
</g>
<defs>
<clipPath id="clip0_2008_11808">
<rect width="496" height="321" fill="white" transform="translate(0 67)"/>
</clipPath>
<clipPath id="clip1_2008_11808">
<rect width="121" height="150" fill="white" transform="translate(221)"/>
</clipPath>
</defs>
</svg>
