<svg width="190" height="147" viewBox="0 0 190 147" fill="none" xmlns="http://www.w3.org/2000/svg">
<g clip-path="url(#clip0_218_1446)">
<path d="M155.282 138.161C148.37 136.014 142.706 130.333 141.313 123.089C139.916 115.557 143.248 107.955 149.33 103.477C152.627 101.022 149.343 95.8576 145.648 97.4143C139.789 99.9718 133.024 103.097 126.515 101.391C119.938 99.7157 117.964 94.4259 119.116 88.1628C120.485 80.8937 123.562 73.6526 126.348 66.8722C129.491 59.3125 133.114 51.995 137.167 44.9006C139.101 41.5184 135.532 37.3912 132.059 40.0079C118.971 49.8688 108.763 65.9418 91.9116 69.6513C84.7787 71.2017 77.2444 70.0749 72.1673 64.5064C67.0902 58.9379 65.2638 51.1825 64.8927 43.8161C64.7149 39.964 59.3841 40.2597 58.0494 43.1277C53.9761 51.7621 48.067 60.5489 39.1387 64.675C31.5242 68.2182 21.2166 67.7423 15.4298 61.0404C12.4059 57.5817 6.84938 62.0328 9.87326 65.4914C17.4444 74.257 30.1208 75.8752 40.5699 71.8194C48.6066 68.6682 54.7366 62.4316 59.4541 55.2494C60.8292 60.3083 63.1455 65.1567 66.6414 69.0266C72.605 75.5674 81.0637 78.3117 89.8131 77.3271C103.364 75.7851 112.99 67.17 122.444 58.259C121.052 61.2766 119.778 64.2829 118.536 67.3583C116.697 71.9809 115.077 76.6307 113.637 81.4073C112.521 85.0473 111.554 88.745 111.632 92.5587C111.791 100.474 117.172 106.446 124.736 108.387C128.703 109.4 132.624 109.192 136.457 108.319C134.146 113.275 133.243 118.889 134.245 124.321C136.055 133.904 143.35 142.047 152.684 144.9C157.062 146.186 159.67 139.566 155.282 138.161Z" fill="#07171A"/>
<path d="M142.414 48.9868C136.72 58.2577 131.916 68.0437 128.21 78.2531C127.644 79.8695 130.09 80.8122 130.656 79.1957C134.285 69.1861 138.912 59.5611 144.51 50.5399C145.406 49.108 143.329 47.505 142.414 48.9868Z" fill="#07171A"/>
<path d="M137.537 91.5363C137.553 91.1983 137.468 90.8219 137.276 90.576C136.762 89.9765 136.067 89.9952 135.406 90.3711C135.495 90.2905 135.614 90.2791 135.425 90.3212C135.356 90.3518 135.287 90.3825 135.218 90.4132C135.08 90.4745 135.011 90.5052 134.872 90.5666C134.872 90.5666 134.872 90.5666 134.822 90.5473C134.684 90.6087 134.684 90.6087 134.753 90.578C134.703 90.5588 134.684 90.6087 134.684 90.6087C134.565 90.6201 134.427 90.6815 134.308 90.6929C134.189 90.7043 134.069 90.7158 133.901 90.708C133.851 90.6887 133.781 90.7194 133.732 90.7002C133.443 90.7038 133.225 90.6768 132.956 90.6305C132.906 90.6113 132.856 90.592 132.856 90.592C132.706 90.5343 132.606 90.4958 132.457 90.4381C132.357 90.3996 132.257 90.3612 132.107 90.3035C132.107 90.3035 132.107 90.3035 132.157 90.3227L132.107 90.3035C132.057 90.2842 132.007 90.265 132.007 90.265L131.958 90.2457C131.727 90.0996 131.547 89.9728 131.336 89.7768C131.286 89.7575 131.255 89.6884 131.205 89.6691C131.125 89.5807 131.013 89.4232 130.933 89.3348C130.518 88.7738 129.593 88.6464 129.063 89.1299C128.532 89.6135 128.413 90.37 128.858 91.0001C129.748 92.2604 131.138 92.9681 132.612 93.3071C134.106 93.5962 135.612 93.2593 136.883 92.4883C137.317 92.2543 137.491 91.8051 137.537 91.5363Z" fill="#07171A"/>
<path d="M134.922 90.5858C134.922 90.5858 134.853 90.6165 134.803 90.5973C134.803 90.5973 134.872 90.5666 134.922 90.5858C134.872 90.5666 134.872 90.5666 134.922 90.5858Z" fill="#07171A"/>
<path d="M103.311 52.7188C98.961 55.9724 94.2962 59.4486 88.7729 60.2436C86.284 60.6028 83.688 60.3475 81.3998 59.2935C79.2613 58.2973 77.5804 56.5602 76.3144 54.6391C74.7759 52.3836 73.9176 49.7023 73.3971 47.0366C73.118 45.3811 70.4907 45.8017 70.8198 47.4764C71.7801 52.7194 74.3724 58.1902 79.0866 60.9817C84.342 64.1539 90.7679 63.2483 96.0197 60.6289C99.2085 59.0489 102.102 56.8964 104.976 54.7938C106.344 53.7732 104.679 51.6982 103.311 52.7188Z" fill="#07171A"/>
<path d="M114.895 45.7182C114.411 45.1878 113.605 45.049 113.025 45.5133C111.776 46.5225 110.527 47.5316 109.228 48.5216C108.717 48.9552 108.559 49.8115 109.023 50.3918C109.507 50.9221 110.313 51.0609 110.894 50.5966C112.142 49.5875 113.391 48.5783 114.69 47.5884C115.27 47.1241 115.379 46.2485 114.895 45.7182Z" fill="#07171A"/>
</g>
<defs>
<clipPath id="clip0_218_1446">
<rect width="167.057" height="92.2208" fill="white" transform="translate(33.1665) rotate(21.0782)"/>
</clipPath>
</defs>
</svg>
