<svg width="40" height="40" viewBox="0 0 40 40" fill="none" xmlns="http://www.w3.org/2000/svg">
<path d="M20 4.1665C27.4639 4.1665 31.1958 4.1665 33.5146 6.48524C35.8333 8.80398 35.8333 12.5359 35.8333 19.9998C35.8333 27.4637 35.8333 31.1957 33.5146 33.5144C31.1958 35.8332 27.4639 35.8332 20 35.8332C12.5361 35.8332 8.80412 35.8332 6.48538 33.5144C4.16665 31.1957 4.16665 27.4637 4.16665 19.9998C4.16665 12.5359 4.16665 8.80398 6.48539 6.48524C8.80412 4.1665 12.5361 4.1665 20 4.1665Z" stroke="#10C9E1" stroke-width="1.5"/>
<path d="M11.6666 16.6665L18.9588 22.7123C19.458 23.1262 19.7077 23.3332 20 23.3332C20.2923 23.3332 20.5419 23.1262 21.0411 22.7123L28.3333 16.6665" stroke="#10C9E1" stroke-width="1.5" stroke-linecap="round" stroke-linejoin="round"/>
</svg>
