<svg width="190" height="147" viewBox="0 0 190 147" fill="none" xmlns="http://www.w3.org/2000/svg">
<g clip-path="url(#clip0_218_1463)">
<path d="M33.7638 7.96943C40.6752 10.1174 46.3398 15.7977 47.7326 23.0419C49.129 30.5742 45.7977 38.176 39.715 42.6536C36.4181 45.1092 39.7019 50.2732 43.3976 48.7166C49.2562 46.1591 56.0216 43.0339 62.5301 44.7399C69.1077 46.4152 71.0819 51.705 69.9291 57.9681C68.5605 65.2372 65.483 72.4782 62.6976 79.2586C59.5545 86.8184 55.9316 94.1359 51.8786 101.23C49.9444 104.612 53.5132 108.74 56.9869 106.123C70.0747 96.2621 80.2827 80.189 97.1338 76.4795C104.267 74.9292 111.801 76.0559 116.878 81.6245C121.955 87.193 123.782 94.9483 124.153 102.315C124.33 106.167 129.661 105.871 130.996 103.003C135.069 94.3687 140.978 85.582 149.907 81.4559C157.521 77.9127 167.829 78.3885 173.616 85.0905C176.639 88.5491 182.196 84.0981 179.172 80.6394C171.601 71.8738 158.925 70.2556 148.475 74.3115C140.439 77.4627 134.309 83.6992 129.591 90.8815C128.216 85.8225 125.9 80.9742 122.404 77.1043C116.44 70.5634 107.982 67.8191 99.2323 68.8038C85.6818 70.3457 76.0552 78.9609 66.6012 87.8719C67.9936 84.8542 69.2669 81.848 70.5096 78.7726C72.3487 74.1499 73.9688 69.5002 75.4086 64.7236C76.5249 61.0836 77.4915 57.3858 77.4136 53.5721C77.254 45.6567 71.8739 39.6847 64.3094 37.7437C60.3428 36.7308 56.4215 36.9393 52.5881 37.8122C54.8997 32.8557 55.8024 27.2415 54.8 21.8103C52.9903 12.2269 45.6952 4.08362 36.3609 1.23115C31.9836 -0.0546865 29.3751 6.56453 33.7638 7.96943Z" fill="#07171A"/>
<path d="M46.6315 97.144C52.3259 87.8732 57.1297 78.0871 60.8354 67.8778C61.4011 66.2613 58.9553 65.3187 58.3896 66.9351C54.7609 76.9448 50.1339 86.5697 44.5357 95.591C43.6398 97.0229 45.7164 98.6258 46.6315 97.144Z" fill="#07171A"/>
<path d="M51.5085 54.5946C51.4929 54.9325 51.5771 55.309 51.769 55.5549C52.2832 56.1544 52.9783 56.1357 53.6392 55.7598C53.5508 55.8404 53.4317 55.8518 53.6199 55.8097C53.6891 55.779 53.7582 55.7483 53.8274 55.7177C53.9657 55.6563 54.0348 55.6256 54.1731 55.5643C54.1731 55.5643 54.1731 55.5643 54.2231 55.5835C54.3614 55.5222 54.3614 55.5222 54.2922 55.5529C54.3421 55.5721 54.3614 55.5222 54.3614 55.5222C54.4804 55.5107 54.6187 55.4494 54.7378 55.438C54.8569 55.4265 54.9759 55.4151 55.1449 55.4229C55.1948 55.4421 55.264 55.4114 55.3139 55.4307C55.6019 55.427 55.8208 55.4541 56.0896 55.5004C56.1395 55.5196 56.1894 55.5388 56.1894 55.5388C56.3392 55.5965 56.439 55.635 56.5887 55.6927C56.6886 55.7312 56.7884 55.7697 56.9381 55.8274C56.9381 55.8274 56.9381 55.8274 56.8882 55.8082L56.9381 55.8274C56.988 55.8466 57.038 55.8659 57.038 55.8659L57.0879 55.8851C57.3182 56.0312 57.4986 56.1581 57.7097 56.3541C57.7596 56.3733 57.7903 56.4425 57.8402 56.4617C57.9208 56.5501 58.0321 56.7077 58.1126 56.7961C58.527 57.3571 59.4525 57.4845 59.9828 57.0009C60.5132 56.5174 60.6328 55.7609 60.1877 55.1307C59.2976 53.8704 57.9078 53.1628 56.4333 52.8238C54.9396 52.5347 53.4338 52.8716 52.1621 53.6426C51.7279 53.8766 51.5548 54.3258 51.5085 54.5946Z" fill="#07171A"/>
<path d="M54.1233 55.545C54.1233 55.545 54.1924 55.5143 54.2423 55.5336C54.2423 55.5336 54.1732 55.5643 54.1233 55.545C54.1732 55.5643 54.1732 55.5643 54.1233 55.545Z" fill="#07171A"/>
<path d="M85.7346 93.4121C90.0844 90.1584 94.7493 86.6822 100.272 85.8873C102.761 85.5281 105.357 85.7834 107.646 86.8373C109.784 87.8335 111.465 89.5706 112.731 91.4918C114.269 93.7473 115.128 96.4286 115.648 99.0943C115.927 100.75 118.555 100.329 118.226 98.6544C117.265 93.4114 114.673 87.9407 109.959 85.1491C104.703 81.977 98.2776 82.8826 93.0257 85.5019C89.8369 87.082 86.9435 89.2345 84.0693 91.337C82.7013 92.3576 84.3666 94.4327 85.7346 93.4121Z" fill="#07171A"/>
<path d="M74.1504 100.413C74.6339 100.943 75.4403 101.082 76.0206 100.618C77.2695 99.6084 78.5184 98.5992 79.8172 97.6093C80.3283 97.1757 80.4863 96.3193 80.022 95.7391C79.5385 95.2088 78.7321 95.0699 78.1518 95.5342C76.903 96.5434 75.6541 97.5526 74.3553 98.5425C73.775 99.0068 73.6669 99.8823 74.1504 100.413Z" fill="#07171A"/>
</g>
<defs>
<clipPath id="clip0_218_1463">
<rect width="167.057" height="92.2208" fill="white" transform="translate(155.879 146.131) rotate(-158.922)"/>
</clipPath>
</defs>
</svg>
