<svg width="99" height="90" viewBox="0 0 99 90" fill="none" xmlns="http://www.w3.org/2000/svg">
<g clip-path="url(#clip0_218_1480)">
<path d="M85.5 37.6049C84.0522 28.7544 80.0609 20.4939 73.0174 14.8689C66.2478 9.44058 57.913 6.41174 49.3435 5.271C40.2652 4.0516 30.4826 5.23167 22.7739 10.542C15.4956 15.6163 11.1522 23.3261 10.8391 32.2553C10.4869 42.6005 14.6739 53.2998 20.7782 61.521C22.1087 63.2911 24.613 65.4939 22.6565 67.6574C20.8174 69.6635 18.1565 71.1189 16.0043 72.6923C11.0348 76.2719 6.10433 79.8514 1.1739 83.3916C-0.195666 84.375 -0.234796 86.0271 0.430421 87.2072C0.508682 88.7019 1.79999 90.2754 3.75651 89.9607C14.3609 88.0726 24.9652 86.1451 35.5695 84.257C45.6261 82.4476 55.9174 81.1102 65.8565 78.6713C74.4261 76.5472 81.3522 71.9056 84.3652 63.3304C87.1435 55.3453 86.8696 45.8654 85.5 37.6049ZM80.6087 55.9747C80.0609 59.7902 78.9652 63.7631 76.5391 66.8313C74.0739 69.9782 70.4739 71.7483 66.7565 72.889C62.0217 74.3444 57.013 75.0131 52.1609 75.8785L35.8435 78.7894C27.313 80.3234 18.7826 81.8575 10.2522 83.3916C12.0913 82.0542 13.9696 80.7168 15.8087 79.3794C17.8043 77.924 19.8 76.4686 21.7956 75.0525C23.5174 73.7937 25.3956 72.6136 26.8043 70.9616C29.6609 67.5787 28.9565 63.6451 26.4522 60.3016C23.7913 56.722 21.3652 53.0638 19.5652 48.9336C16.2391 41.2238 14.2826 31.3112 18.1956 23.4441C21.7956 16.2457 29.1522 11.9974 36.8609 10.66C52.8261 7.86716 72.7826 15.3803 78.4956 31.5079C81.1956 39.139 81.7435 47.9895 80.6087 55.9747ZM88.7869 31.5472C91.6826 39.8864 92.3869 48.9729 90.8217 57.6661C90.3522 60.1836 89.7261 62.6224 88.9043 65.0219C88.513 66.2019 90.3522 66.7133 90.7435 65.5332C93.6782 56.8794 94.3043 47.4782 92.6217 38.4703C92.1522 35.9528 91.4869 33.4353 90.6261 30.9965C90.2348 29.8558 88.3565 30.3672 88.7869 31.5472ZM97.0435 45C96.9652 47.3602 96.8478 49.681 96.7696 52.0411C96.7304 52.5525 97.2391 53.0245 97.7478 53.0245C98.2956 53.0245 98.6869 52.5918 98.7261 52.0411C98.8043 49.681 98.9217 47.3602 99 45C99.0391 44.4887 98.5304 44.0166 98.0217 44.0166C97.4739 44.0166 97.0826 44.4887 97.0435 45ZM9.11738 18.2518C11.9739 12.0761 17.2956 7.19845 23.713 5.03499C24.8869 4.64163 24.3782 2.75352 23.2043 3.18621C16.3174 5.50702 10.4869 10.66 7.43477 17.2684C7.19999 17.7404 7.31738 18.3304 7.78694 18.6058C8.21738 18.8418 8.88259 18.7238 9.11738 18.2518ZM30.0522 2.83219C32.0087 2.00614 34.2 1.69146 36.2348 2.04548C36.7435 2.12415 37.2522 1.92747 37.4087 1.37677C37.5261 0.904743 37.2522 0.275373 36.7435 0.196701C34.3174 -0.196655 31.813 0.0393585 29.5043 0.983414C29.0348 1.18009 28.6826 1.61279 28.8391 2.16348C28.9956 2.63551 29.5826 3.0682 30.0522 2.83219Z" fill="white"/>
</g>
<defs>
<clipPath id="clip0_218_1480">
<rect width="99" height="90" fill="white"/>
</clipPath>
</defs>
</svg>
