<svg width="1880" height="639" viewBox="0 0 1880 639" preserveAspectRatio="none" fill="none" xmlns="http://www.w3.org/2000/svg">
<path fill-rule="evenodd" clip-rule="evenodd" d="M48 0C21.4903 0 0 21.4903 0 48V474C0 496.383 15.3207 515.188 36.0475 520.5H30.6733L940 639L1849.33 520.5H1843.95C1864.68 515.188 1880 496.383 1880 474V48C1880 21.4903 1858.51 0 1832 0H48Z" fill="url(#paint0_linear_200_1420)"/>
<path fill-rule="evenodd" clip-rule="evenodd" d="M48 0C21.4903 0 0 21.4903 0 48V474C0 496.383 15.3207 515.188 36.0475 520.5H30.6733L940 639L1849.33 520.5H1843.95C1864.68 515.188 1880 496.383 1880 474V48C1880 21.4903 1858.51 0 1832 0H48Z" fill="url(#paint1_linear_200_1420)" fill-opacity="0.2"/>
<defs>
<linearGradient id="paint0_linear_200_1420" x1="940" y1="-30" x2="940" y2="784" gradientUnits="userSpaceOnUse">
<stop stop-color="#02080A"/>
<stop offset="0.176904" stop-color="#02090B"/>
<stop offset="1" stop-color="#05151B"/>
</linearGradient>
<linearGradient id="paint1_linear_200_1420" x1="115" y1="639" x2="869" y2="14" gradientUnits="userSpaceOnUse">
<stop stop-opacity="0"/>
<stop offset="1" stop-color="#10C9E1" stop-opacity="0.1"/>
</linearGradient>
</defs>
</svg>
