<svg width="1883" height="825" viewBox="0 0 1883 825" preserveAspectRatio="none" fill="none" xmlns="http://www.w3.org/2000/svg">
<mask id="path-1-inside-1_200_1567" fill="white">
<path fill-rule="evenodd" clip-rule="evenodd" d="M1833.69 708L941 825L48.3142 708H48C21.4903 708 0 686.51 0 660V48C0 21.4904 21.4903 0 48 0H1835C1861.51 0 1883 21.4903 1883 48V660C1883 686.51 1861.51 708 1835 708H1833.69Z"/>
</mask>
<path fill-rule="evenodd" clip-rule="evenodd" d="M1833.69 708L941 825L48.3142 708H48C21.4903 708 0 686.51 0 660V48C0 21.4904 21.4903 0 48 0H1835C1861.51 0 1883 21.4903 1883 48V660C1883 686.51 1861.51 708 1835 708H1833.69Z" fill="#02080A"/>
<path fill-rule="evenodd" clip-rule="evenodd" d="M1833.69 708L941 825L48.3142 708H48C21.4903 708 0 686.51 0 660V48C0 21.4904 21.4903 0 48 0H1835C1861.51 0 1883 21.4903 1883 48V660C1883 686.51 1861.51 708 1835 708H1833.69Z" fill="url(#paint0_linear_200_1567)"/>
<path fill-rule="evenodd" clip-rule="evenodd" d="M1833.69 708L941 825L48.3142 708H48C21.4903 708 0 686.51 0 660V48C0 21.4904 21.4903 0 48 0H1835C1861.51 0 1883 21.4903 1883 48V660C1883 686.51 1861.51 708 1835 708H1833.69Z" fill="url(#paint1_linear_200_1567)" fill-opacity="0.2"/>
<path d="M941 825L941.13 825.992L941 826.009L940.87 825.992L941 825ZM1833.69 708L1833.56 707.008L1833.62 707H1833.69V708ZM48.3142 708V707H48.3795L48.4442 707.008L48.3142 708ZM940.87 824.008L1833.56 707.008L1833.82 708.992L941.13 825.992L940.87 824.008ZM48.4442 707.008L941.13 824.008L940.87 825.992L48.1842 708.992L48.4442 707.008ZM48 707H48.3142V709H48V707ZM1 660C1 685.957 22.0426 707 48 707V709C20.938 709 -1 687.062 -1 660H1ZM1 48V660H-1V48H1ZM48 1C22.0426 1 1 22.0427 1 48H-1C-1 20.938 20.938 -1 48 -1V1ZM1835 1H48V-1H1835V1ZM1882 48C1882 22.0426 1860.96 1 1835 1V-1C1862.06 -1 1884 20.938 1884 48H1882ZM1882 660V48H1884V660H1882ZM1835 707C1860.96 707 1882 685.957 1882 660H1884C1884 687.062 1862.06 709 1835 709V707ZM1833.69 707H1835V709H1833.69V707Z" fill="#10C9E1" fill-opacity="0.1" mask="url(#path-1-inside-1_200_1567)"/>
<defs>
<linearGradient id="paint0_linear_200_1567" x1="1052" y1="-49.9999" x2="1042" y2="1160" gradientUnits="userSpaceOnUse">
<stop stop-color="#02080A"/>
<stop offset="0.14401" stop-color="#02090B"/>
<stop offset="1" stop-color="#05151B"/>
</linearGradient>
<linearGradient id="paint1_linear_200_1567" x1="115.184" y1="-1.50172e-05" x2="1045.09" y2="565.748" gradientUnits="userSpaceOnUse">
<stop stop-opacity="0"/>
<stop offset="1" stop-color="#10C9E1" stop-opacity="0.1"/>
</linearGradient>
</defs>
</svg>
