<svg width="1880" height="960" viewBox="0 0 1880 960" fill="none" xmlns="http://www.w3.org/2000/svg">
<rect width="1880" height="960" rx="48" />
<mask id="mask0_207_4103" style="mask-type:alpha" maskUnits="userSpaceOnUse" x="0" y="0" width="1880" height="960">
<rect width="1880" height="960" rx="48" fill="white"/>
</mask>
<g mask="url(#mask0_207_4103)">
<path d="M940.541 631.939H938.917L933.668 588.719L940.541 631.939Z" fill="#10C9E1" fill-opacity="0.1"/>
<path d="M1024.97 631.939H1021.4L969.442 544.405L1024.97 631.939Z" fill="#10C9E1" fill-opacity="0.1"/>
<path d="M1237.67 577.473V579.601L1065.72 532.126L1237.67 577.473Z" fill="#10C9E1" fill-opacity="0.1"/>
<path d="M1237.67 495.592V496.747L1120.93 492.674L1237.67 495.592Z" fill="#10C9E1" fill-opacity="0.1"/>
<path d="M1146.69 454.257L1237.29 440.275L1236.8 439.364L1146.69 454.257Z" fill="#10C9E1" fill-opacity="0.1"/>
<path d="M1191.39 328H1198.7L1007.49 444.713L1191.39 328Z" fill="#10C9E1" fill-opacity="0.1"/>
<path d="M924.467 328H926.686L928.039 387.451L924.467 328Z" fill="#10C9E1" fill-opacity="0.1"/>
<path d="M872.835 328H876.732L897.515 431.826L872.835 328Z" fill="#10C9E1" fill-opacity="0.1"/>
<path d="M762.212 406.417L688.824 368.242L687.416 368.972L762.212 406.417Z" fill="#10C9E1" fill-opacity="0.1"/>
<path d="M805.13 480.578L642.334 474.256V472.675L805.13 480.578Z" fill="#10C9E1" fill-opacity="0.1"/>
<path d="M820.284 517.354L642.333 567.504V565.255L820.284 517.354Z" fill="#10C9E1" fill-opacity="0.1"/>
<path d="M884.093 631.939H881.116L903.468 553.462L884.093 631.939Z" fill="#10C9E1" fill-opacity="0.1"/>
<path d="M1385.02 1189.72H1366.29L1093.87 780.894L1385.02 1189.72Z" fill="#10C9E1" fill-opacity="0.1"/>
<path d="M2500.24 935.338V945.274L1598.7 723.545L2500.24 935.338Z" fill="#10C9E1" fill-opacity="0.1"/>
<path d="M2257.61 -229.808H2295.92L1293.36 315.289L2257.61 -229.808Z" fill="#10C9E1" fill-opacity="0.1"/>
<path d="M858.058 -229.808H869.693L876.787 47.851L858.058 -229.808Z" fill="#10C9E1" fill-opacity="0.1"/>
<path d="M587.342 -229.808H607.773L716.741 255.102L587.342 -229.808Z" fill="#10C9E1" fill-opacity="0.1"/>
<path d="M7.31421 136.43L-377.478 -41.8621L-384.857 -38.4552L7.31421 136.43Z" fill="#10C9E1" fill-opacity="0.1"/>
<path d="M232.345 482.794L-621.237 453.268V445.886L232.345 482.794Z" fill="#10C9E1" fill-opacity="0.1"/>
<path d="M311.8 654.556L-621.237 888.777V878.273L311.8 654.556Z" fill="#10C9E1" fill-opacity="0.1"/>
<path d="M646.365 1189.72H630.758L747.955 823.195L646.365 1189.72Z" fill="#10C9E1" fill-opacity="0.1"/>
<path d="M320.313 786.287C50.7311 920.574 -218.283 1054.86 -487.014 1189.72H-498.364C-224.526 1055.43 48.1772 921.142 320.313 786.287Z" fill="#10C9E1"/>
<path d="M294.774 788.275C15.5439 921.71 -262.835 1055.71 -540.93 1189.72H-552.848C-269.645 1056.28 12.7062 922.278 294.774 788.275Z" fill="#10C9E1"/>
<path d="M-621.236 1184.61C-315.899 1048.33 -10.8463 911.49 293.355 774.647C-11.6977 912.625 -315.9 1051.17 -619.25 1190H-620.953V1184.61H-621.236Z" fill="#10C9E1"/>
<path d="M56.4067 775.783C-169.758 848.747 -395.639 921.994 -621.237 995.242V991.835C-395.072 920.007 -169.191 847.895 56.4067 775.783Z" fill="#10C9E1"/>
<path d="M83.6487 607.711C-151.313 636.102 -386.275 664.776 -621.237 693.45V691.463C-386.275 663.924 -151.313 635.818 83.6487 607.711Z" fill="#10C9E1"/>
<path d="M59.8118 603.169C-167.205 628.436 -394.505 653.988 -621.237 679.539V677.836C-394.221 652.852 -166.921 628.152 59.8118 603.169Z" fill="#10C9E1"/>
<path d="M74.8516 590.961C-157.273 613.958 -389.397 636.954 -621.237 659.95V658.247C-389.113 636.102 -156.989 613.674 74.8516 590.961Z" fill="#10C9E1"/>
<path d="M96.4187 400.461C-142.8 365.257 -382.018 330.337 -621.237 295.416V293.429C-382.018 329.201 -143.083 364.689 96.4187 400.461Z" fill="#10C9E1"/>
<path d="M81.9463 390.525C-152.448 353.901 -386.842 317.277 -621.237 280.653V278.666C-386.842 315.858 -152.448 353.333 81.9463 390.525Z" fill="#10C9E1"/>
<path d="M108.905 383.994C-134.287 342.544 -377.762 301.094 -621.237 259.928V257.656C-378.045 299.958 -134.57 341.976 108.905 383.994Z" fill="#10C9E1"/>
<path d="M8.4502 286.048C-201.256 230.97 -411.246 176.176 -621.236 121.383V118.544C-411.53 174.473 -201.824 230.402 8.4502 286.048Z" fill="#10C9E1"/>
<path d="M-475.662 -229.808H-463.461C-191.608 -76.7831 80.8112 75.9577 354.082 228.131C77.9734 75.3899 -198.419 -77.3509 -475.662 -229.808Z" fill="#10C9E1"/>
<path d="M-422.881 -229.808H-411.531C-157.272 -80.7577 97.8371 68.0084 353.514 216.491C95.5669 67.4406 -163.515 -81.3255 -422.881 -229.808Z" fill="#10C9E1"/>
<path d="M-352.223 -229.808H-341.439C-100.234 -80.4738 141.254 68.8601 383.878 217.626C139.268 68.2923 -106.194 -80.7577 -352.223 -229.808Z" fill="#10C9E1"/>
<path d="M28.8815 -229.808H35.692C161.686 -116.246 288.248 -2.68402 415.093 110.594C286.829 -2.96793 157.997 -116.53 28.8815 -229.808Z" fill="#10C9E1"/>
<path d="M677.58 -229.808H682.404C713.335 -104.322 744.834 21.1641 776.616 146.934C743.982 21.1641 711.065 -104.322 677.58 -229.808Z" fill="#10C9E1"/>
<path d="M709.93 -229.808H714.47C739.442 -107.729 764.414 14.6343 790.237 136.713C763.846 14.6343 737.172 -107.729 709.93 -229.808Z" fill="#10C9E1"/>
<path d="M754.766 -229.808H759.59C777.467 -104.89 795.629 20.3124 814.357 145.231C794.777 20.3124 774.913 -104.89 754.766 -229.808Z" fill="#10C9E1"/>
<path d="M1028.04 -229.808H1032.29C1010.16 -132.145 988.025 -34.7653 966.458 62.898C987.457 -34.7653 1007.89 -132.145 1028.04 -229.808Z" fill="#10C9E1"/>
<path d="M1667.66 -229.808H1674.75C1525.2 -92.3978 1376.22 45.0121 1227.53 182.422C1374.8 45.0121 1521.51 -92.3978 1667.66 -229.808Z" fill="#10C9E1"/>
<path d="M1707.67 -229.808H1714.76C1559.82 -94.1013 1405.17 41.6052 1251.36 177.312C1403.75 41.8891 1555.85 -94.1013 1707.67 -229.808Z" fill="#10C9E1"/>
<path d="M1764.14 -229.808H1771.8C1600.97 -89.8427 1430.99 50.1224 1261.3 190.371C1429.57 50.4063 1597.28 -89.5588 1764.14 -229.808Z" fill="#10C9E1"/>
<path d="M2156.88 -229.808H2168.51C1940.93 -100.631 1713.91 28.8294 1487.74 158.574C1711.36 29.3972 1934.4 -100.063 2156.88 -229.808Z" fill="#10C9E1"/>
<path d="M2500.24 64.0334V68.0081C2187.81 152.612 1875.94 237.499 1564.36 322.955C1876.51 236.648 2188.66 150.341 2500.24 64.0334Z" fill="#10C9E1"/>
<path d="M2500.24 83.623V87.3138C2196.6 165.955 1892.97 245.165 1589.9 324.374C1893.82 244.313 2197.17 163.968 2500.24 83.623Z" fill="#10C9E1"/>
<path d="M2500.24 110.026V113.433C2194.33 187.816 1888.43 262.483 1583.09 337.434C1889 261.915 2194.9 186.112 2500.24 110.026Z" fill="#10C9E1"/>
<path d="M2500.24 258.225V260.78C2270.67 295.984 2041.1 331.472 1811.53 366.96C2041.1 330.904 2270.67 294.564 2500.24 258.225Z" fill="#10C9E1"/>
<path d="M2500.24 533.328V535.6C2227.25 531.625 1954.55 527.934 1681.56 524.243C1954.26 527.366 2227.25 530.489 2500.24 533.328Z" fill="#10C9E1"/>
<path d="M2500.24 547.808V549.795C2234.06 543.549 1967.6 537.587 1701.42 531.625C1967.6 537.303 2234.06 542.697 2500.24 547.808Z" fill="#10C9E1"/>
<path d="M2500.24 567.965V570.236C2226.68 560.299 1953.13 550.646 1679.57 541.278C1953.13 550.363 2226.68 559.164 2500.24 567.965Z" fill="#10C9E1"/>
<path d="M2500.24 695.155V697.426C2279.18 672.158 2058.12 646.891 1836.78 621.907C2057.84 646.323 2278.9 670.739 2500.24 695.155Z" fill="#10C9E1"/>
<path d="M2500.24 1017.67V1021.93C2180.43 921.71 1860.33 821.776 1539.96 722.409C1859.48 821.208 2179.58 919.439 2500.24 1017.67Z" fill="#10C9E1"/>
<path d="M2500.24 1039.25V1043.79C2183.27 940.164 1865.73 836.822 1547.62 733.765C1864.59 835.687 2182.41 937.609 2500.24 1039.25Z" fill="#10C9E1"/>
<path d="M2500.24 1069.91V1074.74C2173.33 961.457 1845.86 848.747 1518.11 736.321C1844.73 847.896 2172.2 958.902 2500.24 1069.91Z" fill="#10C9E1"/>
<path d="M2283.72 1189.72H2271.8C2033.44 1073.88 1794.5 958.05 1555 842.5C1797.34 958.618 2040.25 1074.17 2283.72 1189.72Z" fill="#10C9E1"/>
<path d="M1501.37 1189.72H1496.54C1393.53 1077.86 1289.96 965.715 1186.1 853.857C1290.81 965.999 1395.8 1077.86 1501.37 1189.72Z" fill="#10C9E1"/>
<path d="M1467.31 1189.72H1462.77C1368.56 1081.55 1274.07 973.382 1179 865.498C1274.63 973.666 1370.83 1081.55 1467.31 1189.72Z" fill="#10C9E1"/>
<path d="M1420.77 1189.72H1416.23C1327.98 1079.85 1239.45 969.974 1150.63 860.387C1240.3 970.258 1330.54 1079.85 1420.77 1189.72Z" fill="#10C9E1"/>
<path d="M1152.9 1189.72H1149.49C1117.99 1112.78 1086.21 1035.84 1054.43 958.902C1087.06 1035.84 1119.98 1112.78 1152.9 1189.72Z" fill="#10C9E1"/>
<path d="M615.434 1189.72H611.745C652.324 1085.81 692.336 981.898 732.347 877.989C692.903 981.898 654.027 1085.81 615.434 1189.72Z" fill="#10C9E1"/>
<path d="M585.355 1189.72H581.666C625.65 1088.36 669.35 987.292 712.767 885.938C669.918 987.008 627.636 1088.36 585.355 1189.72Z" fill="#10C9E1"/>
<path d="M543.356 1189.72H539.384C591.597 1084.67 643.527 979.627 694.89 874.582C644.095 979.627 593.584 1084.67 543.356 1189.72Z" fill="#10C9E1"/>
<path d="M271.504 1189.72H267.248C343.866 1104.54 420.2 1019.09 496.534 933.918C421.335 1019.09 346.136 1104.26 271.504 1189.72Z" fill="#10C9E1"/>
</g>
</svg>
