<svg width="1883" height="763" viewBox="0 0 1883 763" preserveAspectRatio="none" fill="none" xmlns="http://www.w3.org/2000/svg">
<mask id="path-1-inside-1_200_1635" fill="white">
<path fill-rule="evenodd" clip-rule="evenodd" d="M1845.13 644.5L941 763L36.8695 644.5H41.0463C17.832 641.131 0 621.148 0 597V48C0 21.4904 21.4903 0 48 0H1835C1861.51 0 1883 21.4904 1883 48V597C1883 621.148 1865.17 641.131 1841.95 644.5H1845.13Z"/>
</mask>
<path fill-rule="evenodd" clip-rule="evenodd" d="M1845.13 644.5L941 763L36.8695 644.5H41.0463C17.832 641.131 0 621.148 0 597V48C0 21.4904 21.4903 0 48 0H1835C1861.51 0 1883 21.4904 1883 48V597C1883 621.148 1865.17 641.131 1841.95 644.5H1845.13Z" fill="#02080A"/>
<path fill-rule="evenodd" clip-rule="evenodd" d="M1845.13 644.5L941 763L36.8695 644.5H41.0463C17.832 641.131 0 621.148 0 597V48C0 21.4904 21.4903 0 48 0H1835C1861.51 0 1883 21.4904 1883 48V597C1883 621.148 1865.17 641.131 1841.95 644.5H1845.13Z" fill="url(#paint0_linear_200_1635)"/>
<path fill-rule="evenodd" clip-rule="evenodd" d="M1845.13 644.5L941 763L36.8695 644.5H41.0463C17.832 641.131 0 621.148 0 597V48C0 21.4904 21.4903 0 48 0H1835C1861.51 0 1883 21.4904 1883 48V597C1883 621.148 1865.17 641.131 1841.95 644.5H1845.13Z" fill="url(#paint1_linear_200_1635)" fill-opacity="0.2"/>
<path d="M941 763L941.13 763.992L941 764.009L940.87 763.992L941 763ZM1845.13 644.5V643.5L1845.26 645.492L1845.13 644.5ZM36.8695 644.5L36.7396 645.492L36.8695 643.5V644.5ZM41.0463 644.5L41.19 643.51L41.0463 645.5V644.5ZM1841.95 644.5V645.5L1841.81 643.51L1841.95 644.5ZM940.87 762.008L1845 643.508L1845.26 645.492L941.13 763.992L940.87 762.008ZM36.9995 643.508L941.13 762.008L940.87 763.992L36.7396 645.492L36.9995 643.508ZM41.0463 645.5H36.8695V643.5H41.0463V645.5ZM1 597C1 620.644 18.4601 640.212 41.19 643.51L40.9027 645.49C17.2038 642.051 -1 621.652 -1 597H1ZM1 48V597H-1V48H1ZM48 1C22.0426 1 1 22.0427 1 48H-1C-1 20.938 20.938 -1 48 -1V1ZM1835 1H48V-1H1835V1ZM1882 48C1882 22.0427 1860.96 1 1835 1V-1C1862.06 -1 1884 20.938 1884 48H1882ZM1882 597V48H1884V597H1882ZM1841.81 643.51C1864.54 640.212 1882 620.644 1882 597H1884C1884 621.652 1865.8 642.051 1842.1 645.49L1841.81 643.51ZM1845.13 645.5H1841.95V643.5H1845.13V645.5Z" fill="#10C9E1" fill-opacity="0.1" mask="url(#path-1-inside-1_200_1635)"/>
<defs>
<linearGradient id="paint0_linear_200_1635" x1="1052" y1="-49.9999" x2="1042" y2="1160" gradientUnits="userSpaceOnUse">
<stop stop-color="#02080A"/>
<stop offset="0.14401" stop-color="#02090B"/>
<stop offset="1" stop-color="#05151B"/>
</linearGradient>
<linearGradient id="paint1_linear_200_1635" x1="115.184" y1="-1.50172e-05" x2="1045.09" y2="565.748" gradientUnits="userSpaceOnUse">
<stop stop-opacity="0"/>
<stop offset="1" stop-color="#10C9E1" stop-opacity="0.1"/>
</linearGradient>
</defs>
</svg>
