<svg width="1880" height="960" viewBox="0 0 1880 960" fill="none" xmlns="http://www.w3.org/2000/svg">
<mask id="mask0_2006_199" style="mask-type:alpha" maskUnits="userSpaceOnUse" x="0" y="0" width="1880" height="960">
<rect width="1880" height="960" rx="48" fill="white"/>
</mask>
<g mask="url(#mask0_2006_199)">
<path d="M941.42 960H935.662L917.047 823.488L941.42 960Z" fill="#10C9E1" fill-opacity="0.1"/>
<path d="M1240.8 960.001H1228.13L1043.9 683.521L1240.8 960.001Z" fill="#10C9E1" fill-opacity="0.1"/>
<path d="M1995 787.968V794.688L1385.3 644.736L1995 787.968Z" fill="#10C9E1" fill-opacity="0.1"/>
<path d="M1995 529.344V532.992L1581.05 520.128L1995 529.344Z" fill="#10C9E1" fill-opacity="0.1"/>
<path d="M1672.4 398.784L1993.66 354.624L1991.93 351.744L1672.4 398.784Z" fill="#10C9E1" fill-opacity="0.1"/>
<path d="M1830.92 0H1856.83L1178.81 368.64L1830.92 0Z" fill="#10C9E1" fill-opacity="0.1"/>
<path d="M884.422 0H892.29L897.088 187.776L884.422 0Z" fill="#10C9E1" fill-opacity="0.1"/>
<path d="M701.341 0H715.159L788.852 327.936L701.341 0Z" fill="#10C9E1" fill-opacity="0.1"/>
<path d="M309.079 247.681L48.85 127.104L43.8603 129.409L309.079 247.681Z" fill="#10C9E1" fill-opacity="0.1"/>
<path d="M461.263 481.92L-116 461.952V456.96L461.263 481.92Z" fill="#10C9E1" fill-opacity="0.1"/>
<path d="M514.997 598.08L-116 756.48V749.376L514.997 598.08Z" fill="#10C9E1" fill-opacity="0.1"/>
<path d="M741.258 960H730.703L809.961 712.128L741.258 960Z" fill="#10C9E1" fill-opacity="0.1"/>
<path d="M520.755 687.168C338.441 777.984 156.511 868.8 -25.2267 960H-32.903C152.289 869.184 336.714 778.368 520.755 687.168Z" fill="#10C9E1"/>
<path d="M503.483 688.512C314.644 778.752 126.382 869.376 -61.6894 960H-69.7497C121.776 869.76 312.725 779.136 503.483 688.512Z" fill="#10C9E1"/>
<path d="M-115.999 956.544C90.4947 864.384 296.797 771.84 502.523 679.296C296.221 772.608 90.4946 866.304 -114.656 960.192H-115.808V956.544H-115.999Z" fill="#10C9E1"/>
<path d="M342.279 680.064C189.328 729.408 36.568 778.944 -116 828.48V826.176C36.9518 777.6 189.711 728.832 342.279 680.064Z" fill="#10C9E1"/>
<path d="M360.702 566.4C201.802 585.6 42.9008 604.992 -116 624.384V623.04C42.9008 604.416 201.802 585.408 360.702 566.4Z" fill="#10C9E1"/>
<path d="M344.582 563.328C191.055 580.416 37.3354 597.696 -116 614.976V613.824C37.5273 596.928 191.246 580.224 344.582 563.328Z" fill="#10C9E1"/>
<path d="M354.753 555.073C197.771 570.625 40.7897 586.176 -116 601.728V600.576C40.9816 585.6 197.963 570.433 354.753 555.073Z" fill="#10C9E1"/>
<path d="M218.881 516.48C107.19 518.976 -4.30879 521.28 -116 523.776V522.816C-4.30879 520.896 107.19 518.784 218.881 516.48Z" fill="#10C9E1"/>
<path d="M369.338 426.24C207.559 402.432 45.7796 378.816 -116 355.2V353.856C45.7796 378.048 207.367 402.048 369.338 426.24Z" fill="#10C9E1"/>
<path d="M359.551 419.521C201.034 394.753 42.5171 369.985 -116 345.217V343.873C42.5171 369.025 201.034 394.369 359.551 419.521Z" fill="#10C9E1"/>
<path d="M377.782 415.104C213.316 387.072 48.6582 359.04 -116 331.2V329.664C48.4663 358.272 213.124 386.688 377.782 415.104Z" fill="#10C9E1"/>
<path d="M309.847 348.864C168.026 311.616 26.0132 274.56 -116 237.504V235.584C25.8213 273.408 167.642 311.232 309.847 348.864Z" fill="#10C9E1"/>
<path d="M-17.5504 0H-9.2984C174.551 103.488 358.783 206.784 543.592 309.696C356.864 206.4 169.945 103.104 -17.5504 0Z" fill="#10C9E1"/>
<path d="M18.1445 0H25.8208C197.771 100.8 370.298 201.408 543.208 301.824C368.762 201.024 193.549 100.416 18.1445 0Z" fill="#10C9E1"/>
<path d="M65.9299 0H73.2224C236.345 100.992 399.66 201.984 563.742 302.592C398.317 201.6 232.315 100.8 65.9299 0Z" fill="#10C9E1"/>
<path d="M323.664 0H328.27C413.478 76.8 499.069 153.6 584.852 230.208C498.11 153.408 410.983 76.608 323.664 0Z" fill="#10C9E1"/>
<path d="M762.368 0H765.631C786.549 84.864 807.851 169.728 829.344 254.784C807.275 169.728 785.013 84.864 762.368 0Z" fill="#10C9E1"/>
<path d="M784.246 0H787.316C804.204 82.56 821.092 165.312 838.556 247.872C820.708 165.312 802.669 82.56 784.246 0Z" fill="#10C9E1"/>
<path d="M814.567 0H817.83C829.92 84.48 842.202 169.152 854.868 253.632C841.626 169.152 828.193 84.48 814.567 0Z" fill="#10C9E1"/>
<path d="M999.376 0H1002.25C987.286 66.048 972.317 131.904 957.732 197.952C971.933 131.904 985.75 66.048 999.376 0Z" fill="#10C9E1"/>
<path d="M1431.94 0H1436.74C1335.6 92.928 1234.85 185.856 1134.29 278.784C1233.89 185.856 1333.11 92.928 1431.94 0Z" fill="#10C9E1"/>
<path d="M1459 0H1463.8C1359.01 91.776 1254.42 183.552 1150.41 275.328C1253.46 183.744 1356.33 91.776 1459 0Z" fill="#10C9E1"/>
<path d="M1497.19 0H1502.37C1386.84 94.656 1271.89 189.312 1157.13 284.16C1270.93 189.504 1384.35 94.848 1497.19 0Z" fill="#10C9E1"/>
<path d="M1762.79 0H1770.66C1616.75 87.36 1463.22 174.912 1310.27 262.656C1461.49 175.296 1612.33 87.744 1762.79 0Z" fill="#10C9E1"/>
<path d="M1995 198.72V201.408C1783.71 258.624 1572.8 316.032 1362.08 373.824C1573.18 315.456 1784.28 257.088 1995 198.72Z" fill="#10C9E1"/>
<path d="M1995 211.968V214.464C1789.66 267.648 1584.31 321.216 1379.36 374.784C1584.89 320.64 1790.04 266.304 1995 211.968Z" fill="#10C9E1"/>
<path d="M1995 229.824V232.128C1788.12 282.432 1581.24 332.928 1374.75 383.616C1581.63 332.544 1788.51 281.28 1995 229.824Z" fill="#10C9E1"/>
<path d="M1995 330.048V331.776C1839.75 355.584 1684.49 379.584 1529.24 403.584C1684.49 379.2 1839.75 354.624 1995 330.048Z" fill="#10C9E1"/>
<path d="M1995 516.096V517.632C1810.38 514.944 1625.96 512.448 1441.34 509.952C1625.77 512.064 1810.38 514.176 1995 516.096Z" fill="#10C9E1"/>
<path d="M1995 525.888V527.232C1814.99 523.008 1634.79 518.976 1454.78 514.944C1634.79 518.784 1814.99 522.432 1995 525.888Z" fill="#10C9E1"/>
<path d="M1995 539.52V541.056C1810 534.336 1625 527.808 1440 521.472C1625 527.616 1810 533.568 1995 539.52Z" fill="#10C9E1"/>
<path d="M1995 625.536V627.072C1845.5 609.985 1696.01 592.896 1546.32 576C1695.81 592.512 1845.31 609.024 1995 625.536Z" fill="#10C9E1"/>
<path d="M1995 843.648V846.528C1778.72 778.752 1562.25 711.168 1345.58 643.968C1561.67 710.784 1778.14 777.216 1995 843.648Z" fill="#10C9E1"/>
<path d="M1995 858.24V861.312C1780.64 791.232 1565.89 721.344 1350.76 651.648C1565.12 720.576 1780.06 789.504 1995 858.24Z" fill="#10C9E1"/>
<path d="M1995 878.976V882.24C1773.92 805.632 1552.46 729.408 1330.8 653.376C1551.69 728.832 1773.15 803.904 1995 878.976Z" fill="#10C9E1"/>
<path d="M1848.57 960H1840.51C1679.31 881.664 1517.72 803.328 1355.75 725.184C1519.64 803.712 1683.92 881.856 1848.57 960Z" fill="#10C9E1"/>
<path d="M1319.48 960H1316.22C1246.55 884.352 1176.51 808.512 1106.27 732.864C1177.08 808.704 1248.09 884.352 1319.48 960Z" fill="#10C9E1"/>
<path d="M1296.45 960H1293.38C1229.67 886.848 1165.76 813.696 1101.47 740.736C1166.15 813.888 1231.2 886.848 1296.45 960Z" fill="#10C9E1"/>
<path d="M1264.98 960H1261.91C1202.22 885.696 1142.35 811.392 1082.28 737.28C1142.92 811.584 1203.95 885.696 1264.98 960Z" fill="#10C9E1"/>
<path d="M1083.82 960H1081.51C1060.21 907.968 1038.72 855.936 1017.22 803.904C1039.29 855.936 1061.55 907.968 1083.82 960Z" fill="#10C9E1"/>
<path d="M720.34 960H717.845C745.288 889.728 772.347 819.456 799.406 749.184C772.731 819.456 746.439 889.728 720.34 960Z" fill="#10C9E1"/>
<path d="M699.998 960H697.503C727.249 891.456 756.803 823.104 786.165 754.56C757.186 822.912 728.592 891.456 699.998 960Z" fill="#10C9E1"/>
<path d="M671.595 960H668.908C704.219 888.96 739.339 817.92 774.074 746.88C739.722 817.92 705.563 888.96 671.595 960Z" fill="#10C9E1"/>
<path d="M487.746 960H484.867C536.683 902.4 588.306 844.608 639.93 787.008C589.074 844.608 538.218 902.208 487.746 960Z" fill="#10C9E1"/>
<path d="M941.42 960H935.662L917.047 823.488L941.42 960Z" fill="#10C9E1" fill-opacity="0.1"/>
<path d="M1240.8 960.001H1228.13L1043.9 683.521L1240.8 960.001Z" fill="#10C9E1" fill-opacity="0.1"/>
<path d="M1995 787.968V794.688L1385.3 644.736L1995 787.968Z" fill="#10C9E1" fill-opacity="0.1"/>
<path d="M1995 529.344V532.992L1581.05 520.128L1995 529.344Z" fill="#10C9E1" fill-opacity="0.1"/>
<path d="M1672.4 398.784L1993.66 354.624L1991.93 351.744L1672.4 398.784Z" fill="#10C9E1" fill-opacity="0.1"/>
<path d="M1830.92 0H1856.83L1178.81 368.64L1830.92 0Z" fill="#10C9E1" fill-opacity="0.1"/>
<path d="M884.422 0H892.29L897.088 187.776L884.422 0Z" fill="#10C9E1" fill-opacity="0.1"/>
<path d="M701.341 0H715.159L788.852 327.936L701.341 0Z" fill="#10C9E1" fill-opacity="0.1"/>
<path d="M309.079 247.681L48.85 127.104L43.8603 129.409L309.079 247.681Z" fill="#10C9E1" fill-opacity="0.1"/>
<path d="M461.263 481.92L-116 461.952V456.96L461.263 481.92Z" fill="#10C9E1" fill-opacity="0.1"/>
<path d="M514.997 598.08L-116 756.48V749.376L514.997 598.08Z" fill="#10C9E1" fill-opacity="0.1"/>
<path d="M741.258 960H730.703L809.961 712.128L741.258 960Z" fill="#10C9E1" fill-opacity="0.1"/>
<path d="M520.755 687.168C338.441 777.984 156.511 868.8 -25.2267 960H-32.903C152.289 869.184 336.714 778.368 520.755 687.168Z" fill="#10C9E1"/>
<path d="M503.483 688.512C314.644 778.752 126.382 869.376 -61.6894 960H-69.7497C121.776 869.76 312.725 779.136 503.483 688.512Z" fill="#10C9E1"/>
<path d="M-115.999 956.544C90.4947 864.384 296.797 771.84 502.523 679.296C296.221 772.608 90.4946 866.304 -114.656 960.192H-115.808V956.544H-115.999Z" fill="#10C9E1"/>
<path d="M342.279 680.064C189.328 729.408 36.568 778.944 -116 828.48V826.176C36.9518 777.6 189.711 728.832 342.279 680.064Z" fill="#10C9E1"/>
<path d="M360.702 566.4C201.802 585.6 42.9008 604.992 -116 624.384V623.04C42.9008 604.416 201.802 585.408 360.702 566.4Z" fill="#10C9E1"/>
<path d="M344.582 563.328C191.055 580.416 37.3354 597.696 -116 614.976V613.824C37.5273 596.928 191.246 580.224 344.582 563.328Z" fill="#10C9E1"/>
<path d="M354.753 555.073C197.771 570.625 40.7897 586.176 -116 601.728V600.576C40.9816 585.6 197.963 570.433 354.753 555.073Z" fill="#10C9E1"/>
<path d="M218.881 516.48C107.19 518.976 -4.30879 521.28 -116 523.776V522.816C-4.30879 520.896 107.19 518.784 218.881 516.48Z" fill="#10C9E1"/>
<path d="M369.338 426.24C207.559 402.432 45.7796 378.816 -116 355.2V353.856C45.7796 378.048 207.367 402.048 369.338 426.24Z" fill="#10C9E1"/>
<path d="M359.551 419.521C201.034 394.753 42.5171 369.985 -116 345.217V343.873C42.5171 369.025 201.034 394.369 359.551 419.521Z" fill="#10C9E1"/>
<path d="M377.782 415.104C213.316 387.072 48.6582 359.04 -116 331.2V329.664C48.4663 358.272 213.124 386.688 377.782 415.104Z" fill="#10C9E1"/>
<path d="M309.847 348.864C168.026 311.616 26.0132 274.56 -116 237.504V235.584C25.8213 273.408 167.642 311.232 309.847 348.864Z" fill="#10C9E1"/>
<path d="M-17.5504 0H-9.2984C174.551 103.488 358.783 206.784 543.592 309.696C356.864 206.4 169.945 103.104 -17.5504 0Z" fill="#10C9E1"/>
<path d="M18.1445 0H25.8208C197.771 100.8 370.298 201.408 543.208 301.824C368.762 201.024 193.549 100.416 18.1445 0Z" fill="#10C9E1"/>
<path d="M65.9299 0H73.2224C236.345 100.992 399.66 201.984 563.742 302.592C398.317 201.6 232.315 100.8 65.9299 0Z" fill="#10C9E1"/>
<path d="M323.664 0H328.27C413.478 76.8 499.069 153.6 584.852 230.208C498.11 153.408 410.983 76.608 323.664 0Z" fill="#10C9E1"/>
<path d="M762.368 0H765.631C786.549 84.864 807.851 169.728 829.344 254.784C807.275 169.728 785.013 84.864 762.368 0Z" fill="#10C9E1"/>
<path d="M784.246 0H787.316C804.204 82.56 821.092 165.312 838.556 247.872C820.708 165.312 802.669 82.56 784.246 0Z" fill="#10C9E1"/>
<path d="M814.567 0H817.83C829.92 84.48 842.202 169.152 854.868 253.632C841.626 169.152 828.193 84.48 814.567 0Z" fill="#10C9E1"/>
<path d="M999.376 0H1002.25C987.286 66.048 972.317 131.904 957.732 197.952C971.933 131.904 985.75 66.048 999.376 0Z" fill="#10C9E1"/>
<path d="M1431.94 0H1436.74C1335.6 92.928 1234.85 185.856 1134.29 278.784C1233.89 185.856 1333.11 92.928 1431.94 0Z" fill="#10C9E1"/>
<path d="M1459 0H1463.8C1359.01 91.776 1254.42 183.552 1150.41 275.328C1253.46 183.744 1356.33 91.776 1459 0Z" fill="#10C9E1"/>
<path d="M1497.19 0H1502.37C1386.84 94.656 1271.89 189.312 1157.13 284.16C1270.93 189.504 1384.35 94.848 1497.19 0Z" fill="#10C9E1"/>
<path d="M1762.79 0H1770.66C1616.75 87.36 1463.22 174.912 1310.27 262.656C1461.49 175.296 1612.33 87.744 1762.79 0Z" fill="#10C9E1"/>
<path d="M1995 198.72V201.408C1783.71 258.624 1572.8 316.032 1362.08 373.824C1573.18 315.456 1784.28 257.088 1995 198.72Z" fill="#10C9E1"/>
<path d="M1995 211.968V214.464C1789.66 267.648 1584.31 321.216 1379.36 374.784C1584.89 320.64 1790.04 266.304 1995 211.968Z" fill="#10C9E1"/>
<path d="M1995 229.824V232.128C1788.12 282.432 1581.24 332.928 1374.75 383.616C1581.63 332.544 1788.51 281.28 1995 229.824Z" fill="#10C9E1"/>
<path d="M1995 330.048V331.776C1839.75 355.584 1684.49 379.584 1529.24 403.584C1684.49 379.2 1839.75 354.624 1995 330.048Z" fill="#10C9E1"/>
<path d="M1995 516.096V517.632C1810.38 514.944 1625.96 512.448 1441.34 509.952C1625.77 512.064 1810.38 514.176 1995 516.096Z" fill="#10C9E1"/>
<path d="M1995 525.888V527.232C1814.99 523.008 1634.79 518.976 1454.78 514.944C1634.79 518.784 1814.99 522.432 1995 525.888Z" fill="#10C9E1"/>
<path d="M1995 539.52V541.056C1810 534.336 1625 527.808 1440 521.472C1625 527.616 1810 533.568 1995 539.52Z" fill="#10C9E1"/>
<path d="M1995 625.536V627.072C1845.5 609.985 1696.01 592.896 1546.32 576C1695.81 592.512 1845.31 609.024 1995 625.536Z" fill="#10C9E1"/>
<path d="M1995 843.648V846.528C1778.72 778.752 1562.25 711.168 1345.58 643.968C1561.67 710.784 1778.14 777.216 1995 843.648Z" fill="#10C9E1"/>
<path d="M1995 858.24V861.312C1780.64 791.232 1565.89 721.344 1350.76 651.648C1565.12 720.576 1780.06 789.504 1995 858.24Z" fill="#10C9E1"/>
<path d="M1995 878.976V882.24C1773.92 805.632 1552.46 729.408 1330.8 653.376C1551.69 728.832 1773.15 803.904 1995 878.976Z" fill="#10C9E1"/>
<path d="M1848.57 960H1840.51C1679.31 881.664 1517.72 803.328 1355.75 725.184C1519.64 803.712 1683.92 881.856 1848.57 960Z" fill="#10C9E1"/>
<path d="M1319.48 960H1316.22C1246.55 884.352 1176.51 808.512 1106.27 732.864C1177.08 808.704 1248.09 884.352 1319.48 960Z" fill="#10C9E1"/>
<path d="M1296.45 960H1293.38C1229.67 886.848 1165.76 813.696 1101.47 740.736C1166.15 813.888 1231.2 886.848 1296.45 960Z" fill="#10C9E1"/>
<path d="M1264.98 960H1261.91C1202.22 885.696 1142.35 811.392 1082.28 737.28C1142.92 811.584 1203.95 885.696 1264.98 960Z" fill="#10C9E1"/>
<path d="M1083.82 960H1081.51C1060.21 907.968 1038.72 855.936 1017.22 803.904C1039.29 855.936 1061.55 907.968 1083.82 960Z" fill="#10C9E1"/>
<path d="M720.34 960H717.845C745.288 889.728 772.347 819.456 799.406 749.184C772.731 819.456 746.439 889.728 720.34 960Z" fill="#10C9E1"/>
<path d="M699.998 960H697.503C727.249 891.456 756.803 823.104 786.165 754.56C757.186 822.912 728.592 891.456 699.998 960Z" fill="#10C9E1"/>
<path d="M671.595 960H668.908C704.219 888.96 739.339 817.92 774.074 746.88C739.722 817.92 705.563 888.96 671.595 960Z" fill="#10C9E1"/>
<path d="M487.746 960H484.867C536.683 902.4 588.306 844.608 639.93 787.008C589.074 844.608 538.218 902.208 487.746 960Z" fill="#10C9E1"/>
</g>
</svg>
