<svg width="68" height="80" viewBox="0 0 68 80" fill="none" xmlns="http://www.w3.org/2000/svg">
<g clip-path="url(#clip0_218_1215)">
<path d="M61.9823 1.33802C46.5677 22.2377 34.0694 45.1212 24.7189 69.3426C18.7012 60.5768 14.6276 50.6114 12.5909 40.1385C11.8039 36.1708 5.73996 37.8778 6.52689 41.7994C9.11913 55.0866 14.998 67.4049 23.4227 78.0162C25.0429 80.0462 27.9592 78.616 28.6998 76.6321C38.0967 50.8882 51.1967 26.5745 67.4908 4.47528C69.8053 1.24575 64.3894 -1.8915 61.9823 1.33802Z" fill="#10C9E1"/>
<path d="M63.7876 25.6979C57.9551 32.2953 53.002 39.631 49.16 47.5664C48.049 49.8271 47.0306 52.18 46.1048 54.5329C45.8734 55.0866 46.3363 55.7786 46.8918 55.917C47.5398 56.1016 48.049 55.6863 48.2805 55.1327C51.4282 47.1973 55.6406 39.7232 60.7788 32.9412C62.2137 31.0035 63.7876 29.1581 65.3615 27.3588C66.3336 26.2054 64.7597 24.5906 63.7876 25.6979Z" fill="#10C9E1"/>
<path d="M44.6235 62.5607C44.1143 62.2839 43.3274 62.3762 43.0497 62.9759C42.0313 65.0521 41.0592 67.082 40.0408 69.1582C39.7631 69.7118 39.8557 70.4038 40.4574 70.7268C40.9666 71.0036 41.7536 70.9113 42.0313 70.3116C43.0497 68.2354 44.0218 66.2055 45.0401 64.1293C45.3179 63.5757 45.2253 62.8375 44.6235 62.5607Z" fill="#10C9E1"/>
<path d="M14.9516 78.3393C10.3226 71.0959 6.80461 63.2066 4.5364 54.9483C4.16608 53.5181 1.94416 54.1178 2.31448 55.548C4.62898 63.991 8.19331 72.1109 12.9612 79.4927C13.7481 80.6922 15.7386 79.585 14.9516 78.3393Z" fill="#10C9E1"/>
<path d="M3.42546 47.6124C3.00885 46.4129 2.63853 45.2595 2.22192 44.06C2.03676 43.5063 1.43499 43.0911 0.833223 43.2756C0.277743 43.4602 -0.185157 44.06 0.0462935 44.6597C0.462903 45.8593 0.833223 47.0127 1.24983 48.2122C1.43499 48.7658 2.03676 49.1811 2.63853 48.9965C3.19401 48.8581 3.65691 48.2122 3.42546 47.6124Z" fill="#10C9E1"/>
<path d="M61.4268 47.8893C60.8251 47.5663 60.2233 47.797 59.853 48.3045C55.548 54.0254 51.9374 60.2076 49.1137 66.7589C48.8822 67.3126 48.9285 67.9585 49.5303 68.3276C49.9932 68.6044 50.8264 68.466 51.1042 67.9123C53.9278 61.361 57.5385 55.1788 61.8434 49.4579C62.1675 48.9504 61.8897 48.2122 61.4268 47.8893Z" fill="#10C9E1"/>
</g>
<defs>
<clipPath id="clip0_218_1215">
<rect width="68" height="80" fill="white"/>
</clipPath>
</defs>
</svg>
