<svg width="25" height="24" viewBox="0 0 25 24" fill="none" xmlns="http://www.w3.org/2000/svg">
<path d="M15.5 10.75C15.5 12.4069 14.1569 13.75 12.5 13.75C10.8431 13.75 9.5 12.4069 9.5 10.75C9.5 9.09315 10.8431 7.75 12.5 7.75C14.1569 7.75 15.5 9.09315 15.5 10.75Z" stroke="#10C9E1" stroke-width="1.5"/>
<path d="M20.5684 6.49188L20.1381 5.74236C19.8127 5.17551 19.6499 4.89208 19.3731 4.77906C19.0962 4.66604 18.7831 4.75522 18.1569 4.93359L17.0931 5.23432C16.6933 5.32686 16.2738 5.27437 15.9087 5.08611L15.6151 4.91603C15.302 4.71479 15.0612 4.41808 14.9279 4.06931L14.6368 3.1966C14.4454 2.61908 14.3497 2.33033 14.1218 2.16516C13.8939 2 13.5913 2 12.9859 2H12.0141C11.4087 2 11.1061 2 10.8782 2.16516C10.6503 2.33033 10.5546 2.61908 10.3632 3.1966L10.0721 4.06931C9.93878 4.41808 9.698 4.71479 9.38495 4.91603L9.09126 5.08611C8.7262 5.27437 8.30673 5.32686 7.90693 5.23432L6.84313 4.93359C6.21689 4.75522 5.90377 4.66604 5.62691 4.77906C5.35005 4.89208 5.18734 5.17551 4.8619 5.74236L4.43159 6.49188C4.12655 7.02323 3.97402 7.2889 4.00362 7.57172C4.03323 7.85453 4.23741 8.08244 4.64579 8.53827L5.54464 9.54689C5.76433 9.82603 5.9203 10.3125 5.9203 10.7499C5.9203 11.1875 5.76438 11.6738 5.54467 11.953L4.64579 12.9617C4.23742 13.4175 4.03323 13.6454 4.00363 13.9282C3.97402 14.211 4.12655 14.4767 4.4316 15.008L4.86189 15.7575C5.18732 16.3244 5.35005 16.6078 5.62691 16.7209C5.90378 16.8339 6.2169 16.7447 6.84315 16.5663L7.90689 16.2656C8.30677 16.173 8.72631 16.2255 9.09142 16.4139L9.38506 16.584C9.69804 16.7852 9.93878 17.0819 10.072 17.4306L10.3632 18.3034C10.5546 18.8809 10.6503 19.1697 10.8782 19.3348C11.1061 19.5 11.4087 19.5 12.0141 19.5H12.9859C13.5913 19.5 13.8939 19.5 14.1218 19.3348C14.3497 19.1697 14.4454 18.8809 14.6368 18.3034L14.928 17.4306C15.0612 17.0819 15.302 16.7852 15.6149 16.584L15.9086 16.4139C16.2737 16.2255 16.6932 16.173 17.0931 16.2656L18.1569 16.5663C18.7831 16.7447 19.0962 16.8339 19.3731 16.7209C19.65 16.6078 19.8127 16.3244 20.1381 15.7575L20.5684 15.008C20.8735 14.4767 21.026 14.211 20.9964 13.9282C20.9668 13.6454 20.7626 13.4175 20.3542 12.9617L19.4553 11.953C19.2356 11.6738 19.0797 11.1875 19.0797 10.7499C19.0797 10.3125 19.2357 9.82603 19.4554 9.54689L20.3542 8.53827C20.7626 8.08244 20.9668 7.85453 20.9964 7.57172C21.026 7.2889 20.8735 7.02323 20.5684 6.49188Z" stroke="#10C9E1" stroke-width="1.5" stroke-linecap="round"/>
<path d="M22.5 18C22.5 18.93 22.5 19.395 22.3978 19.7765C22.1204 20.8117 21.3117 21.6204 20.2765 21.8978C19.895 22 19.43 22 18.5 22H6.5C5.57003 22 5.10504 22 4.72354 21.8978C3.68827 21.6204 2.87962 20.8117 2.60222 19.7765C2.5 19.395 2.5 18.93 2.5 18" stroke="#10C9E1" stroke-width="1.5" stroke-linecap="round"/>
</svg>
