<svg width="25" height="24" viewBox="0 0 25 24" fill="none" xmlns="http://www.w3.org/2000/svg">
<path d="M6.28223 4.18192C6.93007 3.68319 7.254 3.43383 7.62788 3.27323C7.79741 3.20041 7.97367 3.14158 8.15459 3.09741C8.5536 3 8.9767 3 9.82289 3H15.1771C16.0233 3 16.4464 3 16.8454 3.09741C17.0263 3.14158 17.2026 3.20041 17.3721 3.27323C17.746 3.43383 18.0699 3.68319 18.7178 4.18192C20.8644 5.83448 21.9378 6.66077 22.3057 7.73078C22.4694 8.20673 22.5305 8.70728 22.4858 9.20461C22.3852 10.3227 21.5379 11.346 19.8433 13.3925L15.8498 18.2153C14.3126 20.0718 13.544 21 12.5 21C11.456 21 10.6874 20.0718 9.15018 18.2153L5.15671 13.3925C3.46208 11.346 2.61476 10.3227 2.5142 9.20461C2.46947 8.70728 2.53064 8.20673 2.6943 7.73078C3.06224 6.66077 4.13557 5.83448 6.28223 4.18192Z" stroke="#10C9E1" stroke-width="1.5"/>
<path d="M10.5 8.5H14.5" stroke="#10C9E1" stroke-width="1.5" stroke-linecap="round" stroke-linejoin="round"/>
</svg>
