<svg width="25" height="24" viewBox="0 0 25 24" fill="none" xmlns="http://www.w3.org/2000/svg">
<path d="M12.5 21C16.9183 21 20.5 19.2091 20.5 17C20.5 16.0234 19.6597 15.468 19.4475 14.5886C19.3278 14.0928 19.5 13.5112 19.5 13C19.5 11.8639 19.2293 10.7909 18.7489 9.84218C20.6255 8.21287 22.5 5.60644 22.5 3C18.3474 3 16.2434 5.3492 15.5997 6.72194C13.6658 5.76534 11.3342 5.76534 9.40035 6.72194C8.75655 5.3492 6.65258 3 2.5 3C2.5 5.60644 4.37445 8.21287 6.25106 9.84218C5.77067 10.7909 5.5 11.8639 5.5 13C5.5 13.5112 5.67216 14.0928 5.55251 14.5886C5.3403 15.468 4.5 16.0234 4.5 17C4.5 19.2091 8.08172 21 12.5 21Z" stroke="#10C9E1" stroke-width="1.5" stroke-linejoin="round"/>
<path d="M11.5 16C12.2925 16.6596 12.706 16.6737 13.5 16" stroke="#10C9E1" stroke-width="1.5" stroke-linecap="round" stroke-linejoin="round"/>
<path d="M9.5 12.5L9.49102 12.5" stroke="#10C9E1" stroke-width="2" stroke-linecap="round" stroke-linejoin="round"/>
<path d="M15.5078 12.5L15.4988 12.5" stroke="#10C9E1" stroke-width="2" stroke-linecap="round" stroke-linejoin="round"/>
<path d="M18.25 16.6594C18.25 15.8065 18.8364 15.0256 19.7469 14.7082L19.2531 13.2918C17.8253 13.7896 16.75 15.0826 16.75 16.6594H18.25ZM19.2411 18.3667C18.6228 17.9745 18.25 17.3437 18.25 16.6594H16.75C16.75 17.9159 17.4375 18.9989 18.4376 19.6333L19.2411 18.3667Z" fill="#10C9E1"/>
<path d="M5.25309 14.7082C6.16364 15.0256 6.75 15.8065 6.75 16.6594H8.25C8.25 15.0826 7.17473 13.7896 5.74691 13.2918L5.25309 14.7082ZM6.75 16.6594C6.75 17.3437 6.37724 17.9745 5.75893 18.3667L6.56239 19.6333C7.56254 18.9989 8.25 17.9159 8.25 16.6594H6.75Z" fill="#10C9E1"/>
</svg>
