<svg width="25" height="24" viewBox="0 0 25 24" fill="none" xmlns="http://www.w3.org/2000/svg">
<path d="M6 20V22M20 20V22" stroke="#10C9E1" stroke-width="1.5" stroke-linecap="round" stroke-linejoin="round"/>
<path d="M3.5 11L21.5 11" stroke="#10C9E1" stroke-width="1.5" stroke-linecap="round" stroke-linejoin="round"/>
<path d="M3.5 14V8C3.5 5.17157 3.5 3.75736 4.43037 2.87868C5.36073 2 6.85814 2 9.85294 2H15.1471C18.1419 2 19.6393 2 20.5696 2.87868C21.5 3.75736 21.5 5.17157 21.5 8V14C21.5 16.8284 21.5 18.2426 20.5696 19.1213C19.6393 20 18.1419 20 15.1471 20H9.85294C6.85814 20 5.36073 20 4.43037 19.1213C3.5 18.2426 3.5 16.8284 3.5 14Z" stroke="#10C9E1" stroke-width="1.5" stroke-linecap="round" stroke-linejoin="round"/>
<path d="M14 11L12 6" stroke="#10C9E1" stroke-width="1.5" stroke-linecap="round" stroke-linejoin="round"/>
<path d="M7.5 11V6" stroke="#10C9E1" stroke-width="1.5" stroke-linecap="round" stroke-linejoin="round"/>
<path d="M8.5 19.5V15" stroke="#10C9E1" stroke-width="1.5" stroke-linecap="round" stroke-linejoin="round"/>
<path d="M12.5 20V15" stroke="#10C9E1" stroke-width="1.5" stroke-linecap="round" stroke-linejoin="round"/>
<path d="M17.5 11V6" stroke="#10C9E1" stroke-width="1.5" stroke-linecap="round" stroke-linejoin="round"/>
<path d="M16.5 20L17.5 15" stroke="#10C9E1" stroke-width="1.5" stroke-linecap="round" stroke-linejoin="round"/>
</svg>
