<svg width="42" height="49" viewBox="0 0 42 49" fill="none" xmlns="http://www.w3.org/2000/svg">
<g clip-path="url(#clip0_333_1685)">
<path d="M38.2832 0.819485C28.7624 13.6205 21.0429 27.6367 15.2675 42.4723C11.5507 37.1032 9.03473 30.9994 7.77673 24.5848C7.29069 22.1545 3.54528 23.2001 4.03133 25.6021C5.63242 33.7405 9.26346 41.2855 14.467 47.7849C15.4677 49.0283 17.2689 48.1522 17.7264 46.9371C23.5303 31.169 31.6215 16.2768 41.6855 2.74105C43.1151 0.762968 39.7699 -1.1586 38.2832 0.819485Z" fill="#10C9E1"/>
<path d="M39.3982 15.7399C35.7958 19.7809 32.7366 24.2739 30.3635 29.1344C29.6773 30.519 29.0483 31.9602 28.4765 33.4014C28.3336 33.7405 28.6195 34.1644 28.9626 34.2491C29.3628 34.3622 29.6773 34.1078 29.8203 33.7687C31.7645 28.9083 34.3662 24.3305 37.5398 20.1765C38.4261 18.9896 39.3982 17.8593 40.3703 16.7572C40.9707 16.0508 39.9986 15.0617 39.3982 15.7399Z" fill="#10C9E1"/>
<path d="M27.5617 38.3184C27.2472 38.1488 26.7611 38.2053 26.5896 38.5727C25.9606 39.8443 25.3602 41.0877 24.7312 42.3593C24.5596 42.6984 24.6168 43.1223 24.9885 43.3201C25.303 43.4896 25.789 43.4331 25.9606 43.0658C26.5896 41.7941 27.19 40.5508 27.819 39.2791C27.9905 38.94 27.9334 38.4879 27.5617 38.3184Z" fill="#10C9E1"/>
<path d="M9.23485 47.9827C6.37576 43.5461 4.20286 38.714 2.8019 33.6557C2.57318 32.7797 1.20082 33.1471 1.42954 34.0231C2.85909 39.1944 5.06058 44.1678 8.00544 48.6892C8.49149 49.4239 9.7209 48.7457 9.23485 47.9827Z" fill="#10C9E1"/>
<path d="M2.11578 29.1625C1.85846 28.4278 1.62973 27.7213 1.37242 26.9866C1.25805 26.6475 0.886371 26.3932 0.51469 26.5062C0.171599 26.6193 -0.114309 26.9866 0.0286451 27.354C0.285963 28.0887 0.51469 28.7951 0.772008 29.5299C0.886371 29.869 1.25805 30.1233 1.62973 30.0103C1.97282 29.9255 2.25873 29.5299 2.11578 29.1625Z" fill="#10C9E1"/>
<path d="M37.9401 29.332C37.5685 29.1342 37.1968 29.2755 36.968 29.5863C34.3091 33.0904 32.079 36.877 30.335 40.8897C30.192 41.2288 30.2206 41.6244 30.5923 41.8505C30.8782 42.02 31.3928 41.9352 31.5644 41.5961C33.3084 37.5835 35.5385 33.7968 38.1975 30.2928C38.3976 29.982 38.226 29.5298 37.9401 29.332Z" fill="#10C9E1"/>
</g>
<defs>
<clipPath id="clip0_333_1685">
<rect width="42" height="49" fill="white"/>
</clipPath>
</defs>
</svg>
