<svg width="30" height="30" viewBox="0 0 30 30" fill="none" xmlns="http://www.w3.org/2000/svg">
<circle cx="15" cy="15" r="15" fill="#06D1EA"/>
<g clip-path="url(#clip0_15_5991)">
<path d="M20.7276 7.8H15.6V9.6H19.1274L7.80005 20.9274L9.07265 22.2L20.4 10.8726V14.4H22.2V9.2724C22.1996 8.88204 22.0443 8.50781 21.7683 8.23179C21.4922 7.95576 21.118 7.80048 20.7276 7.8Z" fill="black"/>
<path d="M11.7 14.4C12.234 14.4 12.756 14.2416 13.2 13.945C13.6441 13.6483 13.9901 13.2266 14.1945 12.7332C14.3988 12.2399 14.4523 11.697 14.3481 11.1733C14.2439 10.6495 13.9868 10.1684 13.6092 9.79081C13.2316 9.41321 12.7505 9.15606 12.2267 9.05188C11.703 8.9477 11.1601 9.00117 10.6668 9.20553C10.1734 9.40988 9.75171 9.75595 9.45503 10.2C9.15835 10.644 9 11.166 9 11.7C9.00079 12.4158 9.28551 13.1021 9.79169 13.6083C10.2979 14.1145 10.9842 14.3992 11.7 14.4ZM11.7 10.8C11.878 10.8 12.052 10.8528 12.2 10.9517C12.348 11.0506 12.4634 11.1911 12.5315 11.3556C12.5996 11.52 12.6174 11.701 12.5827 11.8756C12.548 12.0502 12.4623 12.2105 12.3364 12.3364C12.2105 12.4623 12.0502 12.548 11.8756 12.5827C11.701 12.6174 11.52 12.5996 11.3556 12.5315C11.1911 12.4634 11.0506 12.348 10.9517 12.2C10.8528 12.052 10.8 11.878 10.8 11.7C10.8 11.4613 10.8948 11.2324 11.0636 11.0636C11.2324 10.8948 11.4613 10.8 11.7 10.8Z" fill="black"/>
<path d="M18.3001 15.6C17.7661 15.6 17.2441 15.7584 16.8001 16.055C16.356 16.3517 16.01 16.7734 15.8056 17.2668C15.6013 17.7601 15.5478 18.303 15.652 18.8268C15.7562 19.3505 16.0133 19.8316 16.3909 20.2092C16.7685 20.5868 17.2496 20.8439 17.7734 20.9481C18.2971 21.0523 18.84 20.9988 19.3333 20.7945C19.8267 20.5901 20.2484 20.2441 20.5451 19.8C20.8417 19.356 21.0001 18.834 21.0001 18.3C20.9993 17.5842 20.7146 16.8979 20.2084 16.3917C19.7022 15.8855 19.0159 15.6008 18.3001 15.6ZM18.3001 19.2C18.1221 19.2 17.9481 19.1472 17.8001 19.0483C17.6521 18.9494 17.5367 18.8089 17.4686 18.6444C17.4005 18.48 17.3827 18.299 17.4174 18.1244C17.4521 17.9498 17.5378 17.7895 17.6637 17.6636C17.7896 17.5377 17.9499 17.452 18.1245 17.4173C18.2991 17.3826 18.4801 17.4004 18.6445 17.4685C18.809 17.5366 18.9495 17.652 19.0484 17.8C19.1473 17.948 19.2001 18.122 19.2001 18.3C19.2001 18.5387 19.1053 18.7676 18.9365 18.9364C18.7677 19.1052 18.5388 19.2 18.3001 19.2Z" fill="black"/>
</g>
<defs>
<clipPath id="clip0_15_5991">
<rect width="14.4" height="14.4" fill="white" transform="translate(7.80005 7.8)"/>
</clipPath>
</defs>
</svg>
