<svg width="27" height="21" viewBox="0 0 27 21" fill="none" xmlns="http://www.w3.org/2000/svg">
<g clip-path="url(#clip0_2019_638)">
<path d="M26.468 20.7153V20.7693H26.5183C26.5278 20.7695 26.5371 20.7671 26.5453 20.7624C26.5486 20.7601 26.5513 20.757 26.553 20.7534C26.5548 20.7498 26.5556 20.7458 26.5555 20.7418C26.5556 20.7379 26.5548 20.7339 26.553 20.7304C26.5512 20.7269 26.5486 20.7239 26.5453 20.7217C26.5372 20.7168 26.5278 20.7144 26.5183 20.7148H26.468V20.7153ZM26.5189 20.6771C26.5405 20.6758 26.5618 20.682 26.5794 20.6947C26.5864 20.7004 26.592 20.7078 26.5956 20.7161C26.5993 20.7244 26.601 20.7334 26.6005 20.7425C26.6009 20.7503 26.5995 20.7581 26.5966 20.7653C26.5936 20.7725 26.5892 20.7791 26.5835 20.7844C26.57 20.7962 26.5531 20.8032 26.5352 20.8045L26.6027 20.8815H26.5507L26.4886 20.8051H26.4685V20.8815H26.425V20.6773H26.5195L26.5189 20.6771ZM26.5054 20.9519C26.5282 20.9521 26.5508 20.9475 26.5717 20.9384C26.5918 20.9298 26.6101 20.9173 26.6257 20.9019C26.6412 20.8864 26.6536 20.8681 26.6622 20.8479C26.68 20.8051 26.68 20.757 26.6622 20.7143C26.6535 20.6941 26.6411 20.6758 26.6257 20.6603C26.6101 20.6448 26.5918 20.6324 26.5717 20.6237C26.5506 20.6151 26.5281 20.6108 26.5054 20.611C26.4823 20.6108 26.4593 20.6151 26.4379 20.6237C26.4173 20.6322 26.3985 20.6446 26.3827 20.6603C26.3588 20.6848 26.3426 20.7157 26.3362 20.7493C26.3298 20.7829 26.3334 20.8177 26.3466 20.8492C26.3548 20.8695 26.3671 20.8878 26.3827 20.9032C26.3985 20.9188 26.4173 20.9313 26.4379 20.9398C26.4592 20.9489 26.4822 20.9535 26.5054 20.9533M26.5054 20.5619C26.5647 20.5618 26.6217 20.5851 26.664 20.6267C26.6844 20.6466 26.7006 20.6704 26.7118 20.6967C26.7233 20.7237 26.7293 20.7527 26.7293 20.7821C26.7293 20.8114 26.7233 20.8405 26.7118 20.8674C26.7004 20.8936 26.6842 20.9173 26.664 20.9375C26.6433 20.9573 26.6192 20.9733 26.5928 20.9847C26.5652 20.9965 26.5354 21.0024 26.5054 21.0023C26.475 21.0025 26.4448 20.9965 26.4168 20.9847C26.3902 20.9736 26.3659 20.9576 26.3451 20.9375C26.325 20.9166 26.309 20.892 26.298 20.8651C26.2865 20.8382 26.2805 20.8091 26.2805 20.7798C26.2805 20.7504 26.2865 20.7214 26.298 20.6944C26.3092 20.6681 26.3254 20.6443 26.3458 20.6244C26.3662 20.6039 26.3906 20.5879 26.4175 20.5771C26.4455 20.5653 26.4756 20.5594 26.506 20.5596M5.83417 19.7733C5.83417 19.3839 6.08932 19.0641 6.50634 19.0641C6.90486 19.0641 7.17378 19.3702 7.17378 19.7733C7.17378 20.1764 6.90486 20.4825 6.50634 20.4825C6.08932 20.4825 5.83417 20.1627 5.83417 19.7733ZM7.62805 19.7733V18.6653H7.14624V18.9352C6.99342 18.7357 6.76162 18.6106 6.4464 18.6106C5.8254 18.6106 5.33805 19.0976 5.33805 19.7738C5.33805 20.4501 5.82513 20.9371 6.4464 20.9371C6.76149 20.9371 6.99342 20.8118 7.14624 20.6125V20.8815H7.62751V19.7733H7.62805ZM23.908 19.7733C23.908 19.3839 24.1631 19.0641 24.5803 19.0641C24.9792 19.0641 25.2477 19.3702 25.2477 19.7733C25.2477 20.1764 24.9792 20.4825 24.5803 20.4825C24.1633 20.4825 23.908 20.1627 23.908 19.7733ZM25.7024 19.7733V17.7759H25.2202V18.9352C25.0674 18.7357 24.8356 18.6106 24.5203 18.6106C23.8993 18.6106 23.412 19.0976 23.412 19.7738C23.412 20.4501 23.8991 20.9371 24.5203 20.9371C24.8356 20.9371 25.0674 20.8118 25.2202 20.6125V20.8815H25.7024V19.7733ZM13.608 19.0413C13.9185 19.0413 14.1179 19.2359 14.1688 19.5786H13.0191C13.0706 19.2587 13.2648 19.0413 13.6081 19.0413M13.6177 18.6094C12.9684 18.6094 12.5141 19.0818 12.5141 19.7726C12.5141 20.477 12.9866 20.9359 13.65 20.9359C13.9837 20.9359 14.2894 20.8526 14.5583 20.6255L14.3222 20.2685C14.1364 20.4169 13.8999 20.5002 13.6775 20.5002C13.367 20.5002 13.0843 20.3565 13.0148 19.9577H14.6601C14.6648 19.8977 14.6697 19.8373 14.6697 19.7725C14.6648 19.0819 14.2377 18.6093 13.6175 18.6093M19.4346 19.7725C19.4346 19.3831 19.6898 19.0633 20.1068 19.0633C20.5053 19.0633 20.7742 19.3694 20.7742 19.7725C20.7742 20.1756 20.5053 20.4817 20.1068 20.4817C19.6898 20.4817 19.4345 20.1619 19.4345 19.7725M21.2284 19.7725V18.6653H20.7468V18.9352C20.5935 18.7357 20.3622 18.6106 20.047 18.6106C19.426 18.6106 18.9386 19.0976 18.9386 19.7738C18.9386 20.4501 19.4257 20.9371 20.047 20.9371C20.3622 20.9371 20.5935 20.8118 20.7468 20.6125V20.8815H21.2285V19.7733L21.2284 19.7725ZM16.7137 19.7725C16.7137 20.4445 17.1816 20.9357 17.8957 20.9357C18.2295 20.9357 18.4518 20.8615 18.6922 20.6716L18.4609 20.2822C18.28 20.4122 18.09 20.4817 17.8804 20.4817C17.4957 20.477 17.2129 20.199 17.2129 19.7725C17.2129 19.346 17.4957 19.0681 17.8804 19.0633C18.0895 19.0633 18.2794 19.1328 18.4609 19.2627L18.6922 18.8734C18.4514 18.6835 18.2291 18.6093 17.8957 18.6093C17.1816 18.6093 16.7137 19.1004 16.7137 19.7725ZM22.925 18.6093C22.6471 18.6093 22.466 18.7392 22.3409 18.9338V18.6653H21.8634V20.8803H22.3457V19.6386C22.3457 19.2721 22.5033 19.0684 22.8182 19.0684C22.9214 19.0669 23.0238 19.0859 23.1196 19.1241L23.2681 18.6701C23.1614 18.6282 23.0224 18.6097 22.9248 18.6097M10.0101 18.8414C9.77833 18.6886 9.45892 18.6097 9.10657 18.6097C8.54524 18.6097 8.18385 18.8786 8.18385 19.3188C8.18385 19.6799 8.4529 19.9027 8.94835 19.9722L9.17596 20.0046C9.44016 20.0417 9.5649 20.1113 9.5649 20.2364C9.5649 20.4076 9.3894 20.5053 9.05986 20.5053C8.72614 20.5053 8.4853 20.3987 8.3229 20.2736L8.0965 20.6492C8.3607 20.8438 8.69442 20.9367 9.05581 20.9367C9.69571 20.9367 10.0666 20.6354 10.0666 20.2137C10.0666 19.8243 9.77469 19.6207 9.29247 19.5512L9.0654 19.5182C8.85682 19.4912 8.68969 19.4493 8.68969 19.3008C8.68969 19.1389 8.84724 19.0414 9.11157 19.0414C9.39439 19.0414 9.66817 19.148 9.80236 19.2313L10.0109 18.8419L10.0101 18.8414ZM16.227 18.6101C15.949 18.6101 15.768 18.74 15.6434 18.9347V18.6653H15.1659V20.8803H15.6477V19.6386C15.6477 19.2721 15.8053 19.0684 16.1202 19.0684C16.2234 19.0669 16.3258 19.0859 16.4215 19.1241L16.57 18.6701C16.4634 18.6282 16.3243 18.6097 16.2267 18.6097M12.1155 18.6653H11.3276V17.9933H10.8405V18.6653H10.3911V19.1055H10.8405V20.116C10.8405 20.6299 11.04 20.936 11.61 20.936C11.8191 20.936 12.06 20.8712 12.2128 20.7647L12.0736 20.3523C11.9298 20.4356 11.7723 20.4775 11.647 20.4775C11.4062 20.4775 11.3276 20.3291 11.3276 20.1068V19.1059H12.1155V18.6653ZM4.91199 20.8808V19.4907C4.91199 18.9672 4.57827 18.6149 4.04029 18.6102C3.75747 18.6055 3.46573 18.6935 3.26148 19.0043C3.10866 18.7587 2.86782 18.6102 2.52924 18.6102C2.29258 18.6102 2.06133 18.6797 1.88029 18.9391V18.6653H1.39807V20.8803H1.88407V19.6521C1.88407 19.2676 2.09737 19.0633 2.42677 19.0633C2.74672 19.0633 2.90859 19.2718 2.90859 19.6473V20.88H3.39567V19.6518C3.39567 19.2673 3.61801 19.063 3.93783 19.063C4.26682 19.063 4.42383 19.2715 4.42383 19.647V20.8797L4.91199 20.8808Z" fill="white"/>
<path d="M17.1527 14.9019H9.85107V1.78369H17.1528L17.1527 14.9019Z" fill="white"/>
<path d="M10.314 8.34292C10.314 5.68189 11.5603 3.31142 13.5011 1.78379C12.032 0.625754 10.215 -0.00275439 8.34422 9.07409e-06C3.73572 9.07409e-06 0 3.7352 0 8.34292C0 12.9506 3.73572 16.6858 8.34422 16.6858C10.2151 16.6886 12.0321 16.0601 13.5012 14.902C11.5606 13.3747 10.314 11.0041 10.314 8.34292Z" fill="#D9D9D9"/>
<path d="M27.0034 8.34292C27.0034 12.9506 23.2677 16.6858 18.6592 16.6858C16.7881 16.6886 14.9709 16.0601 13.5015 14.902C15.4428 13.3744 16.6891 11.0041 16.6891 8.34292C16.6891 5.68175 15.4428 3.31142 13.5015 1.78379C14.9708 0.625789 16.788 -0.00270595 18.659 8.75758e-06C23.2675 8.75758e-06 27.0033 3.7352 27.0033 8.34292" fill="white"/>
</g>
<defs>
<clipPath id="clip0_2019_638">
<rect width="27" height="21" fill="white"/>
</clipPath>
</defs>
</svg>
