<svg width="45" height="13" viewBox="0 0 45 13" fill="none" xmlns="http://www.w3.org/2000/svg">
<g clip-path="url(#clip0_2019_621)">
<path d="M25.0561 1.37438L22.216 7.68035H21.932V0H17.8927V13H21.3166C22.216 13 23.0365 12.4664 23.4151 11.6256L26.2553 5.31965H26.5393V13H30.5785V0H27.1546C26.2395 0 25.4348 0.533582 25.0561 1.37438Z" fill="white"/>
<path d="M9.90884 1.71393L8.22055 7.69652H7.93653L6.24825 1.71393C5.96423 0.695274 5.06487 0 4.03927 0H0V13H4.03927V5.31965H4.32328L6.62693 13H9.51437L11.818 5.31965H12.102V13H16.1413V0H12.1178C11.0922 0 10.1928 0.695274 9.90884 1.71393Z" fill="white"/>
<path d="M32.2984 5.91802V13.0163H36.3219V8.86081H40.6609C42.5386 8.86081 44.148 7.63195 44.7318 5.90186L32.2984 5.91802Z" fill="white"/>
<path d="M40.6767 0H31.7304C32.2668 3.02363 34.8545 5.31965 37.9628 5.31965H44.9053C44.9684 5.02861 44.9842 4.73756 44.9842 4.43035C45 1.98881 43.0593 0 40.6767 0Z" fill="white"/>
</g>
<defs>
<clipPath id="clip0_2019_621">
<rect width="45" height="13" fill="white"/>
</clipPath>
</defs>
</svg>
