<svg width="64" height="25" viewBox="0 0 64 25" fill="none" xmlns="http://www.w3.org/2000/svg">
<g clip-path="url(#clip0_2019_626)">
<path d="M5.09995 18.0162V23.1318H6.52971V9.78662H4.40719C2.2994 9.78662 0.545371 11.1805 0.545371 13.9829C0.545371 15.9847 1.32658 17.0672 2.49102 17.6603L0 23.1466H1.65085L3.90603 18.031L5.09995 18.0162ZM5.09995 16.8299H4.33349C3.09535 16.8299 2.06357 16.133 2.06357 13.9978C2.06357 11.7736 3.18379 11.0025 4.33349 11.0025H5.09995V16.8299Z" fill="white"/>
<path d="M20.8715 21.9455H20.1345V13.7308H15.7863V14.5315C15.7863 17.0374 15.6978 19.9437 14.8429 21.9455H14.2681V24.9852H15.5652V23.1317H19.5744V24.9852H20.8715V21.9455ZM27.1654 22.509L26.8263 21.382C26.4579 21.6489 25.7946 22.0196 24.9839 22.0196C23.8342 22.0196 23.2298 20.8927 23.2298 18.7575H27.1359V17.9568C27.1359 14.7688 26.1188 13.5825 24.5564 13.5825C22.5666 13.5825 21.7264 15.7919 21.7264 18.8168C21.7264 21.7083 22.9203 23.2652 24.8512 23.2652C25.7946 23.28 26.5758 22.9686 27.1654 22.509ZM11.9982 13.7308V17.7195H9.84615V13.7308H8.38692V23.1466H9.84615V18.9206H11.9982V23.1466H13.4279V13.7308H11.9982ZM32.5454 23.1466H34.1225L31.4694 18.1495L33.7982 13.716H32.3243L30.0838 18.0606V13.7308H28.6393V23.1466H30.0838V18.4609L32.5454 23.1466ZM37.5274 23.28C38.3823 23.28 38.9719 22.9983 39.473 22.5683L39.134 21.4858C38.795 21.7824 38.2644 22.0641 37.5569 22.0641C36.3924 22.0641 35.8323 20.7148 35.8323 18.372C35.8323 15.9995 36.5693 14.8281 37.6158 14.8281C38.2054 14.8281 38.7655 15.1395 39.1635 15.4805L39.3699 14.1015C38.9572 13.8346 38.4707 13.6122 37.6453 13.6122C35.4491 13.6122 34.3289 15.4953 34.3289 18.4461C34.3141 21.6489 35.5228 23.28 37.5274 23.28ZM18.7047 21.9455H16.2137C16.9949 19.9437 17.0834 17.0523 17.0834 15.0653V14.9022H18.7047V21.9455ZM24.5712 14.7984C25.4113 14.7984 25.6619 15.9698 25.6619 17.5713H23.2593C23.3625 15.8957 23.672 14.7984 24.5712 14.7984Z" fill="white"/>
<path d="M64 9.78661C63.0419 9.78661 62.0986 9.78661 61.1405 9.78661C61.1405 12.5446 61.1405 15.2878 61.1405 18.0458C61.1405 18.1348 61.1405 18.2682 61.0226 18.2682C57.2787 19.4841 53.5348 20.7148 49.7909 21.9456C49.275 22.1087 48.7886 22.3014 48.2579 22.4349C48.5527 22.1828 48.8918 21.99 49.216 21.7676C50.6605 20.7742 52.105 19.7955 53.5348 18.802C55.1561 17.6751 56.7923 16.5778 58.4136 15.4509C58.4284 13.5677 58.3989 11.6846 58.4284 9.80143C58.4284 6.53928 58.4284 3.29194 58.4284 0.0297852C55.7163 2.16502 53.0041 4.34473 50.2625 6.47996C49.3634 7.19171 48.4053 7.84414 47.5504 8.61519C47.0493 9.07486 46.5629 9.57901 46.2533 10.2018C46.0322 10.6615 45.9733 11.1953 45.9733 11.6994C45.9733 15.1988 45.9733 18.6834 45.9733 22.1828C46.0028 23.0725 46.7987 23.8435 47.6684 23.8435C53.1073 23.8435 58.5463 23.8435 63.9853 23.8435C64 19.1579 64 14.4723 64 9.78661ZM53.3137 10.3204C53.5348 9.57901 54.1391 8.94141 54.8908 8.74865C55.1709 8.68933 55.4952 8.71899 55.7163 8.89693C55.9226 9.06003 56.0258 9.32694 56.0258 9.59384C56.0405 10.0535 55.8489 10.4984 55.5836 10.8691C55.2741 11.2694 54.8319 11.6104 54.316 11.6994C53.9917 11.7587 53.6232 11.6549 53.4316 11.3732C53.1958 11.0766 53.2105 10.6615 53.3137 10.3204Z" fill="white"/>
</g>
<defs>
<clipPath id="clip0_2019_626">
<rect width="64" height="25" fill="white"/>
</clipPath>
</defs>
</svg>
