<svg width="50" height="16" viewBox="0 0 50 16" fill="none" xmlns="http://www.w3.org/2000/svg">
<g clip-path="url(#clip0_2019_630)">
<path d="M21.6681 15.7521H17.6027L20.1593 0.289551H24.2247L21.6681 15.7521Z" fill="white"/>
<path d="M14.166 0.289391L10.2682 10.9147L9.80721 8.64081L8.42414 1.65373C8.42414 1.65373 8.2565 0.248047 6.49623 0.248047H0.0838223L0 0.537453C0 0.537453 1.96982 0.950889 4.27494 2.31523L7.83738 15.7519H12.0704L18.5666 0.289391H14.166Z" fill="white"/>
<path d="M46.228 15.7521H49.9581L46.689 0.289551H43.42C41.9112 0.289551 41.534 1.44717 41.534 1.44717L35.4987 15.7521H39.7318L40.57 13.4368H45.767L46.228 15.7521ZM41.7435 10.2534L43.881 4.46526L45.0964 10.2534H41.7435Z" fill="white"/>
<path d="M35.7921 4.0105L36.3789 0.703003C36.3789 0.703003 34.5767 0.0415039 32.6907 0.0415039C30.679 0.0415039 25.8592 0.909721 25.8592 5.16812C25.8592 9.17845 31.5172 9.2198 31.5172 11.3283C31.5172 13.4369 26.4459 13.0648 24.7695 11.7418L24.1827 15.2146C24.1827 15.2146 25.9849 16.0828 28.793 16.0828C31.5591 16.0828 35.7921 14.6772 35.7921 10.7909C35.7921 6.78052 30.0922 6.40843 30.0922 4.63065C30.0922 2.81153 34.0738 3.05959 35.7921 4.0105Z" fill="white"/>
<path d="M9.80721 8.59947L8.42414 1.65373C8.42414 1.65373 8.2565 0.248047 6.49623 0.248047H0.0838223L0 0.537453C0 0.537453 3.10142 1.15761 6.0352 3.55554C8.88516 5.7881 9.80721 8.59947 9.80721 8.59947Z" fill="#D9D9D9"/>
</g>
<defs>
<clipPath id="clip0_2019_630">
<rect width="50" height="16" fill="white"/>
</clipPath>
</defs>
</svg>
