<svg width="24" height="24" viewBox="0 0 24 24" fill="none" xmlns="http://www.w3.org/2000/svg">
<g clip-path="url(#clip0_2019_571)">
<path d="M16.8512 0H7.14882C3.2069 0 0 3.2069 0 7.14882V16.8512C0 20.7931 3.2069 24 7.14882 24H16.8512C20.7931 24 24 20.7931 24 16.8512V7.14882C24 3.2069 20.7931 0 16.8512 0ZM21.588 16.8512C21.588 19.4646 19.4701 21.588 16.8512 21.588H7.14882C4.53539 21.588 2.41198 19.4701 2.41198 16.8512V7.14882C2.41198 4.53539 4.52995 2.41198 7.14882 2.41198H16.8512C19.4646 2.41198 21.588 4.52995 21.588 7.14882V16.8512Z" fill="white"/>
<path d="M12 5.79297C8.5753 5.79297 5.79309 8.57518 5.79309 11.9999C5.79309 15.4245 8.5753 18.2068 12 18.2068C15.4247 18.2068 18.2069 15.4245 18.2069 11.9999C18.2069 8.57518 15.4247 5.79297 12 5.79297ZM12 15.7948C9.9038 15.7948 8.20507 14.0961 8.20507 11.9999C8.20507 9.90368 9.9038 8.20495 12 8.20495C14.0962 8.20495 15.7949 9.90368 15.7949 11.9999C15.7949 14.0961 14.0962 15.7948 12 15.7948Z" fill="white"/>
<path d="M19.7096 5.84189C19.7096 6.66403 19.0454 7.32828 18.2232 7.32828C17.4011 7.32828 16.7368 6.66403 16.7368 5.84189C16.7368 5.01975 17.4011 4.3555 18.2232 4.3555C19.0399 4.35006 19.7096 5.01975 19.7096 5.84189Z" fill="white"/>
</g>
<defs>
<clipPath id="clip0_2019_571">
<rect width="24" height="24" fill="white"/>
</clipPath>
</defs>
</svg>
