<svg width="24" height="24" viewBox="0 0 24 24" fill="none" xmlns="http://www.w3.org/2000/svg">
<g clip-path="url(#clip0_2019_566)">
<path d="M3.17273 8.51323C3.02136 8.13096 2.82795 7.73243 3.28626 7.51689C4.21548 7.50469 5.1447 7.49249 6.07813 7.48029C6.48177 7.49249 6.66677 7.78123 6.88121 8.18383C7.5077 9.35097 8.15942 10.514 8.94568 11.5836C9.20216 11.9333 9.63524 12.0675 9.97581 11.5104C10.0137 10.758 10.0515 10.0057 10.0893 9.25337C9.9632 8.37903 9.64785 7.86256 9.09705 7.80969C8.7817 7.51283 9.00875 7.26882 9.71513 7.13869C10.8378 6.90689 11.8174 7.01262 12.6794 7.11836C13.4068 7.16309 13.5119 7.63889 13.4993 8.18383C13.4741 9.18017 13.453 10.1806 13.453 11.1769C13.6675 12.1895 14.2393 11.7829 14.6177 11.3437C15.2947 10.4124 15.8833 9.50551 16.3753 8.48477C16.884 7.43556 17.0228 7.51283 17.3802 7.50876C18.2337 7.50469 19.1755 7.46403 19.8567 7.48843C21.2778 7.40709 21.1139 8.0171 20.7144 8.6637C20.0249 9.79017 19.1377 10.8068 18.3472 11.8805C17.8679 12.5108 17.8763 12.9053 18.3851 13.2469C19.1377 14.048 19.9534 14.7963 20.6387 15.6503C21.383 16.5816 20.8364 16.8378 20.1426 16.9069C19.3143 16.9069 18.486 16.9069 17.6577 16.9069C16.9513 16.9191 16.3122 16.7483 15.8623 16.0203C14.8237 14.6905 14.0501 14.3245 13.739 15.0728C13.6044 15.4022 13.4909 15.8455 13.4951 16.2766C13.4993 16.8784 13.1251 16.9272 12.6163 16.9435C12.0697 16.9435 11.5021 17.0736 10.9723 16.9435C9.09705 16.484 7.29747 15.6381 5.54414 12.7304C4.75367 11.4738 3.9632 10.0992 3.17273 8.51323Z" fill="white"/>
</g>
<defs>
<clipPath id="clip0_2019_566">
<rect width="18" height="10" fill="white" transform="translate(3 7)"/>
</clipPath>
</defs>
</svg>
