<svg width="68" height="80" viewBox="0 0 68 80" fill="none" xmlns="http://www.w3.org/2000/svg">
<g clip-path="url(#clip0_218_1404)">
<path d="M61.9823 1.3379C46.5677 22.2376 34.0694 45.1211 24.7189 69.3425C18.7012 60.5767 14.6276 50.6113 12.5909 40.1384C11.8039 36.1707 5.73996 37.8777 6.52689 41.7993C9.11913 55.0865 14.998 67.4048 23.4227 78.0161C25.0429 80.0461 27.9592 78.6159 28.6998 76.632C38.0967 50.8881 51.1967 26.5744 67.4908 4.47516C69.8053 1.24563 64.3894 -1.89163 61.9823 1.3379Z" fill="#10C9E1"/>
<path d="M63.7876 25.6978C57.9551 32.2952 53.002 39.6309 49.16 47.5663C48.049 49.8269 47.0306 52.1799 46.1048 54.5328C45.8734 55.0864 46.3363 55.7785 46.8918 55.9169C47.5398 56.1014 48.049 55.6862 48.2805 55.1326C51.4282 47.1972 55.6406 39.7231 60.7788 32.9411C62.2137 31.0034 63.7876 29.158 65.3615 27.3587C66.3336 26.2052 64.7597 24.5905 63.7876 25.6978Z" fill="#10C9E1"/>
<path d="M44.6236 62.5605C44.1144 62.2836 43.3274 62.3759 43.0497 62.9757C42.0313 65.0518 41.0592 67.0818 40.0409 69.1579C39.7631 69.7116 39.8557 70.4036 40.4575 70.7266C40.9667 71.0034 41.7536 70.9111 42.0313 70.3113C43.0497 68.2352 44.0218 66.2052 45.0402 64.1291C45.3179 63.5755 45.2253 62.8373 44.6236 62.5605Z" fill="#10C9E1"/>
<path d="M14.9517 78.339C10.3227 71.0957 6.80464 63.2064 4.53643 54.948C4.16611 53.5178 1.94419 54.1176 2.31451 55.5478C4.62901 63.9907 8.19334 72.1107 12.9612 79.4924C13.7481 80.692 15.7386 79.5847 14.9517 78.339Z" fill="#10C9E1"/>
<path d="M3.42546 47.6124C3.00885 46.4129 2.63853 45.2595 2.22192 44.06C2.03676 43.5063 1.43499 43.0911 0.833223 43.2756C0.277743 43.4602 -0.185157 44.06 0.0462935 44.6597C0.462903 45.8593 0.833223 47.0127 1.24983 48.2122C1.43499 48.7658 2.03676 49.1811 2.63853 48.9965C3.19401 48.8581 3.65691 48.2122 3.42546 47.6124Z" fill="#10C9E1"/>
<path d="M61.4268 47.8893C60.8251 47.5663 60.2233 47.797 59.853 48.3045C55.548 54.0254 51.9374 60.2076 49.1137 66.7589C48.8822 67.3126 48.9285 67.9585 49.5303 68.3276C49.9932 68.6044 50.8264 68.466 51.1042 67.9123C53.9278 61.361 57.5385 55.1788 61.8434 49.4579C62.1675 48.9504 61.8897 48.2122 61.4268 47.8893Z" fill="#10C9E1"/>
</g>
<defs>
<clipPath id="clip0_218_1404">
<rect width="68" height="80" fill="white"/>
</clipPath>
</defs>
</svg>
