<svg width="16" height="16" viewBox="0 0 16 16" fill="none" xmlns="http://www.w3.org/2000/svg">
<path d="M8 14.6667C7.45455 14.6667 6.93346 14.4466 5.89129 14.0064C3.2971 12.9105 2 12.3626 2 11.4409C2 11.1829 2 6.70976 2 4.66675M8 14.6667C8.54546 14.6667 9.06654 14.4466 10.1087 14.0064C12.7029 12.9105 14 12.3626 14 11.4409V4.66675M8 14.6667L8 7.56997" stroke="#02080A" stroke-linecap="round" stroke-linejoin="round"/>
<path d="M5.55061 6.46108L3.60314 5.51873C2.53438 5.00156 2 4.74298 2 4.3335C2 3.92401 2.53438 3.66543 3.60314 3.14827L5.55061 2.20591C6.75256 1.6243 7.35353 1.3335 8 1.3335C8.64647 1.3335 9.24744 1.6243 10.4494 2.20591L12.3969 3.14826C13.4656 3.66543 14 3.92401 14 4.3335C14 4.74298 13.4656 5.00156 12.3969 5.51873L10.4494 6.46108C9.24744 7.04269 8.64647 7.3335 8 7.3335C7.35353 7.3335 6.75256 7.04269 5.55061 6.46108Z" stroke="#02080A" stroke-linecap="round" stroke-linejoin="round"/>
<path d="M4 8L5.33333 8.66667" stroke="#02080A" stroke-linecap="round" stroke-linejoin="round"/>
<path d="M11.3334 2.66675L4.66669 6.00008" stroke="#02080A" stroke-linecap="round" stroke-linejoin="round"/>
</svg>
