<svg width="422" height="290" viewBox="0 0 422 290" fill="none" xmlns="http://www.w3.org/2000/svg">
<g clip-path="url(#clip0_207_4870)">
<path fill-rule="evenodd" clip-rule="evenodd" d="M53.1863 240.578C57.4748 243.897 61.7849 247.281 65.901 249.544C71.3748 262.024 79.4132 269.373 87.2144 277.219C74.3919 269.244 63.2288 253.877 48.122 253.187C47.7341 245.428 45.6652 236.268 44.092 227.732C46.9367 234.155 49.4365 241.764 52.6045 247.023C56.8714 248.682 61.2246 252.282 65.664 255.666L63.509 251.441L53.1863 240.578Z" fill="#10C9E1"/>
<path fill-rule="evenodd" clip-rule="evenodd" d="M58.5093 241.375C61.5694 243.703 64.5865 246.074 66.6984 249.113C70.362 250.622 73.4868 253.1 76.8918 255.083L86.0507 261.312L77.5383 254.437C74.6074 252.777 71.9136 250.32 69.4138 247.087C65.9011 246.333 62.1944 243.725 58.5093 241.375Z" fill="#10C9E1"/>
<path fill-rule="evenodd" clip-rule="evenodd" d="M0 188.01C12.0898 194.411 23.4899 201.502 33.5109 209.973C30.9895 208.658 28.4681 207.171 25.8389 206.718C32.4549 212.624 37.7348 219.628 43.2517 226.439C29.7611 213.012 15.9042 199.843 0 188.01Z" fill="#10C9E1"/>
<path fill-rule="evenodd" clip-rule="evenodd" d="M33.1013 211.481C34.9978 212.279 36.7649 213.141 38.0364 214.305C42.2387 213.723 45.9669 214.499 49.4581 215.878C49.1348 213.679 49.3288 211.761 50.4278 210.102C59.3713 213.335 68.3147 220.426 77.2581 226.439C73.2282 222.926 68.7026 220.038 65.664 215.318C59.2635 212.494 53.2078 208.313 47.497 202.903C48.1866 205.791 47.8849 208.507 46.4841 211.093C43.2516 212.839 37.5838 211.352 33.1013 211.481Z" fill="#10C9E1"/>
<path fill-rule="evenodd" clip-rule="evenodd" d="M9.76245 109.513C31.2913 141.347 48.3377 174.022 63.3152 207.214C62.6687 193.226 62.8411 180.294 65.6642 170.832C74.9093 172.621 84.8656 179.044 91.8479 184.604C90.2532 182.191 88.4214 179.971 85.8785 178.246C91.7186 178.57 97.5803 180.94 103.421 183.699C94.1538 175.832 81.6546 176.177 63.7031 165.745C61.4834 172.147 60.449 179.863 59.7809 188.01C54.8674 177.449 53.7253 163.137 50.6867 150.701C50.4065 154.322 50.3634 158.072 48.7471 160.96C38.2736 141.972 23.4685 126.195 9.76245 109.513Z" fill="#10C9E1"/>
<path fill-rule="evenodd" clip-rule="evenodd" d="M54.7595 126.733C57.8843 131.777 60.7721 136.842 62.6901 142.058C66.8062 144.515 70.1034 148.007 72.8188 152.188C76.978 153.072 79.9735 157.167 83.2061 160.637C79.9088 155.486 76.4608 150.614 74.2411 143.696C71.3318 143.157 68.444 141.433 65.5347 138.825C61.7419 135.333 58.3584 130.742 54.7595 126.733Z" fill="#10C9E1"/>
<path fill-rule="evenodd" clip-rule="evenodd" d="M47.4539 111.021C44.3075 106.409 40.9241 101.926 39.3941 96.6021C36.183 94.6839 33.2522 92.5932 30.5368 90.3948C27.6491 87.2264 25.494 82.9373 24.1795 77.3335L18.2747 76.4282C21.852 82.5063 25.2354 87.2264 28.2094 93.6709C35.7736 97.7876 41.7861 104.124 47.4539 111.021Z" fill="#10C9E1"/>
<path fill-rule="evenodd" clip-rule="evenodd" d="M26.4425 79.2733C31.2913 80.5234 36.7005 81.9243 38.5107 85.3729C43.1225 86.6876 49.1781 91.3647 53.9623 95.6322C41.4415 70.6304 24.5029 45.5854 9.76245 20.562L40.1054 77.0102C38.3167 76.342 37.0237 76.0187 34.8902 76.4713C35.4505 77.0748 36.7436 78.6698 36.6358 80.0061C33.7265 79.1224 28.5113 79.0793 26.4425 79.2733Z" fill="#10C9E1"/>
<path fill-rule="evenodd" clip-rule="evenodd" d="M83.9603 84.8772C80.9001 82.3554 77.8399 79.7259 74.866 76.4283V79.2949C70.2542 77.8292 65.5131 74.5316 60.8367 72.1392C72.3015 85.7178 82.7319 100.029 93.3131 114.233C95.619 121.798 96.5026 128.997 96.3086 135.269C103.506 140.593 109.239 148.093 115.014 155.529C121.027 162.663 125.078 172.75 129.302 182.557C126.716 173.72 123.204 164.624 121.501 156.046C116.243 153.675 112.558 148.546 111.114 139.429C104.864 130.743 100.231 121.733 96.5672 112.53C88.572 101.322 79.6933 90.9983 70.6421 80.8467C72.2799 81.4071 73.8747 82.0752 75.2539 83.2607C75.5772 82.3123 75.9004 81.364 76.2237 80.3941C78.8097 82.4416 81.3742 83.6055 83.9603 84.8772Z" fill="#10C9E1"/>
<path fill-rule="evenodd" clip-rule="evenodd" d="M122.622 125.656C123.074 130.268 124.626 136.044 123.98 139.493C126.393 141.691 127.514 145.442 129.281 148.416C128.225 145.442 127.729 142.92 129.281 142.015C133.591 146.174 134.453 158.46 137.039 166.693C135.38 158.331 135.294 149.86 132.104 141.627C132.126 138.911 134.927 135.721 137.039 133.824C131.522 131.798 130.272 124.75 129.82 119.923C127.255 117.444 124.928 113.543 122.6 109.491C126.393 118.435 129.82 129.277 129.82 136.777C127.234 137.122 124.885 132.273 122.622 125.656Z" fill="#10C9E1"/>
<path fill-rule="evenodd" clip-rule="evenodd" d="M95.0588 186.609C100.64 190.402 106.2 194.54 111.049 199.066C108.98 194.54 105.942 190.423 103.399 186.113C111.911 197.687 121.006 209.606 130.768 219.736C132.923 226.418 134.949 233.897 139.151 239.802C142.944 240.923 149.323 241.591 153.439 241.548C155.249 247.152 157.296 252.195 160.141 255.708C164.085 260.148 171.261 264.007 174.882 269.222C169.602 263.769 163.007 260.342 158.137 257.928C155.12 254.545 152.598 249.954 150.443 244.479C146.09 243.143 141.155 242.389 136.436 243.057C132.794 233.315 128.203 223.81 122.148 214.671C113.98 203.442 104.606 194.82 95.0588 186.609Z" fill="#10C9E1"/>
<path fill-rule="evenodd" clip-rule="evenodd" d="M108.355 226.439C113.226 230.75 118.764 234.177 122.967 239.35C124.411 241.117 130.66 243.876 134.97 243.876C135.617 246.721 136.479 249.588 138.871 251.334C142.47 253.941 144.345 257.455 145.939 261.291C142.621 256.485 138.785 252.497 133.203 251.334C133.074 249.48 132.384 247.756 130.94 246.29C128.527 243.833 124.82 242.734 121.393 241.376C117.902 235.923 113.161 231.181 108.355 226.439Z" fill="#10C9E1"/>
<path fill-rule="evenodd" clip-rule="evenodd" d="M153.417 189.066C155.723 191.717 157.814 195.165 160.335 197.062C159.99 184.776 155.939 172.771 153.417 160.637C158.072 175.659 162.684 188.613 167.748 218.788C170.011 223.012 171.843 227.689 173.588 232.431C169.365 224.456 164.365 217.538 158.589 211.653C160.809 213.184 162.77 214.886 164.817 216.524C164.3 210.834 163.934 205.726 161.887 202.752C158.977 198.484 156.003 193.915 153.417 189.066Z" fill="#10C9E1"/>
<path fill-rule="evenodd" clip-rule="evenodd" d="M97.2354 31.748C100.145 34.356 103.291 37.5674 105.274 40.2616C105.791 39.7874 105.705 38.7529 105.274 37.395C106.739 40.9298 109.045 43.8826 111.308 46.8785L110.209 40.7358C110.834 44.2921 112.622 47.8915 114.045 50.5857C115.424 52.8056 116.954 54.7239 118.85 56.0386C119.411 54.5299 119.238 52.8919 118.85 51.2323C121.566 53.8618 124.41 55.1334 127.298 56.0386L121.07 55.1981C121.415 56.599 121.286 57.8922 121.07 59.1639C120.294 58.3233 119.432 57.6551 118.398 57.5043C119.928 61.427 120.639 65.3281 121.738 69.2293C119.087 62.634 116.178 55.9524 111.286 50.3055C110.683 47.6544 107.924 43.3437 106.308 41.4686C105.64 41.3608 105.015 41.8997 104.433 43.0204C102.968 39.5288 100.145 35.4337 97.2354 31.748Z" fill="#10C9E1"/>
<path fill-rule="evenodd" clip-rule="evenodd" d="M176.799 220.534C179.924 226.719 183.006 234.048 186.088 241.958C188.006 225.146 187.144 207.752 186.088 190.337C189.299 197.687 192.66 203.722 196.54 205.532C195.074 218.378 197.337 227.301 199.406 236.44C196.087 227.258 192.811 217.71 190.182 205.403C189.643 219.887 186.993 234.177 189.126 251.01L187.596 247.087C186.648 249.954 187.1 253.64 186.454 257.39C185.7 249.738 184.083 242.626 181.454 236.289C180.183 233.207 178.825 231.44 176.778 229.543C177.748 227.495 177.597 224.349 176.799 220.534Z" fill="#10C9E1"/>
<path fill-rule="evenodd" clip-rule="evenodd" d="M211.431 255.385C216.819 244.609 223.133 234.91 226.753 222.128C226.387 220.641 226.344 219.025 226.753 217.193C223.628 216.287 220.223 216.611 216.754 217.193C226.236 203.377 234.404 187.837 242.722 172.513C236.192 185.811 228.994 198.722 223.909 212.861C225.654 213.227 227.163 213.356 228.93 212.645C229.059 213.658 229.404 214.369 229.943 214.714C232.744 213.378 234.792 211.416 235.524 208.421C238.412 208.162 241.127 207.278 243.584 205.36C247.118 201.179 250.416 196.782 251.515 190.337C255.76 186.242 258.691 179.798 262.29 174.517C259.833 179.798 257.075 184.798 254.898 190.337C259.1 187.859 262.807 184.604 265.285 179.518C264.251 183.828 264.423 186.824 265.285 189.066C261.708 188.16 258.001 190.079 254.252 193.484C251.019 197.644 248.692 202.364 246.86 207.386C240.998 209.541 235.244 212.796 229.727 218.421C229.059 220.555 229.469 222.236 230.115 223.853C225.417 235.125 218.025 245.061 211.431 255.385Z" fill="#10C9E1"/>
<path fill-rule="evenodd" clip-rule="evenodd" d="M263.454 171.177L269.078 164.754L267.397 175.983C272.138 159.107 277.289 142.23 284.12 126.044C279.832 134.73 276.168 144.084 269.962 150.852C269.897 158.74 266.794 165.034 263.454 171.177Z" fill="#10C9E1"/>
<path fill-rule="evenodd" clip-rule="evenodd" d="M253.196 290C261.213 282.607 269.143 274.87 277.612 269.223C278.022 265.666 279.38 262.541 281.772 259.868C280.436 258.963 279.466 257.476 278.905 255.385C280.091 244.63 283.862 235.686 289.034 227.689L285.931 236.16C293.603 224.974 303.15 216.719 312.934 208.83C313.127 210.317 312.481 211.373 311.64 212.343C313.278 211.826 314.938 211.438 316.576 212.214C319.312 225.254 315.843 238.897 314.377 252.368C317.567 237.992 320.412 223.551 322.028 208.852C320.433 209.498 318.687 209.671 316.576 208.852C315.412 206.481 315.778 203.011 316.188 199.498C310.865 206.545 305.218 213.076 298.15 217.171C298.064 211.287 299.615 205.403 301.792 199.498C290.737 217.193 275.781 232.302 274.832 262.563L277.548 261.226C273.259 267.606 268.41 274.934 261.536 279.417L266.428 276.831L253.196 290Z" fill="#10C9E1"/>
<path fill-rule="evenodd" clip-rule="evenodd" d="M318.58 247.95C325.196 239.371 331.51 230.211 339.225 223.853C339.354 218.723 340.065 213.831 342.608 209.563C345.647 203.83 349.354 199.023 353.771 195.165C350.496 200.295 347.953 205.834 345.453 211.395C351.121 201.761 357.069 193.463 363.254 186.415L357.004 192.126C358.081 186.07 361.788 181.091 365.064 175.961C355.905 187.104 348.642 200.08 338.686 206.826C336.66 211.223 335.691 216.115 335.561 221.374C329.075 229.112 323.989 238.746 318.58 247.95Z" fill="#10C9E1"/>
<path fill-rule="evenodd" clip-rule="evenodd" d="M317.804 71.2552C325.196 65.3927 332.566 59.4656 339.613 52.5469C336.617 59.3362 332.049 65.8022 327.674 71.3846C316.985 84.5967 301.878 93.2612 292.094 109.448C300.456 100.977 308.753 91.968 318.192 90.2222C317.675 94.9208 315.218 98.6495 312.61 102.314C316.899 98.6495 320.886 94.6621 323.773 89.4462C328.428 86.9029 331.941 86.1055 336.229 85.8253C332.049 90.5886 327.954 94.5113 323.385 98.8866C333.277 92.1189 342.501 83.9501 353.039 78.6049C342.91 79.5317 333.234 85.0063 322.545 86.7952C324.312 81.256 329.161 75.0917 332.975 72.2467C337.415 58.7112 347.156 43.3652 355.776 30.0884C350.022 37.5243 344.419 45.2188 337.393 50.4994C331.402 58.0862 324.614 64.6815 317.804 71.2552Z" fill="#10C9E1"/>
<path fill-rule="evenodd" clip-rule="evenodd" d="M355.797 80.0922C363.749 75.4582 371.658 70.4363 379.804 67.5481C372.025 92.8948 354.224 132.014 337.005 158.374C337.328 168.719 328.579 179.604 322.028 190.337C332.63 180.294 340.647 169.194 353.62 165.185C360.236 155.033 368.792 144.537 377.003 136.152C377.843 142.252 377.951 148.352 378.425 154.473C382.951 151.412 387.584 148.567 393.165 147.77L422 109.448C411.871 120.224 401.613 133.48 391.14 140.571C389.243 144.644 384.976 147.166 380.752 148.438C379.675 143.847 379.071 137.596 378.878 130.053C372.025 138.372 364.288 147.64 355.431 152.253C368.835 116 381.011 78.6481 397.238 45.0249C391.377 52.935 384.976 60.0045 377.046 64.6384L355.797 80.0922Z" fill="#10C9E1"/>
<path fill-rule="evenodd" clip-rule="evenodd" d="M280.5 50.4132C282.138 46.2965 283.474 42.0289 282.59 36.5113C286.082 35.5845 288.883 33.9464 289.594 30.0668C290.176 25.2173 293.301 18.6867 290.499 11.1861C295.197 20.9713 295.327 4.97875 295.628 0.0214844C297.396 10.6042 292.094 25.2389 293.818 32.567C291.383 33.0196 289.487 34.3559 288.797 37.5674C285.241 40.2831 282.957 45.5206 280.5 50.4132Z" fill="#10C9E1"/>
</g>
<defs>
<clipPath id="clip0_207_4870">
<rect width="422" height="290" fill="white"/>
</clipPath>
</defs>
</svg>
