<svg width="342" height="577" viewBox="0 0 342 577" fill="none" xmlns="http://www.w3.org/2000/svg">
<path d="M160.497 63C160.14 63 159.782 62.8628 159.499 62.5883L135.526 38.5213C129.491 32.4623 129.491 22.6138 135.526 16.5548C141.561 10.4958 151.371 10.4958 157.406 16.5548L160.497 19.6476L163.589 16.5442C169.624 10.4853 179.433 10.4853 185.468 16.5442C188.391 19.4787 190 23.3738 190 27.5222C190 31.6706 188.391 35.5762 185.468 38.5002L161.496 62.5672C161.212 62.8628 160.855 63 160.497 63ZM146.461 14.8342C143.223 14.8342 139.974 16.0692 137.513 18.5498C132.582 23.5005 132.582 31.565 137.513 36.5157L160.497 59.5905L183.481 36.5157C185.868 34.1195 187.193 30.9211 187.193 27.5328C187.193 24.1338 185.878 20.946 183.481 18.5498C178.54 13.5886 170.507 13.5886 165.576 18.5498L161.486 22.656C161.223 22.9199 160.865 23.0677 160.487 23.0677C160.119 23.0677 159.751 22.9199 159.488 22.656L155.409 18.5498C152.938 16.0692 149.699 14.8342 146.461 14.8342Z" fill="#FC1D88"/>
<path d="M231.783 233.631C231.026 233.631 230.291 233.355 229.694 232.804C228.455 231.656 228.386 229.704 229.534 228.465L259.649 196.045C266.007 189.18 269.335 180.272 268.991 170.904C268.646 161.537 264.675 152.881 257.835 146.521C254.277 143.215 250.192 140.735 245.693 139.151C232.518 134.49 217.85 138.095 208.325 148.358L180.781 178.206C179.633 179.445 177.682 179.537 176.443 178.389C175.203 177.241 175.111 175.29 176.259 174.05L203.78 144.179C214.981 132.125 232.219 127.878 247.69 133.365C252.992 135.248 257.789 138.164 261.967 142.021C270.023 149.506 274.683 159.7 275.096 170.698C275.509 181.695 271.607 192.188 264.124 200.247L234.01 232.666C233.413 233.309 232.609 233.631 231.783 233.631Z" fill="#10C9E1"/>
<path d="M142.127 272.504C141.875 272.504 141.622 272.481 141.37 272.412C139.717 271.999 138.73 270.323 139.143 268.692L139.166 268.624C139.579 266.97 141.255 265.983 142.885 266.396C144.537 266.81 145.524 268.486 145.111 270.116L145.088 270.185C144.767 271.562 143.505 272.504 142.127 272.504Z" fill="#10C9E1"/>
<path d="M186.726 576.995C145.639 576.995 105.723 560.762 76.0675 531.075L12.1654 467.155C4.36123 459.349 0.0230454 448.971 9.20739e-05 437.95C-0.0228613 426.93 4.24646 416.575 12.0277 408.768C19.7859 401.008 30.0919 396.737 41.0866 396.737C41.1096 396.737 41.1555 396.737 41.1784 396.737C44.6673 396.737 48.0874 397.174 51.3927 398.023C45.9986 390.905 43.0835 382.273 43.0606 373.203C43.0376 362.183 47.307 351.828 55.0882 344.021C62.8464 336.261 73.1524 331.991 84.1471 331.991C84.193 331.991 84.216 331.991 84.2389 331.991C87.4753 331.991 90.6429 332.381 93.6957 333.093L87.4294 326.825C79.6253 319.018 75.2871 308.64 75.2642 297.62C75.2412 286.599 79.5105 276.244 87.2917 268.438C95.0729 260.654 105.448 256.384 116.465 256.407C119.702 256.407 122.869 256.797 125.922 257.509L70.9489 202.52C63.1448 194.714 58.8066 184.336 58.7836 173.315C58.7607 162.294 63.03 151.939 70.8112 144.133C86.8556 128.084 113.045 128.13 129.182 144.271L295.961 311.097C303.283 318.421 309.87 326.434 315.494 334.883C315.563 334.975 315.609 335.044 315.655 335.136C328.646 354.606 337.185 377.153 340.398 400.388C343.566 423.325 341.546 447.065 334.568 469.038C329.748 484.26 322.61 498.587 313.359 511.628C308.333 518.7 302.663 525.427 296.489 531.603C296.282 531.81 296.098 531.994 295.869 532.2C276.657 551.234 252.74 564.918 226.71 571.829C222.831 572.862 219.136 573.689 215.417 574.355C205.869 576.123 196.251 576.995 186.726 576.995ZM41.0866 402.891C31.7446 402.891 22.9764 406.518 16.3658 413.131C9.75527 419.743 6.10569 428.56 6.12864 437.95C6.15159 447.341 9.82413 456.18 16.4806 462.839L80.3828 526.759C108.891 555.275 147.223 570.888 186.703 570.888C195.861 570.888 205.088 570.038 214.293 568.339C217.85 567.696 221.385 566.893 225.127 565.905C250.146 559.27 273.122 546.114 291.577 527.815C291.622 527.769 291.645 527.746 291.691 527.7C291.829 527.563 291.967 527.448 292.105 527.287C298.026 521.363 303.489 514.912 308.31 508.116C317.215 495.602 324.056 481.849 328.669 467.247C342.349 424.174 335.532 376.05 310.444 338.488C310.421 338.465 310.421 338.442 310.398 338.442C304.981 330.291 298.646 322.577 291.577 315.505L124.843 148.61C111.117 134.88 88.8296 134.811 75.1723 148.472C68.5618 155.085 64.9122 163.901 64.9351 173.292C64.9581 182.683 68.6306 191.522 75.2871 198.18L145.685 268.598C146.282 269.195 146.58 269.976 146.58 270.78C146.58 271.583 146.282 272.341 145.685 272.961C144.491 274.155 142.54 274.155 141.347 272.961C134.69 266.302 125.853 262.629 116.465 262.606C116.442 262.606 116.397 262.606 116.374 262.606C107.032 262.606 98.2634 266.233 91.6528 272.846C85.0423 279.458 81.3927 288.275 81.4157 297.666C81.4386 307.056 85.1111 315.896 91.7676 322.554L113.436 344.228C114.032 344.825 114.331 345.606 114.331 346.409C114.331 347.19 114.032 347.971 113.436 348.59C112.242 349.784 110.291 349.784 109.097 348.59C102.441 341.932 93.6039 338.259 84.216 338.236C84.193 338.236 84.1471 338.236 84.1241 338.236C74.7821 338.236 66.0139 341.863 59.4034 348.476C52.7928 355.088 49.1432 363.905 49.1662 373.295C49.1891 382.686 52.8617 391.525 59.5181 398.184L70.3062 408.975C70.3292 408.998 70.3292 408.998 70.3521 409.021C71.5457 410.215 71.5457 412.166 70.3521 413.36C69.1586 414.554 67.2075 414.554 66.014 413.36L65.968 413.314C59.3116 406.679 50.4975 403.028 41.1325 403.005C41.1555 402.891 41.1096 402.891 41.0866 402.891Z" fill="#10C9E1"/>
<path d="M123.994 469.913C123.214 469.913 122.433 469.614 121.814 469.017L65.4172 412.605C64.2236 411.411 64.2236 409.459 65.4172 408.265C66.6107 407.072 68.5618 407.072 69.7553 408.265L126.152 464.678C127.345 465.872 127.345 467.823 126.152 469.017C125.555 469.614 124.775 469.913 123.994 469.913Z" fill="#10C9E1"/>
<path d="M177.889 416.003C177.108 416.003 176.305 415.704 175.708 415.107L108.524 347.904C107.33 346.71 107.33 344.758 108.524 343.564C109.717 342.37 111.668 342.37 112.862 343.564L180.046 410.768C181.24 411.962 181.24 413.913 180.046 415.107C179.449 415.704 178.669 416.003 177.889 416.003Z" fill="#10C9E1"/>
<path d="M231.783 362.116C231.003 362.116 230.222 361.818 229.603 361.221L140.865 272.458C139.671 271.264 139.671 269.312 140.865 268.118C142.058 266.924 144.009 266.924 145.203 268.118L233.941 356.881C235.134 358.075 235.134 360.027 233.941 361.221C233.344 361.818 232.564 362.116 231.783 362.116Z" fill="#10C9E1"/>
</svg>
