<svg width="128" height="67" viewBox="0 0 128 67" fill="none" xmlns="http://www.w3.org/2000/svg">
<path d="M23.1348 8.80565C13.9378 12.1078 5.6889 23.5456 5.6889 32.9735C5.6889 37.4721 7.39557 40.0564 10.9985 40.9178C12.563 41.3006 12.6578 40.8221 11.5674 38.6685C10.9511 37.5199 10.8563 36.2278 10.9985 33.2128C11.1882 29.7192 11.4726 28.7142 13.1319 25.2685C14.3171 22.8756 16.1659 20.1478 17.7778 18.4249C19.2474 16.8456 20.1956 15.9842 19.9111 16.5106C18.963 18.3771 15.5971 28.5228 14.4593 32.9735C13.7482 35.6535 13.2741 38.7642 13.2741 40.7742C13.2741 43.6456 13.4163 44.2199 14.4593 45.2249C15.0756 45.8949 16.1659 46.4214 16.8296 46.4214C17.92 46.4214 18.0148 46.2299 18.0148 44.4114C18.0148 43.3106 18.3467 40.3914 18.8208 37.9985C19.4845 34.2178 19.7215 33.5478 20.5274 33.4042C21.2859 33.3085 21.8548 33.9306 23.0874 36.3714C25.2682 40.5828 28.3496 44.6985 30.8148 46.5171C33.3274 48.3835 36.9304 48.8621 39.3008 47.6656C40.9126 46.8042 42.6667 44.3635 42.6667 42.9278C42.6667 41.9228 42.6193 41.9228 40.96 42.8321C39.1585 43.7892 38.0682 43.7414 35.7926 42.5928C33.2326 41.3964 31.3837 39.6735 28.0178 35.4621L25.1733 31.8728L26.8326 30.8678C29.203 29.4321 33.5645 24.9814 34.9393 22.5885C38.1156 17.1806 36.7882 11.1985 31.9052 8.66208C30.5304 7.94422 25.3156 8.03993 23.1348 8.80565ZM32.3793 13.4956C32.8059 13.7349 33.1852 14.4049 33.1852 14.9792C33.1852 17.8028 27.4963 24.5985 23.3245 26.7521L21.3808 27.7571L22.0919 25.7471C23.2296 22.4449 24.6519 16.4628 24.6519 14.8835C24.6519 13.5914 24.8415 13.3999 26.6904 13.0171C28.7289 12.5385 30.9096 12.6821 32.3793 13.4956Z" fill="white"/>
<path d="M101.547 9.76321C98.323 12.7303 95.8104 18.9039 95.0045 26.0825C94.6726 29.0975 93.9615 31.0118 92.7289 32.0168C92.0652 32.5911 91.9704 32.3039 91.9704 29.3846C91.9704 25.4603 92.6341 22.7803 93.9141 21.4882C94.6252 20.7703 94.72 20.3396 94.3408 19.6218C93.1082 17.3246 89.5052 16.4153 88.0356 18.0903C87.04 19.1911 85.8074 22.2061 85.8074 23.5461C85.8074 24.5511 79.7393 34.3618 78.4119 35.4625C77.843 35.8932 77.7482 35.6061 77.7482 33.5482C77.7482 31.3946 77.8904 31.0118 78.8859 30.6289C80.2607 30.1025 81.8252 27.9968 82.7733 25.2689C83.437 23.4025 83.3896 23.1632 82.5837 22.0146C81.3037 20.3396 79.5022 19.7653 77.9852 20.5789C76.1363 21.5839 74.9037 23.9768 74.0978 28.2361C73.5289 31.0118 72.96 32.4953 71.917 33.7396C71.1585 34.6968 70.4474 35.3668 70.3052 35.2232C70.163 35.1275 70.8741 32.4953 71.917 29.4325L73.7185 23.8332L72.2015 22.4453C71.3482 21.6796 70.0682 20.9139 69.357 20.7703C68.3141 20.4832 67.84 20.7225 66.4178 22.3018C65.4696 23.3068 64.3319 24.6946 63.9052 25.3646L63.0993 26.5611V24.5511C63.0519 22.3496 61.3452 19.9568 59.4489 19.3825C57.4578 18.8561 54.0919 22.9718 50.2993 30.5332C48.7822 33.5961 47.9763 34.5053 48.877 32.1603C52.1007 23.8811 52.1956 22.5411 49.7778 21.2968C47.9763 20.3396 47.6444 20.3875 47.5496 21.5839C47.5022 22.1103 46.8859 24.2639 46.2222 26.3696C45.2741 29.2411 44.2311 31.1075 42.1926 33.7396C40.6756 35.6539 39.2059 37.3768 38.9215 37.5682C38.5896 37.7596 38.4 36.8503 38.4 34.7925C38.4 31.7775 38.4474 31.6818 39.7748 31.4425C41.5289 31.0596 44.0889 27.4703 44.3733 24.9818C44.6104 22.9718 43.5674 21.3925 41.5289 20.5789C39.8696 19.9568 38.3526 20.5789 36.6459 22.6846C32.7585 27.4703 32.2844 36.8025 35.7926 39.7218C37.5941 41.2532 40.5807 40.0568 42.9037 36.8503L43.9467 35.4146L44.2785 36.8503C44.6104 38.6211 46.5541 40.6789 47.8341 40.6789C48.4978 40.6789 49.0667 40.0568 49.7304 38.5732C50.7259 36.2761 56.083 26.7046 57.2207 25.1253C57.9319 24.2161 57.9319 24.2161 57.6474 25.3646C54.9452 36.7068 54.9452 37.9032 57.6 39.0518C60.4445 40.2482 61.0133 40.0089 60.9659 37.6639C60.9185 36.0368 61.3926 34.7925 63.2415 31.5382C65.5645 27.4703 66.8445 25.6996 66.1333 27.5182C65.9437 28.0446 65.6593 30.0068 65.5645 31.8732C65.3748 34.4096 65.517 35.6061 66.0859 36.7068C67.4607 39.3868 70.8741 39.1475 72.96 36.2761C73.5763 35.3668 73.6237 35.4146 74.477 36.8025C75.7096 38.8603 77.0845 39.4825 78.4119 38.5732C79.5022 37.9032 79.5496 37.9511 80.403 39.7696C81.4459 42.1625 83.1052 43.0718 86.3289 43.0718C88.4622 43.0718 88.9363 42.8803 90.3585 41.4446C91.4963 40.2961 91.9704 39.3868 91.9704 38.2861C91.9704 37.1853 92.397 36.3718 93.5822 35.2232L95.2415 33.6918L95.5259 35.2711C95.6682 36.1325 96.3319 37.4725 97.043 38.2861C98.0385 39.5303 98.56 39.7696 99.9822 39.6261C101.404 39.4825 101.926 39.1475 103.206 37.2332C104.012 35.9889 104.818 34.6968 104.96 34.3618C105.197 33.8832 105.292 33.8832 105.529 34.4096C106.951 37.5203 111.218 38.3339 113.493 35.9411C116.29 33.0218 118.471 23.3546 117.001 20.5789C116.338 19.3346 114.062 18.2339 113.446 18.8561C113.256 19.0475 113.446 19.4303 113.92 19.6696C114.347 19.9568 114.726 20.3396 114.726 20.6268C114.726 20.8661 114.252 20.6268 113.683 20.1003C110.27 16.9418 106.856 18.9996 105.719 24.8861C105.15 27.6618 101.215 36.3718 100.456 36.3718C100.219 36.3718 100.03 34.2182 100.03 31.5861C100.03 26.8482 100.03 26.7525 102.116 22.8282C106.619 14.4532 107.473 8.13606 104.201 8.13606C103.727 8.13606 102.542 8.90178 101.547 9.76321ZM102.637 15.6018C101.31 19.1432 100.646 20.2439 101.167 17.9468C101.641 16.0803 103.443 11.8689 103.68 12.1082C103.775 12.2518 103.301 13.7832 102.637 15.6018ZM113.683 22.5889C114.157 23.0675 114.394 23.0675 114.773 22.4932C115.39 21.5361 114.868 24.8861 113.92 27.7575C113.067 30.3418 111.028 34.4575 110.601 34.4575C110.127 34.4575 110.886 27.0875 111.692 24.4553C112.403 21.9189 112.735 21.6318 113.683 22.5889ZM41.7659 25.0296C41.197 26.1782 40.2963 27.5661 39.7274 28.0446C38.8741 28.8582 38.8741 28.6668 40.0593 26.3218C41.4815 23.4025 42.24 22.3496 42.5719 22.6846C42.6667 22.8282 42.3348 23.8811 41.7659 25.0296ZM79.597 25.8432C78.1274 28.4275 77.9852 27.9968 79.2652 24.8382C79.9289 23.2589 80.403 22.5889 80.4978 23.0675C80.5926 23.5461 80.1659 24.7903 79.597 25.8432ZM86.1867 34.2182C86.0919 34.2661 85.3333 34.2182 84.5274 34.1225L82.963 33.8832L84.2904 32.0646L85.5704 30.1982L85.9496 32.1603C86.1867 33.2132 86.2815 34.1225 86.1867 34.2182ZM85.2385 36.8503C86.1393 36.8503 86.2815 37.0418 85.997 38.1425C85.2859 41.3968 85.3807 41.3489 84.1482 40.2003C83.5319 39.5782 82.7733 38.4775 82.5363 37.7118C82.0622 36.3718 82.1096 36.2761 83.1052 36.5632C83.6741 36.7068 84.6222 36.8503 85.2385 36.8503Z" fill="white"/>
<path d="M60.1126 17.5635C58.5482 17.8028 58.3111 18.6642 59.7808 18.6642C60.3022 18.6642 61.3926 19.2864 62.1985 20.0999C62.9571 20.8656 63.6682 21.5356 63.8104 21.5356C63.9052 21.5356 64 20.9135 64 20.1478C64 18.9035 62.483 17.0371 61.6297 17.2764C61.4874 17.3242 60.8237 17.4678 60.1126 17.5635Z" fill="white"/>
<path d="M116.148 18.4253C116.148 18.5689 116.575 19.0953 117.096 19.6217C117.618 20.1482 118.187 21.2489 118.376 22.0146C118.756 23.9767 119.467 23.3067 119.467 21.0575C119.467 19.6696 119.23 19.0475 118.566 18.6646C117.618 18.186 116.148 17.9946 116.148 18.4253Z" fill="white"/>
<path d="M92.4444 39.9609C92.16 40.8702 91.2592 42.1145 90.5007 42.7845C89.7422 43.4545 89.1259 44.0766 89.1259 44.2202C89.1259 44.3638 89.8844 44.5073 90.7852 44.5073C93.0607 44.5073 94.5304 42.9759 94.1511 41.0616C94.0089 40.248 93.8667 39.2909 93.8667 38.9559C93.8667 37.6638 92.9659 38.2859 92.4444 39.9609Z" fill="white"/>
<path d="M12.0889 45.2249C12.2785 46.2777 12.6578 47.2827 12.9422 47.4742C13.7956 48.0006 16.5926 47.9527 16.5926 47.3784C16.5926 47.0913 16.1659 46.8999 15.6919 46.8999C15.2178 46.8999 14.1274 46.0863 13.2741 45.0813L11.8044 43.3106L12.0889 45.2249Z" fill="white"/>
<path d="M61.203 45.991C51.9111 46.8046 45.3215 48.9582 42.6667 51.9732C41.4341 53.4089 41.2445 53.9832 41.2919 56.376C41.2919 59.2475 42.0978 62.2625 42.9037 62.5496C43.1882 62.6453 43.8993 61.5925 44.4682 60.3003C46.3645 56.1368 51.2948 53.361 60.2074 51.3989C63.4785 50.681 66.2282 50.4896 75.1408 50.4896C85.5704 50.5375 87.3719 50.681 93.2978 52.2603C93.677 52.3082 94.1985 52.021 94.483 51.5425C95.2415 50.3939 94.1037 49.5803 90.1215 48.2882C83.2 46.1346 70.637 45.1296 61.203 45.991Z" fill="white"/>
<path d="M47.9763 57.4287C47.0755 58.003 46.0326 59.2473 45.5111 60.3958C44.6104 62.5015 44.7052 63.698 45.7007 61.9751C46.6489 60.2523 49.7778 57.4287 50.7259 57.4287C51.2474 57.4287 51.6741 57.1894 51.6741 56.9501C51.6741 56.1365 49.6355 56.4237 47.9763 57.4287Z" fill="white"/>
</svg>
