<svg width="42" height="42" viewBox="0 0 42 42" fill="none" xmlns="http://www.w3.org/2000/svg">
<g opacity="0.61">
<path d="M13.1675 40.2258H13.3025C13.4086 40.2258 13.48 40.294 13.48 40.3916C13.48 40.4892 13.4086 40.5574 13.3025 40.5574H13.1675V40.2258ZM13.3005 40.5271C13.3887 40.5271 13.4454 40.4712 13.4454 40.3916C13.4454 40.3121 13.3886 40.2562 13.3005 40.2562H13.2025V40.5271H13.3005Z" fill="white"/>
<path d="M13.8716 40.3915C13.8716 40.2949 13.9455 40.2229 14.0459 40.2229C14.1454 40.2229 14.2197 40.2944 14.2197 40.3915C14.2197 40.4886 14.1454 40.5601 14.0459 40.5601C13.9456 40.5601 13.8716 40.4882 13.8716 40.3915ZM14.1847 40.3915C14.1847 40.3124 14.1255 40.2541 14.0459 40.2541C13.9659 40.2541 13.9062 40.3124 13.9062 40.3915C13.9062 40.4705 13.9659 40.5288 14.0459 40.5288C14.1256 40.5288 14.1847 40.4706 14.1847 40.3915Z" fill="white"/>
<path d="M15.086 40.2258L14.9742 40.5574H14.9372L14.8401 40.2746L14.7426 40.5574H14.7062L14.5944 40.2258H14.6304L14.7261 40.5109L14.825 40.2258H14.8577L14.9552 40.5124L15.0523 40.2258H15.086Z" fill="white"/>
<path d="M15.7694 40.2258V40.5574H15.7405L15.5274 40.2884V40.5574H15.4924V40.2258H15.5213L15.7349 40.4949V40.2258H15.7694Z" fill="white"/>
<path d="M16.2198 40.2258H16.2548V40.5271H16.4405V40.5574H16.2198V40.2258Z" fill="white"/>
<path d="M16.8051 40.3915C16.8051 40.2949 16.879 40.2229 16.9794 40.2229C17.0789 40.2229 17.1532 40.2944 17.1532 40.3915C17.1532 40.4886 17.0789 40.5601 16.9794 40.5601C16.879 40.5601 16.8051 40.4882 16.8051 40.3915ZM17.1182 40.3915C17.1182 40.3124 17.059 40.2541 16.9794 40.2541C16.8994 40.2541 16.8397 40.3124 16.8397 40.3915C16.8397 40.4705 16.8994 40.5288 16.9794 40.5288C17.059 40.5288 17.1182 40.4706 17.1182 40.3915Z" fill="white"/>
<path d="M17.7774 40.4686H17.5927L17.5529 40.5571H17.5164L17.668 40.2256H17.7026L17.8541 40.5571H17.8171L17.7774 40.4686ZM17.7646 40.4402L17.6851 40.2621L17.6055 40.4402H17.7646Z" fill="white"/>
<path d="M18.2515 40.2258H18.3865C18.4926 40.2258 18.5641 40.294 18.5641 40.3916C18.5641 40.4892 18.4926 40.5574 18.3865 40.5574H18.2515V40.2258ZM18.3846 40.5271C18.4727 40.5271 18.5295 40.4712 18.5295 40.3916C18.5295 40.3121 18.4726 40.2562 18.3846 40.2562H18.2866V40.5271H18.3846Z" fill="white"/>
<path d="M19.6594 40.4686H19.4747L19.4349 40.5571H19.3984L19.55 40.2256H19.5846L19.7361 40.5571H19.6992L19.6594 40.4686ZM19.6467 40.4402L19.5671 40.2621L19.4876 40.4402H19.6467Z" fill="white"/>
<path d="M20.1335 40.2258H20.1686V40.5271H20.3542V40.5574H20.1335V40.2258Z" fill="white"/>
<path d="M20.7549 40.2258H20.7899V40.5271H20.9756V40.5574H20.7549V40.2258Z" fill="white"/>
<path d="M21.8777 40.2561V40.3864H22.0491V40.4167H21.8777V40.5574H21.8427V40.2258H22.07V40.2562L21.8777 40.2561Z" fill="white"/>
<path d="M22.4849 40.2258H22.52V40.5574H22.4849V40.2258Z" fill="white"/>
<path d="M22.9703 40.2258H23.0053V40.5271H23.1909V40.5574H22.9703V40.2258Z" fill="white"/>
<path d="M23.8261 40.5271V40.5574H23.5916V40.2258H23.8189V40.2562H23.6266V40.3741H23.7981V40.4039H23.6266V40.5271H23.8261Z" fill="white"/>
<path d="M24.7524 40.2561V40.3864H24.9239V40.4167H24.7524V40.5574H24.7174V40.2258H24.9447V40.2562L24.7524 40.2561Z" fill="white"/>
<path d="M25.326 40.3915C25.326 40.2949 25.3998 40.2229 25.5003 40.2229C25.5997 40.2229 25.6741 40.2944 25.6741 40.3915C25.6741 40.4886 25.5997 40.5601 25.5003 40.5601C25.3998 40.5601 25.326 40.4882 25.326 40.3915ZM25.639 40.3915C25.639 40.3124 25.5798 40.2541 25.5002 40.2541C25.4202 40.2541 25.3605 40.3124 25.3605 40.3915C25.3605 40.4705 25.4202 40.5288 25.5002 40.5288C25.5798 40.5288 25.639 40.4706 25.639 40.3915Z" fill="white"/>
<path d="M26.3215 40.5574L26.2457 40.4508C26.2371 40.4517 26.2287 40.4522 26.2192 40.4522H26.1301V40.5574H26.0951V40.2258H26.2192C26.3035 40.2258 26.3547 40.2684 26.3547 40.3395C26.3547 40.3916 26.3272 40.428 26.2789 40.4436L26.3599 40.5573H26.3215V40.5574ZM26.3195 40.3395C26.3195 40.2864 26.2845 40.2562 26.2182 40.2562H26.1301V40.4224H26.2182C26.2845 40.4224 26.3195 40.3916 26.3195 40.3395Z" fill="white"/>
<path d="M27.1242 40.2257V40.5572H27.0906V40.2919L26.9603 40.515H26.9437L26.8134 40.2934V40.5571H26.7798V40.2256H26.8087L26.9527 40.4714L27.0953 40.2256L27.1242 40.2257Z" fill="white"/>
<path d="M27.7824 40.4686H27.5977L27.558 40.5571H27.5215L27.6731 40.2256H27.7076L27.8591 40.5571H27.8222L27.7824 40.4686ZM27.7697 40.4402L27.6901 40.2621L27.6106 40.4402H27.7697Z" fill="white"/>
<path d="M28.3044 40.2562H28.1879V40.2258H28.456V40.2562H28.3395V40.5574H28.3045V40.2562H28.3044Z" fill="white"/>
<path d="M28.8173 40.517L28.831 40.49C28.8547 40.5132 28.8969 40.5303 28.9404 40.5303C29.0025 40.5303 29.0294 40.5042 29.0294 40.4715C29.0294 40.3806 28.8253 40.4365 28.8253 40.3139C28.8253 40.2651 28.8632 40.2229 28.9475 40.2229C28.985 40.2229 29.0238 40.2338 29.0504 40.2523L29.0385 40.2803C29.0101 40.2618 28.9769 40.2528 28.9475 40.2528C28.8869 40.2528 28.8599 40.2798 28.8599 40.3129C28.8599 40.4039 29.0641 40.349 29.0641 40.4697C29.0641 40.5185 29.0252 40.5602 28.9404 40.5602C28.8907 40.56 28.8419 40.5425 28.8173 40.517Z" fill="white"/>
</g>
<path d="M21 2.18213C12.6854 2.18213 5.94562 8.92195 5.94562 17.2365C5.94562 21.3923 7.62948 25.1551 10.3528 27.8792C13.0769 30.6049 19.4946 34.5491 19.8709 38.689C19.9273 39.3098 20.3767 39.8181 20.9999 39.8181C21.6232 39.8181 22.0726 39.3097 22.129 38.689C22.5053 34.5491 28.923 30.6049 31.6471 27.8792C34.3705 25.1551 36.0542 21.3923 36.0542 17.2365C36.0544 8.92195 29.3146 2.18213 21 2.18213Z" fill="#FF4433"/>
<path d="M21.0001 22.5059C23.9101 22.5059 26.2691 20.1469 26.2691 17.2368C26.2691 14.3268 23.9101 11.9678 21.0001 11.9678C18.0901 11.9678 15.731 14.3268 15.731 17.2368C15.731 20.1469 18.0901 22.5059 21.0001 22.5059Z" fill="white"/>
</svg>
