<svg width="66" height="66" viewBox="0 0 66 66" fill="none" xmlns="http://www.w3.org/2000/svg">
<g clip-path="url(#clip0_2001_20)">
<path d="M32.6094 65.8125C50.5155 65.8125 65.0312 51.2967 65.0312 33.3906C65.0312 15.4845 50.5155 0.96875 32.6094 0.96875C14.7033 0.96875 0.1875 15.4845 0.1875 33.3906C0.1875 51.2967 14.7033 65.8125 32.6094 65.8125Z" fill="#AFFF48"/>
<path d="M42.6752 31.1108L29.0502 21.7679C28.4385 21.323 27.7711 21.1006 27.2706 21.1006C26.214 21.1006 25.6022 21.9348 25.6022 23.2695V43.4567C25.6022 44.847 26.214 45.6255 27.215 45.6255C27.7711 45.6255 28.3828 45.4031 28.9946 44.9582L42.6195 35.6154C43.5093 35.0036 44.0099 34.225 44.0099 33.3353C44.0099 32.4455 43.565 31.7225 42.6752 31.1108Z" fill="white"/>
</g>
<defs>
<clipPath id="clip0_2001_20">
<rect width="64.8438" height="64.8438" fill="white" transform="translate(0.1875 0.96875)"/>
</clipPath>
</defs>
</svg>
