<svg width="56" height="56" viewBox="0 0 56 56" fill="none" xmlns="http://www.w3.org/2000/svg">
<circle cx="28" cy="28" r="28" fill="#477DBE"/>
<g clip-path="url(#clip0_200_1409)">
<path d="M19.1728 24.5132C19.0214 24.131 18.828 23.7324 19.2863 23.5169C20.2155 23.5047 21.1447 23.4925 22.0782 23.4803C22.4818 23.4925 22.6668 23.7812 22.8812 24.1838C23.5077 25.351 24.1594 26.514 24.9457 27.5836C25.2022 27.9333 25.6353 28.0675 25.9758 27.5104C26.0137 26.758 26.0515 26.0057 26.0894 25.2534C25.9632 24.379 25.6479 23.8626 25.0971 23.8097C24.7817 23.5128 25.0088 23.2688 25.7152 23.1387C26.8378 22.9069 27.8175 23.0126 28.6794 23.1184C29.4068 23.1631 29.5119 23.6389 29.4993 24.1838C29.4741 25.1802 29.4531 26.1806 29.4531 27.1769C29.6675 28.1895 30.2393 27.7829 30.6178 27.3437C31.2947 26.4124 31.8833 25.5055 32.3753 24.4848C32.884 23.4356 33.0228 23.5128 33.3802 23.5088C34.2337 23.5047 35.1756 23.464 35.8567 23.4884C37.2779 23.4071 37.1139 24.0171 36.7145 24.6637C36.0249 25.7902 35.1377 26.8068 34.3473 27.8805C33.8679 28.5108 33.8763 28.9053 34.3851 29.2469C35.1377 30.048 35.9534 30.7963 36.6388 31.6503C37.383 32.5816 36.8364 32.8378 36.1426 32.9069C35.3143 32.9069 34.486 32.9069 33.6577 32.9069C32.9513 32.9191 32.3122 32.7483 31.8623 32.0203C30.8238 30.6905 30.0501 30.3245 29.739 31.0728C29.6044 31.4022 29.4909 31.8455 29.4951 32.2766C29.4993 32.8784 29.1251 32.9272 28.6163 32.9435C28.0697 32.9435 27.5021 33.0736 26.9723 32.9435C25.0971 32.484 23.2975 31.6381 21.5442 28.7304C20.7537 27.4738 19.9632 26.0992 19.1728 24.5132Z" fill="white"/>
</g>
<defs>
<clipPath id="clip0_200_1409">
<rect width="18" height="10" fill="white" transform="translate(19 23)"/>
</clipPath>
</defs>
</svg>
