<svg width="56" height="56" viewBox="0 0 56 56" fill="none" xmlns="http://www.w3.org/2000/svg">
<circle cx="28" cy="28" r="28" fill="#AB2A76"/>
<g clip-path="url(#clip0_200_1414)">
<path d="M32.8512 16H23.1488C19.2069 16 16 19.2069 16 23.1488V32.8512C16 36.7931 19.2069 40 23.1488 40H32.8512C36.7931 40 40 36.7931 40 32.8512V23.1488C40 19.2069 36.7931 16 32.8512 16ZM37.588 32.8512C37.588 35.4646 35.4701 37.588 32.8512 37.588H23.1488C20.5354 37.588 18.412 35.4701 18.412 32.8512V23.1488C18.412 20.5354 20.5299 18.412 23.1488 18.412H32.8512C35.4646 18.412 37.588 20.5299 37.588 23.1488V32.8512Z" fill="white"/>
<path d="M28 21.7932C24.5753 21.7932 21.7931 24.5754 21.7931 28.0001C21.7931 31.4248 24.5753 34.207 28 34.207C31.4247 34.207 34.2069 31.4248 34.2069 28.0001C34.2069 24.5754 31.4247 21.7932 28 21.7932ZM28 31.795C25.9038 31.795 24.2051 30.0963 24.2051 28.0001C24.2051 25.9039 25.9038 24.2052 28 24.2052C30.0962 24.2052 31.7949 25.9039 31.7949 28.0001C31.7949 30.0963 30.0962 31.795 28 31.795Z" fill="white"/>
<path d="M35.7096 21.8421C35.7096 22.6643 35.0453 23.3285 34.2232 23.3285C33.4011 23.3285 32.7368 22.6643 32.7368 21.8421C32.7368 21.02 33.4011 20.3557 34.2232 20.3557C35.0399 20.3503 35.7096 21.02 35.7096 21.8421Z" fill="white"/>
</g>
<defs>
<clipPath id="clip0_200_1414">
<rect width="24" height="24" fill="white" transform="translate(16 16)"/>
</clipPath>
</defs>
</svg>
