<svg width="172" height="172" viewBox="0 0 172 172" fill="none" xmlns="http://www.w3.org/2000/svg">
<path d="M1.74467 102.92C5.70913 122.662 16.4797 140.384 32.1769 152.995C47.874 165.606 67.501 172.305 87.6329 171.922C107.765 171.539 127.123 164.1 142.33 150.902C157.536 137.703 167.626 119.584 170.837 99.7067L162.354 98.336C159.463 116.226 150.383 132.533 136.697 144.411C123.011 156.29 105.588 162.985 87.4696 163.33C69.3509 163.674 51.6866 157.645 37.5592 146.295C23.4317 134.946 13.7382 118.995 10.1702 101.228L1.74467 102.92Z" fill="#02080A"/>
<path d="M12.2366 88.7321C12.2991 89.8762 12.124 90.8716 11.7112 91.7183C11.2875 92.5552 10.6663 93.215 9.84769 93.6979C9.01865 94.1813 8.02687 94.4546 6.87234 94.5176C5.71781 94.5807 4.70737 94.4168 3.84101 94.026C2.97466 93.6352 2.2905 93.0466 1.78853 92.2603C1.2756 91.4642 0.987879 90.4941 0.925384 89.3499C0.883341 88.5802 0.954772 87.8826 1.13968 87.257C1.32401 86.621 1.61719 86.0677 2.01921 85.5972L3.64638 86.1655C3.27783 86.676 3.02285 87.1646 2.88143 87.6313C2.72904 88.0882 2.66876 88.6079 2.70057 89.1904C2.76137 90.3033 3.14599 91.1377 3.85445 91.6937C4.55194 92.2398 5.51955 92.479 6.75729 92.4114C7.99503 92.3438 8.93603 92.0003 9.58029 91.3809C10.224 90.7511 10.5154 89.8797 10.4546 88.7668C10.4228 88.1843 10.3115 87.674 10.1206 87.2359C9.91882 86.7879 9.60174 86.3305 9.16939 85.8638L10.725 85.1216C11.1655 85.5462 11.5172 86.0642 11.7801 86.6758C12.0424 87.277 12.1946 87.9624 12.2366 88.7321Z" fill="#02080A"/>
<path d="M11.7869 83.161L0.84375 81.8995L1.04596 80.1455L10.5589 77.1685L10.5034 77.6497L1.91742 72.5862L2.11783 70.8477L13.061 72.1092L12.8516 73.9253L4.73351 72.9894L4.79793 72.4306L12.4919 77.0453L12.3542 78.2405L3.81195 80.9834L3.87815 80.4091L11.9963 81.3449L11.7869 83.161Z" fill="#02080A"/>
<path d="M8.16511 68.3131C7.05658 67.9844 6.15708 67.5003 5.46662 66.861C4.77913 66.2116 4.32821 65.4423 4.11389 64.553C3.88957 63.6607 3.9329 62.6903 4.24388 61.6416C4.5519 60.603 5.04316 59.7709 5.71765 59.1451C6.38216 58.5165 7.17959 58.1173 8.10994 57.9478C9.04326 57.7682 10.0592 57.8414 11.1577 58.1671C12.2663 58.4959 13.1678 58.9914 13.8623 59.6537C14.5498 60.3031 15.0057 61.0739 15.23 61.9662C15.4543 62.8584 15.4125 63.8239 15.1045 64.8625C14.7935 65.9111 14.3008 66.7483 13.6263 67.374C12.9547 67.9897 12.1538 68.3824 11.2234 68.5519C10.2831 68.7185 9.26365 68.6389 8.16511 68.3131ZM8.76485 66.2908C9.95328 66.6433 10.9576 66.664 11.7777 66.3531C12.5979 66.0423 13.1575 65.3825 13.4567 64.3738C13.7469 63.3951 13.636 62.5419 13.1238 61.8142C12.6117 61.0864 11.7614 60.5463 10.573 60.1939C9.37456 59.8385 8.36731 59.8277 7.55121 60.1615C6.73808 60.4854 6.18491 61.1416 5.8917 62.1303C5.59257 63.139 5.69704 63.9957 6.20512 64.7005C6.7132 65.4053 7.56644 65.9354 8.76485 66.2908Z" fill="#02080A"/>
<path d="M18.3688 55.4263L9.892 51.4586L8.34866 54.7559L6.8486 54.0538L10.7898 45.6336L12.2898 46.3357L10.7465 49.6331L19.2232 53.6007L18.3688 55.4263Z" fill="#02080A"/>
<path d="M21.6365 48.6676L12.4196 42.635L15.0979 38.5429C15.7596 37.5319 16.5085 36.9203 17.3446 36.7081C18.1806 36.4959 19.0257 36.6693 19.8799 37.2283C20.7253 37.7817 21.2224 38.4868 21.3713 39.3436C21.5201 40.2004 21.2636 41.1343 20.6019 42.1454L19.0274 44.5509L22.7403 46.9811L21.6365 48.6676ZM17.6939 43.6781L19.14 41.4687C19.5051 40.9109 19.6569 40.4126 19.5954 39.974C19.5252 39.5297 19.2635 39.1592 18.8103 38.8625C18.3571 38.5659 17.9171 38.4772 17.4906 38.5963C17.0553 38.7098 16.6551 39.0454 16.29 39.6033L14.8438 41.8127L17.6939 43.6781Z" fill="#02080A"/>
<path d="M27.5553 39.7252L19.3702 32.3531L20.6146 30.9715L26.7911 36.5345L26.5401 36.8132L24.63 26.5132L25.6443 25.387L33.8294 32.7592L32.5746 34.1524L26.3981 28.5893L26.649 28.3106L28.5487 38.6222L27.5553 39.7252Z" fill="#02080A"/>
<path d="M39.2353 27.8315L32.8204 18.8764L36.7454 16.0648C37.7192 15.3672 38.6172 15.0378 39.4395 15.0766C40.2557 15.107 40.9247 15.4863 41.4463 16.2146C41.8346 16.7565 42.0012 17.3291 41.9464 17.9322C41.8915 18.5353 41.6258 19.1036 41.1495 19.637L41.013 19.4465C41.7318 19.0726 42.4055 18.9487 43.0341 19.075C43.6651 19.1868 44.2021 19.5518 44.6449 20.1699C45.2151 20.9659 45.3827 21.7813 45.1477 22.6159C44.9067 23.4421 44.295 24.207 43.3127 24.9106L39.2353 27.8315ZM39.9186 25.4584L42.2304 23.8023C42.7809 23.408 43.1357 23.0001 43.295 22.5785C43.4482 22.1484 43.3549 21.6962 43.0152 21.222C42.6695 20.7393 42.2714 20.5055 41.8209 20.5207C41.3644 20.5274 40.8609 20.7279 40.3105 21.1221L37.9987 22.7782L39.9186 25.4584ZM37.1161 21.5461L39.1866 20.0629C39.7709 19.6444 40.1269 19.2291 40.2547 18.8172C40.3849 18.3908 40.2983 17.9659 39.995 17.5425C39.6917 17.1191 39.3203 16.9047 38.8807 16.8992C38.4436 16.8792 37.9328 17.0785 37.3485 17.4971L35.2781 18.9802L37.1161 21.5461Z" fill="#02080A"/>
<path d="M47.9914 21.6254L43.0448 11.7829L44.7061 10.9479L48.4389 18.3752L48.1038 18.5436L50.0672 8.25361L51.4214 7.57301L56.368 17.4155L54.6927 18.2575L50.9599 10.8302L51.295 10.6618L49.3177 20.9588L47.9914 21.6254Z" fill="#02080A"/>
<path d="M58.8273 18.9428L57.6138 14.9677L58.7047 14.6347C59.0203 13.8848 59.1396 12.9553 59.0624 11.8462C58.9851 10.7371 58.7154 9.42537 58.2531 7.91104L57.4136 5.16132L65.0501 2.83001L67.8057 11.8563L69.3449 11.3863L70.5585 15.3615L68.8847 15.8724L68.132 13.4067L59.7633 15.9615L60.516 18.4273L58.8273 18.9428ZM60.6325 14.0461L65.8928 12.4402L63.5934 4.90839L59.6333 6.11739L60.0712 7.55202C60.5123 8.99662 60.7737 10.2455 60.8557 11.2988C60.9475 12.3489 60.8732 13.2647 60.6325 14.0461Z" fill="#02080A"/>
<path d="M71.6822 12.5897L70.0778 1.69152L77.4206 0.610535L77.6504 2.17183L72.2245 2.97062L72.6683 5.98501L77.7387 5.23856L77.9708 6.81531L72.9004 7.56176L73.367 10.7307L78.7929 9.93194L79.025 11.5087L71.6822 12.5897Z" fill="#02080A"/>
<path d="M80.6451 5.70689C80.6477 4.55064 80.8583 3.55111 81.2769 2.7083C81.7058 1.86551 82.3167 1.21584 83.1094 0.759288C83.9021 0.292318 84.8453 0.0600617 85.9391 0.0625193C87.0224 0.0649534 87.9594 0.301434 88.75 0.771962C89.5406 1.23207 90.1485 1.88448 90.5737 2.72919C91.0093 3.57392 91.2258 4.5692 91.2233 5.71503C91.2207 6.87128 90.9996 7.87599 90.5602 8.72917C90.1312 9.57196 89.5204 10.2268 88.7277 10.6938C87.935 11.1608 86.9969 11.3931 85.9136 11.3906C84.8199 11.3882 83.8777 11.1517 83.0871 10.6811C82.3069 10.2106 81.7042 9.55303 81.279 8.70832C80.8538 7.8532 80.6425 6.85272 80.6451 5.70689ZM82.7545 5.71163C82.7517 6.95121 83.0152 7.92055 83.5448 8.61966C84.0745 9.31877 84.8654 9.66951 85.9175 9.67187C86.9383 9.67416 87.7255 9.32697 88.2792 8.6303C88.8328 7.93363 89.1111 6.9655 89.1138 5.72592C89.1167 4.47592 88.8428 3.50655 88.2923 2.81781C87.7521 2.1291 86.9664 1.78358 85.9352 1.78127C84.8831 1.7789 84.0907 2.12087 83.5579 2.80718C83.0251 3.49348 82.7573 4.46163 82.7545 5.71163Z" fill="#02080A"/>
<path d="M98.3298 6.42548C98.5888 5.29861 99.0158 4.37067 99.6109 3.64167C100.216 2.91501 100.956 2.41698 101.83 2.1476C102.707 1.86806 103.678 1.85078 104.744 2.09574C105.8 2.33837 106.661 2.77676 107.327 3.41091C107.996 4.0349 108.444 4.80588 108.672 5.72385C108.909 6.64415 108.899 7.66267 108.643 8.77939C108.384 9.90627 107.945 10.837 107.328 11.5714C106.723 12.2981 105.982 12.8012 105.105 13.0807C104.229 13.3603 103.262 13.3787 102.207 13.1361C101.141 12.8911 100.274 12.4516 99.6078 11.8174C98.9514 11.1856 98.5096 10.4107 98.2823 9.49275C98.0574 8.56463 98.0732 7.54221 98.3298 6.42548ZM100.386 6.89791C100.108 8.10601 100.15 9.10964 100.511 9.90881C100.873 10.708 101.566 11.2254 102.592 11.461C103.586 11.6896 104.431 11.5257 105.125 10.9691C105.82 10.4126 106.306 9.53029 106.583 8.32219C106.863 7.10395 106.811 6.09798 106.427 5.3043C106.053 4.51295 105.364 4.00179 104.359 3.77083C103.333 3.5352 102.485 3.69291 101.813 4.24396C101.141 4.79502 100.666 5.67967 100.386 6.89791Z" fill="#02080A"/>
<path d="M113.35 16.2128L118.02 6.23592L119.817 7.07715L117.83 11.3226L119.528 12.1175L119.048 12.1858L124.091 9.07753L126.101 10.0181L120.559 13.3071L120.104 12.473C120.701 12.8677 121.13 13.3389 121.392 13.8867C121.667 14.4294 121.819 15.0872 121.848 15.86L121.954 20.24L119.987 19.3193L119.959 15.804C119.957 15.1936 119.84 14.7074 119.607 14.3453C119.383 13.9876 119.022 13.6917 118.522 13.4577L117.135 12.8085L115.148 17.054L113.35 16.2128Z" fill="#02080A"/>
<path d="M126.089 16.1611C126.736 15.2029 127.468 14.4909 128.286 14.025C129.112 13.5649 129.981 13.3665 130.894 13.4299C131.812 13.4846 132.725 13.8181 133.631 14.4303C134.529 15.0367 135.174 15.7558 135.568 16.5873C135.968 17.4103 136.108 18.2909 135.99 19.2291C135.88 20.1732 135.504 21.12 134.863 22.0695C134.216 23.0276 133.472 23.7381 132.631 24.201C131.805 24.6611 130.932 24.8638 130.014 24.8091C129.096 24.7543 128.188 24.4238 127.29 23.8173C126.384 23.2051 125.734 22.4832 125.34 21.6516C124.955 20.8258 124.822 19.9438 124.94 19.0056C125.064 18.0587 125.447 17.1106 126.089 16.1611ZM127.837 17.3418C127.143 18.369 126.82 19.3204 126.87 20.1962C126.92 21.0719 127.38 21.8042 128.252 22.3931C129.098 22.9645 129.945 23.1156 130.793 22.8463C131.641 22.577 132.412 21.9288 133.106 20.9016C133.806 19.8658 134.119 18.9086 134.047 18.0298C133.983 17.1569 133.524 16.4318 132.669 15.8546C131.797 15.2656 130.949 15.1073 130.124 15.3796C129.299 15.652 128.536 16.306 127.837 17.3418Z" fill="#02080A"/>
<path d="M133.166 27.598L140.806 19.662L142.078 20.8865L138.676 30.2558L138.327 29.9199L147.56 26.1638L148.821 27.3775L141.181 35.3135L139.864 34.0457L145.532 28.1584L145.937 28.5485L137.602 31.8676L136.735 31.0332L139.734 22.5777L140.151 22.9786L134.484 28.8659L133.166 27.598Z" fill="#02080A"/>
<path d="M142.918 37.1738L151.825 30.6916L157.498 38.4863L148.591 44.9685L147.415 43.3514L154.994 37.8347L151.666 33.2614L144.086 38.7782L142.918 37.1738Z" fill="#02080A"/>
<path d="M149.675 46.3681L161.755 45.875L162.513 47.3828L154.937 56.8388L154.018 55.0099L156.179 52.42L156.055 53.3916L153.087 47.4861L153.954 47.9944L150.587 48.183L149.675 46.3681ZM160.201 47.5832L154.548 47.9582L154.799 47.3777L157.156 52.0686L156.576 51.993L160.229 47.6391L160.201 47.5832Z" fill="#02080A"/>
<path d="M155.379 57.8796L165.889 54.582L166.493 56.5052L162.11 57.8803L163.798 63.2623L168.181 61.8871L168.785 63.8103L158.274 67.1079L157.671 65.1847L162.203 63.7628L160.514 58.3808L155.982 59.8028L155.379 57.8796Z" fill="#02080A"/>
<path d="M159.025 69.8756L169.935 68.3548L170.192 70.1964L161.959 71.344L161.907 70.9726L171.02 76.1389L171.23 77.64L160.32 79.1609L160.061 77.3038L168.294 76.1562L168.345 76.5276L159.23 71.3458L159.025 69.8756Z" fill="#02080A"/>
<path d="M160.616 82.1857L171.627 82.5011L171.574 84.3597L163.265 84.1217L163.275 83.7469L171.402 90.3573L171.359 91.8723L160.347 91.5569L160.401 89.6826L168.71 89.9206L168.7 90.2955L160.573 83.6695L160.616 82.1857Z" fill="#02080A"/>
</svg>
