<svg width="63" height="46" viewBox="0 0 63 46" fill="none" xmlns="http://www.w3.org/2000/svg">
<g clip-path="url(#clip0_218_1203)">
<path d="M53.5642 2.85713C48.7833 -2.44445 41.5806 0.539673 37.1772 4.63491C34.3779 7.23809 32.1763 10.3492 30.6351 13.7778C29.9431 11.6508 28.9681 9.65078 27.4583 7.87301C24.0929 3.9365 18.8088 2.31745 14.0909 4.6984C4.08888 9.71428 5.66152 24.6032 9.68749 33.0476C12.1723 38.2222 16.1039 42.6349 20.9476 45.6825C23.2751 47.1746 25.4453 43.4286 23.1178 41.9682C14.6885 36.6667 9.12134 25.6825 11.323 15.6508C12.2981 10.8254 16.7329 5.71428 21.9226 8.7619C26.9865 11.7143 27.5212 18.3174 27.9616 23.5873C28.1817 26.3809 31.9561 26.3492 32.2392 23.5873C32.7739 18.5079 34.9126 13.5555 38.2466 9.71428C40.983 6.57142 47.022 1.42856 50.7334 6.09523C53.8472 10.0317 51.8972 16.3492 50.2302 20.5079C48.5003 24.8254 45.7953 28.7301 42.5242 32C38.7813 35.6825 34.2521 38.4762 29.2511 40.0635C26.6406 40.8889 27.7414 45.0476 30.3834 44.2222C41.5177 40.6984 50.5447 31.9682 54.6336 20.9524C56.7094 15.2063 57.999 7.80951 53.5642 2.85713Z" fill="#10C9E1"/>
<path d="M61.4588 11.9361C60.9556 18.2853 58.7539 24.4758 55.2312 29.7774C54.2247 31.2694 53.1238 32.6662 51.9286 33.9996C51.2681 34.7297 52.3375 35.8408 53.0295 35.1107C57.4958 30.1901 60.6411 24.0948 62.1508 17.5869C62.5597 15.7139 62.8428 13.8408 63 11.9361C63.0944 10.9202 61.5217 10.952 61.4588 11.9361Z" fill="#10C9E1"/>
<path d="M48.8148 38.4125C48.5003 38.1268 48.0599 38.1268 47.7139 38.4125C46.9591 39.0792 46.2357 39.7459 45.4808 40.4125C45.1663 40.6982 45.1977 41.2379 45.4808 41.5236C45.7953 41.8094 46.2357 41.8094 46.5816 41.5236C47.3365 40.857 48.0599 40.1903 48.8148 39.5236C49.1293 39.2379 49.1293 38.6665 48.8148 38.4125Z" fill="#10C9E1"/>
<path d="M5.91313 6.34918C6.16475 6.03172 6.22765 5.55553 5.91313 5.23807C5.63005 4.95235 5.09535 4.92061 4.81228 5.23807C0.81777 10.3174 -0.786324 17.0476 0.37743 23.4285C0.691958 25.2381 1.25811 26.9841 2.01298 28.6349C2.20169 29.0158 2.73639 29.1111 3.08237 28.9206C3.45981 28.6984 3.52271 28.2222 3.36545 27.8412C0.912128 22.4762 0.975034 15.9682 3.36545 10.6031C4.02596 9.07934 4.87518 7.65076 5.91313 6.34918Z" fill="#10C9E1"/>
<path d="M6.73093 35.4918C6.85674 35.6823 6.73092 35.4601 6.69947 35.4283C6.66802 35.3648 6.60511 35.3013 6.57366 35.2696C6.4793 35.1426 6.4164 35.0474 6.32204 34.9204C6.16477 34.6982 6.03896 34.4442 5.91315 34.222C5.78734 33.968 5.66153 33.7458 5.53572 33.4918C5.50427 33.4283 5.47281 33.3648 5.44136 33.3013C5.50426 33.5236 5.44136 33.3013 5.40991 33.2378C5.347 33.1109 5.31555 32.9839 5.25264 32.8251C5.12683 32.4442 4.71794 32.1585 4.30906 32.2855C3.93162 32.4124 3.6171 32.8251 3.77436 33.2378C4.2147 34.4759 4.84376 35.587 5.63008 36.6029C5.75589 36.7617 6.00751 36.8251 6.16477 36.8251C6.35349 36.8251 6.57366 36.7299 6.69947 36.6029C6.82528 36.4442 6.91964 36.2537 6.91964 36.0632C6.95109 35.8093 6.85674 35.6505 6.73093 35.4918Z" fill="#10C9E1"/>
</g>
<defs>
<clipPath id="clip0_218_1203">
<rect width="63" height="46" fill="white"/>
</clipPath>
</defs>
</svg>
