<svg width="410" height="311" viewBox="0 0 410 311" fill="none" xmlns="http://www.w3.org/2000/svg">
<g clip-path="url(#clip0_2006_2834)">
<path d="M315.625 251.024L307.042 238.057L315.625 237.037L343 197.512L336.156 113.706L279.554 99.1247L74.468 103.032L31.6664 94L0 138.451V237.037L59.4479 246.437L131.861 253.884L230.248 247.315L275.353 241.879L302.186 253.884L287.437 281.687H309.888L302.186 310L322.921 271.551H304.806L315.625 251.024Z" fill="#10C9E1"/>
<path d="M326.691 243.239L318.133 230.314L326.691 229.268L353.987 189.788L347.163 106.077L290.725 91.5411L86.2335 95.4438L43.5786 86.394L11.9814 130.823V229.268L71.257 238.685L143.46 246.095L241.584 239.534L286.536 234.104L313.291 246.095L298.585 273.866H320.971L313.291 302.147L333.966 263.742H315.926L326.691 243.239Z" fill="white"/>
<path d="M310.025 310.377L319.619 275.083H296.783L311.782 246.717L286.401 235.348L241.651 240.75H241.629L143.459 247.311H143.392L71.1441 239.902H71.1215L11.0127 230.343V130.342L43.1954 85.0933L86.3008 94.2279L290.815 90.3252L290.928 90.3535L348.064 105.088L355 190.212L327.187 230.456L320.07 231.304L327.907 243.154L317.728 262.526H335.79L310.025 310.377ZM300.386 272.651H322.322L316.534 293.918L332.141 264.93H314.124L325.497 243.295L316.241 229.296L326.218 228.08L352.973 189.364L346.284 107.067L290.657 92.729L86.1656 96.66L43.9386 87.7234L12.9495 131.276V228.193L71.3468 237.469L143.482 244.879L241.494 238.318L286.649 232.86L314.755 245.445L300.386 272.651Z" fill="#07171A"/>
</g>
<g clip-path="url(#clip1_2006_2834)">
<path d="M288.275 66.0348C287.624 54.4646 286.932 42.874 286.281 31.3039C286.051 27.4063 279.994 27.7781 280.225 31.6757C280.876 43.2458 281.568 54.8365 282.219 66.4066C282.429 70.3449 288.485 69.9731 288.275 66.0348Z" fill="#07171A"/>
<path d="M319.11 69.0533C320.282 66.4244 321.454 63.7954 322.625 61.1665C324.208 57.6206 318.775 54.8316 317.212 58.4388C316.041 61.0677 314.869 63.6966 313.697 66.3255C312.094 69.9123 317.507 72.64 319.11 69.0533Z" fill="#07171A"/>
<path d="M384.487 48.2906C369.692 57.5964 355.466 67.8015 341.868 78.7836C338.842 81.2444 342.126 86.3741 345.173 83.8725C358.77 72.8905 372.997 62.6854 387.791 53.3795C391.102 51.2663 387.797 46.1773 384.487 48.2906Z" fill="#07171A"/>
<path d="M385.564 94.0569C379.606 95.4491 373.648 96.8414 367.71 98.1928C363.894 99.0806 365.831 104.86 369.605 103.951C375.564 102.559 381.522 101.167 387.459 99.8154C391.316 98.9482 389.38 93.1691 385.564 94.0569Z" fill="#07171A"/>
<path d="M372.188 72.1909C366.084 74.2764 360.263 77.2196 354.969 80.9395C353.784 81.7729 354.98 83.6531 356.165 82.8197C361.296 79.2218 366.913 76.3801 372.853 74.3145C374.261 73.8489 373.535 71.7455 372.188 72.1909Z" fill="#07171A"/>
<path d="M368.345 80.5256C368.224 80.2601 368.041 80.0147 367.797 79.8917C367.553 79.7686 367.227 79.7066 366.961 79.8283C366.185 80.1527 365.41 80.4771 364.613 80.8423C364.491 80.8828 364.348 80.964 364.245 81.0658C364.102 81.147 364.041 81.2693 363.979 81.3915C363.856 81.636 363.834 81.9828 363.915 82.2279C364.036 82.4934 364.219 82.7387 364.463 82.8618C364.707 82.9849 365.033 83.0469 365.299 82.9252C366.075 82.6008 366.851 82.2763 367.647 81.9112C367.769 81.8707 367.912 81.7895 368.015 81.6877C368.158 81.6065 368.219 81.4842 368.281 81.362C368.404 81.1174 368.467 80.7912 368.345 80.5256Z" fill="#07171A"/>
<path d="M277.401 51.4591C276.991 46.2961 276.521 41.1533 276.111 35.9903C275.974 34.5414 273.751 34.6988 273.888 36.1477C274.298 41.3107 274.768 46.4535 275.178 51.6165C275.336 53.0247 277.538 52.908 277.401 51.4591Z" fill="#07171A"/>
<path d="M278.672 66.1525C279.007 63.8682 278.872 61.6031 278.309 59.3778C278.149 58.7857 277.436 58.4777 276.885 58.6599C276.273 58.8624 276.026 59.4534 276.166 60.0863C276.247 60.3313 276.287 60.5558 276.327 60.7804L276.347 60.8416C276.347 60.8416 276.347 60.9437 276.387 60.9642C276.428 61.0867 276.427 61.1887 276.447 61.352C276.506 61.8418 276.566 62.3316 276.605 62.8622C276.623 63.3315 276.622 63.8416 276.62 64.3516C276.64 64.4129 276.619 64.4537 276.619 64.5557C276.619 64.5557 276.619 64.5557 276.598 64.5964C276.598 64.6984 276.577 64.8412 276.577 64.9432C276.555 65.188 276.514 65.4735 276.492 65.7183C276.409 66.2894 276.753 66.9228 277.364 67.0264C277.935 67.1095 278.568 66.7643 278.672 66.1525Z" fill="#07171A"/>
</g>
<defs>
<clipPath id="clip0_2006_2834">
<rect width="355" height="226" fill="white" transform="translate(0 85)"/>
</clipPath>
<clipPath id="clip1_2006_2834">
<rect width="131.303" height="66.4427" fill="white" transform="translate(291.899) rotate(26.7439)"/>
</clipPath>
</defs>
</svg>
