<svg width="50" height="50" viewBox="0 0 50 50" fill="none" xmlns="http://www.w3.org/2000/svg">
<rect x="0.5" y="0.5" width="49" height="49" rx="24.5" stroke="#F5F5F5" stroke-opacity="0.3"/>
<circle cx="25" cy="25" r="15" fill="#06D1EA"/>
<g clip-path="url(#clip0_218_1557)">
<path d="M30.7276 17.7998H25.6V19.5998H29.1274L17.8 30.9272L19.0726 32.1998L30.4 20.8724V24.3998H32.2V19.2722C32.1995 18.8818 32.0442 18.5076 31.7682 18.2316C31.4922 17.9556 31.118 17.8003 30.7276 17.7998Z" fill="black"/>
<path d="M21.7 24.4C22.234 24.4 22.756 24.2416 23.2 23.945C23.6441 23.6483 23.9901 23.2266 24.1945 22.7332C24.3988 22.2399 24.4523 21.697 24.3481 21.1733C24.2439 20.6495 23.9868 20.1684 23.6092 19.7908C23.2316 19.4132 22.7505 19.1561 22.2267 19.0519C21.703 18.9477 21.1601 19.0012 20.6668 19.2055C20.1734 19.4099 19.7517 19.7559 19.455 20.2C19.1584 20.644 19 21.166 19 21.7C19.0008 22.4158 19.2855 23.1021 19.7917 23.6083C20.2979 24.1145 20.9842 24.3992 21.7 24.4ZM21.7 20.8C21.878 20.8 22.052 20.8528 22.2 20.9517C22.348 21.0506 22.4634 21.1911 22.5315 21.3556C22.5996 21.52 22.6174 21.701 22.5827 21.8756C22.548 22.0502 22.4623 22.2105 22.3364 22.3364C22.2105 22.4623 22.0502 22.548 21.8756 22.5827C21.701 22.6174 21.52 22.5996 21.3556 22.5315C21.1911 22.4634 21.0506 22.348 20.9517 22.2C20.8528 22.052 20.8 21.878 20.8 21.7C20.8 21.4613 20.8948 21.2324 21.0636 21.0636C21.2324 20.8948 21.4613 20.8 21.7 20.8Z" fill="black"/>
<path d="M28.3 25.5996C27.766 25.5996 27.244 25.758 26.8 26.0546C26.3559 26.3513 26.0099 26.773 25.8055 27.2664C25.6012 27.7597 25.5477 28.3026 25.6519 28.8264C25.7561 29.3501 26.0132 29.8312 26.3908 30.2088C26.7684 30.5864 27.2495 30.8435 27.7733 30.9477C28.297 31.0519 28.8399 30.9984 29.3332 30.7941C29.8266 30.5897 30.2483 30.2437 30.545 29.7996C30.8416 29.3556 31 28.8336 31 28.2996C30.9992 27.5838 30.7145 26.8975 30.2083 26.3913C29.7021 25.8851 29.0158 25.6004 28.3 25.5996ZM28.3 29.1996C28.122 29.1996 27.948 29.1468 27.8 29.0479C27.652 28.949 27.5366 28.8085 27.4685 28.644C27.4004 28.4796 27.3826 28.2986 27.4173 28.124C27.452 27.9494 27.5377 27.7891 27.6636 27.6632C27.7895 27.5373 27.9498 27.4516 28.1244 27.4169C28.299 27.3822 28.48 27.4 28.6444 27.4681C28.8089 27.5362 28.9494 27.6516 29.0483 27.7996C29.1472 27.9476 29.2 28.1216 29.2 28.2996C29.2 28.5383 29.1052 28.7672 28.9364 28.936C28.7676 29.1048 28.5387 29.1996 28.3 29.1996Z" fill="black"/>
</g>
<defs>
<clipPath id="clip0_218_1557">
<rect width="14.4" height="14.4" fill="white" transform="translate(17.8 17.7998)"/>
</clipPath>
</defs>
</svg>
