<svg width="690" height="347" viewBox="0 0 690 347" fill="none" xmlns="http://www.w3.org/2000/svg">
<g clip-path="url(#clip0_2011_18281)">
<path d="M4.36124 315.6C17.1797 315.558 29.6421 311.887 40.5538 305.24C43.6729 303.334 40.8301 297.837 37.4608 299.491C32.7319 301.863 27.8893 303.812 22.8647 305.423C31.985 297.202 41.0953 289.03 50.2156 280.809C56.474 275.199 62.6841 269.579 68.9426 263.969C71.4146 261.778 73.8413 259.078 76.8323 257.546C79.9399 255.938 81.346 257.181 82.4218 260.258C84.7737 266.905 85.4788 273.711 85.4372 280.712C85.4685 286.877 87.762 293.562 95.0899 293.731C98.4104 293.77 101.507 292.46 104.506 291.13C107.845 289.62 111.146 288.053 114.409 286.427C120.983 283.185 127.374 279.605 133.535 275.677C147.519 266.865 160.467 256.485 172.25 244.912C175.24 241.927 170.143 237.815 167.173 240.703C156.772 250.961 145.274 260.19 133.018 268.21C126.885 272.244 120.57 275.94 114.064 279.345C110.956 280.953 107.762 282.493 104.577 283.985C101.85 285.221 98.1275 287.603 94.9734 287.248C92.1678 286.916 92.0904 283.645 92.0354 281.481C91.9012 277.998 92.057 274.576 91.6128 271.129C91.2438 268.048 90.6131 265.013 89.8175 262.044C88.9366 258.757 87.9435 254.796 85.2564 252.435C80.2774 247.997 73.6755 251.132 69.3742 254.845C63.0689 260.196 57.0323 265.952 50.8905 271.486C39.3465 281.907 27.7641 292.27 16.2201 302.691C18.5162 299.162 20.5037 295.419 22.1628 291.558C23.8218 287.696 17.7773 284.989 16.1666 288.861C12.7204 296.958 7.79832 304.147 1.47859 310.295C-0.78016 312.43 1.84419 315.578 4.36124 315.6Z" fill="#10C9E1"/>
<path d="M112.117 295.765C122.175 292.746 131.824 288.29 140.668 282.616C143.176 280.984 145.597 279.283 147.941 277.467C149.147 276.515 147.852 274.494 146.597 275.435C138.379 281.74 129.345 286.874 119.641 290.617C116.895 291.699 114.13 292.628 111.279 293.488C109.834 293.889 110.614 296.203 112.117 295.765Z" fill="#10C9E1"/>
<path d="M155.181 269.557C155.383 269.799 155.633 270.051 155.933 270.063C156.223 270.124 156.581 270.098 156.825 269.898C158.031 268.947 159.227 268.044 160.385 267.082C160.628 266.883 160.833 266.625 160.893 266.337C160.952 266.049 160.877 265.682 160.724 265.45C160.522 265.208 160.261 265.004 159.971 264.944C159.681 264.883 159.323 264.909 159.08 265.109C157.874 266.06 156.677 266.964 155.52 267.925C155.276 268.125 155.072 268.383 155.012 268.671C154.904 268.949 154.979 269.315 155.181 269.557Z" fill="#10C9E1"/>
<path d="M69.7972 240.663C73.4326 238.214 77.3411 235.42 81.798 234.844C85.4798 234.356 89.6946 235.432 91.679 238.748C92.5134 240.073 94.506 238.734 93.7199 237.419C91.3517 233.523 86.4332 231.951 82.0546 232.393C76.9592 232.888 72.5558 235.879 68.4539 238.632C67.161 239.515 68.5043 241.547 69.7972 240.663Z" fill="#10C9E1"/>
</g>
<g clip-path="url(#clip1_2011_18281)">
<path d="M630.885 201.525C627.059 193.85 590.25 142.334 552.831 134.693C515.413 127.086 432.855 127.086 432.855 127.086C432.855 127.086 297.504 130.244 282.977 133.436C268.416 136.629 218.807 170.962 218.807 170.962C218.807 170.962 187.043 197.11 181.321 206.992C175.598 216.841 188.94 293.283 211.154 303.471C214.371 304.965 221.177 306.018 230.456 306.731C229.406 313.082 229.372 322.013 232.42 333.967C233.131 336.717 233.978 339.604 235.061 342.66C235.061 342.66 234.756 319.602 239.937 307.309C299.875 310.161 427.64 303.471 446.332 303.471C469.427 303.471 602.305 299.023 611.854 286.288C621.336 273.519 634.678 209.2 630.885 201.525Z" fill="#10C9E1"/>
<path d="M648.9 192.933C645.074 185.258 608.265 133.742 570.846 126.101C533.428 118.46 450.87 118.46 450.87 118.46C450.87 118.46 315.553 121.652 300.992 124.811C286.431 128.003 236.822 162.336 236.822 162.336C236.822 162.336 205.059 188.519 199.336 198.367C193.613 208.215 206.955 284.658 229.169 294.846C232.386 296.34 239.192 297.392 248.471 298.106C247.421 304.456 247.387 313.387 250.435 325.341C251.146 328.092 251.993 330.978 253.076 334.035C253.076 334.035 252.772 310.976 257.953 298.683C317.89 301.536 445.655 294.846 464.347 294.846C487.442 294.846 620.32 290.397 629.87 277.662C639.385 264.927 652.693 200.608 648.9 192.933Z" fill="white"/>
<path d="M254.668 343L251.722 334.476C250.706 331.488 249.792 328.533 249.047 325.681C246.541 315.968 245.796 307.139 246.812 299.396C237.635 298.615 231.675 297.562 228.559 296.136C217.927 291.28 210.307 273.247 205.804 259.018C198.083 234.635 194.222 204.208 198.083 197.586C203.873 187.67 234.587 162.302 235.874 161.215L235.975 161.147C238.007 159.755 286.025 126.611 300.688 123.418C315.215 120.226 445.316 117.136 450.836 117H450.87C451.683 117 534.003 117.102 571.117 124.675C591.266 128.784 610.737 145.322 623.503 158.498C637.658 173.067 648.02 187.941 650.187 192.288C652.558 197.042 649.273 217.588 645.785 233.719C642.06 250.8 636.236 271.549 630.987 278.545C629.429 280.65 624.858 283.843 603.423 287.171C590.588 289.174 573.352 290.974 552.256 292.502C515.48 295.151 476.233 296.306 464.347 296.306C459.336 296.306 446.535 296.781 428.825 297.46C381.654 299.226 302.923 302.181 258.935 300.177C254.329 312.267 254.566 333.763 254.566 334.001L254.668 343ZM237.669 163.524C236.28 164.679 206.007 189.775 200.589 199.114C199.437 201.084 198.794 207.909 200.453 221.154C201.943 233.141 204.923 246.623 208.58 258.203C214.71 277.526 222.227 290.091 229.779 293.555C232.691 294.88 239.023 295.932 248.573 296.679L250.164 296.815L249.893 298.377C248.606 306.052 249.284 314.983 251.823 324.968C252.23 317.055 253.381 305.713 256.598 298.14L257.004 297.189L258.02 297.223C301.67 299.294 381.214 296.306 428.69 294.54C446.434 293.861 459.234 293.385 464.313 293.385C476.165 293.385 515.311 292.231 552.052 289.582C573.081 288.054 590.216 286.288 602.982 284.284C622.758 281.194 627.567 278.273 628.684 276.779C632.782 271.312 638.369 254.162 642.941 233.073C647.749 211 648.9 196.261 647.58 193.579C645.751 189.911 635.626 175.173 621.404 160.536C608.908 147.665 589.945 131.501 570.508 127.561C533.868 120.022 452.495 119.921 450.904 119.921C448.77 119.954 315.52 123.147 301.297 126.271C287.379 129.293 239.531 162.234 237.669 163.524Z" fill="#07171A"/>
</g>
<g clip-path="url(#clip2_2011_18281)">
<path d="M536.219 83.4842C535.395 68.8567 534.521 54.2032 533.697 39.5757C533.406 34.6482 525.749 35.1183 526.041 40.0458C526.864 54.6733 527.739 69.3267 528.562 83.9543C528.827 88.9333 536.484 88.4632 536.219 83.4842Z" fill="#07171A"/>
<path d="M575.202 87.3004C576.683 83.9768 578.164 80.6532 579.645 77.3296C581.646 72.8466 574.777 69.3206 572.802 73.8811C571.321 77.2047 569.839 80.5283 568.358 83.8519C566.331 88.3864 573.175 91.8349 575.202 87.3004Z" fill="#07171A"/>
<path d="M657.853 61.0513C639.15 72.8163 621.164 85.718 603.973 99.602C600.147 102.713 604.299 109.198 608.151 106.036C625.342 92.1517 643.328 79.25 662.031 67.485C666.216 64.8134 662.039 58.3797 657.853 61.0513Z" fill="#07171A"/>
<path d="M659.216 118.911C651.683 120.672 644.15 122.432 636.644 124.14C631.82 125.263 634.268 132.569 639.04 131.421C646.573 129.66 654.105 127.9 661.612 126.192C666.487 125.095 664.039 117.789 659.216 118.911Z" fill="#07171A"/>
<path d="M642.305 91.2674C634.588 93.9041 627.229 97.625 620.536 102.328C619.038 103.382 620.55 105.759 622.048 104.705C628.534 100.156 635.636 96.5636 643.145 93.9522C644.926 93.3636 644.008 90.7044 642.305 91.2674Z" fill="#07171A"/>
<path d="M637.447 101.805C637.293 101.469 637.062 101.159 636.754 101.003C636.445 100.848 636.033 100.769 635.697 100.923C634.716 101.333 633.735 101.743 632.728 102.205C632.573 102.256 632.393 102.359 632.263 102.488C632.083 102.59 632.005 102.745 631.927 102.899C631.771 103.208 631.744 103.647 631.846 103.957C631.999 104.292 632.23 104.603 632.539 104.758C632.847 104.914 633.259 104.992 633.595 104.838C634.576 104.428 635.557 104.018 636.564 103.556C636.719 103.505 636.899 103.402 637.029 103.274C637.21 103.171 637.287 103.017 637.365 102.862C637.521 102.553 637.6 102.14 637.447 101.805Z" fill="#07171A"/>
<path d="M522.47 65.0569C521.953 58.5296 521.358 52.0279 520.84 45.5006C520.666 43.6687 517.856 43.8677 518.03 45.6996C518.548 52.2269 519.143 58.7286 519.66 65.2559C519.86 67.0363 522.644 66.8888 522.47 65.0569Z" fill="#07171A"/>
<path d="M524.078 83.633C524.501 80.7452 524.331 77.8815 523.62 75.0681C523.416 74.3195 522.515 73.9303 521.819 74.1606C521.044 74.4165 520.732 75.1637 520.91 75.9638C521.012 76.2736 521.062 76.5575 521.113 76.8414L521.138 76.9188C521.138 76.9188 521.138 77.0478 521.189 77.0737C521.24 77.2286 521.24 77.3576 521.265 77.564C521.34 78.1833 521.415 78.8025 521.464 79.4733C521.488 80.0666 521.486 80.7115 521.483 81.3563C521.509 81.4338 521.483 81.4853 521.482 81.6143C521.482 81.6143 521.482 81.6143 521.456 81.6658C521.456 81.7948 521.429 81.9753 521.429 82.1042C521.402 82.4137 521.349 82.7747 521.322 83.0841C521.217 83.8061 521.652 84.6069 522.425 84.7378C523.146 84.8429 523.946 84.4065 524.078 83.633Z" fill="#07171A"/>
</g>
<defs>
<clipPath id="clip0_2011_18281">
<rect width="155" height="108" fill="white" transform="translate(151.763 346.255) rotate(-168.271)"/>
</clipPath>
<clipPath id="clip1_2011_18281">
<rect width="471" height="226" fill="white" transform="translate(180 117)"/>
</clipPath>
<clipPath id="clip2_2011_18281">
<rect width="166" height="84" fill="white" transform="translate(540.8) rotate(26.7439)"/>
</clipPath>
</defs>
</svg>
