<svg width="343" height="173" viewBox="0 0 343 173" fill="none" xmlns="http://www.w3.org/2000/svg">
<g clip-path="url(#clip0_445_2224)">
<path d="M38.909 126.959L47.1783 117.013L38.909 116.231L12.5345 85.9136L19.1281 21.6304L73.6617 10.446L271.253 13.443L312.491 6.51514L343 40.6113V116.231L285.725 123.441L215.958 129.153L121.166 124.114L77.7092 119.945L51.8569 129.153L66.067 150.479H44.4364L51.8569 172.196L31.8802 142.704H49.3326L38.909 126.959Z" fill="#07171A"/>
<path d="M27.3328 121.443L35.6021 111.518L27.3328 110.715L0.958221 80.3975L7.55188 16.1143L62.0854 4.95157L259.677 7.94856L300.893 0.999023L331.424 35.1169V110.715L274.148 117.947L204.382 123.637L109.568 118.598L66.133 114.428L40.2807 123.637L54.4908 144.963H32.8602L40.2807 166.68L20.3039 137.188H37.7346L27.3328 121.443Z" fill="white"/>
<path d="M43.4359 173L34.1656 145.897H56.2315L41.7385 124.114L66.2634 115.384L109.503 119.532H109.525L204.382 124.57H204.447L274.257 118.881H274.279L332.359 111.54V34.7477L301.263 0L259.612 7.01469L61.9982 4.0177L61.8894 4.03942L6.68124 15.3541L-0.0212097 80.7232L26.8539 111.627L33.7304 112.278L26.1575 121.378L35.9936 136.254H18.5411L43.4359 173ZM52.7497 144.029H31.5543L37.1469 160.361L22.0664 138.1H39.4754L28.486 121.487L37.4298 110.737L27.7896 109.803L1.93729 80.0717L8.40039 16.8743L62.1505 5.86367L259.742 8.88238L300.544 2.01971L330.488 35.4644V109.89L274.061 117.013L204.36 122.703L109.655 117.664L66.024 113.473L38.8661 123.137L52.7497 144.029Z" fill="#07171A"/>
</g>
<defs>
<clipPath id="clip0_445_2224">
<rect width="343" height="173" fill="white" transform="matrix(-1 0 0 1 343 0)"/>
</clipPath>
</defs>
</svg>
