<svg width="552" height="279" viewBox="0 0 552 279" fill="none" xmlns="http://www.w3.org/2000/svg">
<g clip-path="url(#clip0_214_1117)">
<path d="M489.383 204.75L476.075 188.709L489.383 187.448L531.828 138.555L521.217 34.8839L433.454 16.8466L115.464 21.6799L49.0994 10.5073L0 65.4948V187.448L92.1751 199.076L204.452 208.287L357.003 200.161L426.94 193.437L468.545 208.287L445.676 242.68H480.487L468.545 277.704L500.694 230.142H472.608L489.383 204.75Z" fill="#07171A"/>
<path d="M508.014 195.854L494.706 179.848L508.014 178.552L550.459 129.659L539.848 25.9879L452.085 7.98567L134.095 12.819L67.7655 1.61133L18.6312 56.6338V178.552L110.806 190.215L223.083 199.391L375.67 191.265L445.571 184.541L487.176 199.391L464.308 233.784H499.118L487.176 268.808L519.326 221.246H491.274L508.014 195.854Z" fill="white"/>
<path d="M482.098 279L497.017 235.29H461.506L484.83 200.161L445.361 186.082L375.775 192.771H375.74L223.083 200.897H222.978L110.631 191.721H110.596L17.1252 179.883V56.0382L67.1702 0L134.2 11.3127L452.225 6.47941L452.401 6.51444L541.249 24.7619L552.035 130.184L508.784 180.023L497.718 181.073L509.905 195.748L494.075 219.74H522.162L482.098 279ZM467.109 232.278H501.22L492.219 258.616L516.489 222.717H488.472L506.158 195.923L491.764 178.587L507.278 177.081L548.883 129.133L538.482 27.2135L451.98 9.45644L133.99 14.3248L68.3259 3.25722L20.137 57.194V177.221L110.946 188.709L223.118 197.885L375.53 189.759L445.747 183L489.453 198.585L467.109 232.278Z" fill="#07171A"/>
<g clip-path="url(#clip1_214_1117)">
<path d="M398.387 215.163C395.016 204.912 387.229 196.976 377.258 192.914C374.646 191.874 371.94 191.119 369.233 190.646C371.56 182.474 372.082 173.782 369.186 165.61C365.435 154.935 356.84 147.14 345.492 145.392C321.134 141.708 296.111 158.052 285.38 179.168C283.528 182.852 289.083 186.111 290.935 182.427C298.912 166.791 313.964 155.312 331.295 152.1C340.696 150.352 351.19 151.392 357.932 158.808C364.247 165.705 365.814 175.766 364.105 184.694C363.773 186.537 363.298 188.379 362.728 190.221C357.458 190.268 352.187 191.449 347.344 193.811C338.227 198.252 331.105 206.565 328.019 216.155C326.499 220.831 325.217 227.35 329.823 230.798C333.954 233.916 339.557 231.696 343.26 228.956C352.757 221.87 360.544 211.289 365.529 200.661C366.099 199.433 366.669 198.157 367.191 196.882C368.046 196.976 368.853 197.118 369.66 197.307C379.157 199.433 387.514 205.668 391.407 214.69C395.348 223.902 394.494 234.719 389.271 243.222C387.086 246.765 392.689 249.977 394.826 246.481C400.476 237.176 401.806 225.508 398.387 215.163ZM340.554 222.815C338.18 224.846 332.482 228.342 333.099 222.626C334.571 208.786 346.869 198.299 360.212 196.787C357.742 202.314 354.419 207.557 350.668 212.234C347.629 216.06 344.258 219.603 340.554 222.815Z" fill="#10C9E1"/>
<path d="M411.445 227.35C405.889 232.546 400.334 237.742 394.731 242.938C393.781 243.836 392.404 244.781 391.502 245.773C391.55 245.111 391.407 244.214 391.455 243.836C391.597 240.151 391.787 236.467 391.929 232.782C392.119 228.673 385.662 228.673 385.472 232.782C385.282 237.506 384.57 242.513 384.902 247.237C385.235 251.63 389.081 254.37 393.259 252.386C395.301 251.394 396.915 249.693 398.529 248.182C400.429 246.434 402.328 244.639 404.227 242.891C408.168 239.254 412.062 235.569 416.003 231.932C419.042 229.05 414.483 224.516 411.445 227.35Z" fill="#10C9E1"/>
<path d="M379.252 162.445C378.065 156.871 375.263 151.722 371.37 147.613C369.233 145.345 366.764 143.408 364.058 141.897C362.728 141.141 361.588 143.172 362.871 143.881C367.334 146.432 371.085 150.163 373.696 154.604C376.545 159.469 377.827 165.091 377.542 170.665C377.353 173.971 376.593 177.231 375.311 180.301C375.073 180.868 375.548 181.577 376.118 181.718C376.783 181.907 377.305 181.482 377.542 180.915C380.012 175.105 380.581 168.586 379.252 162.445Z" fill="#10C9E1"/>
<path d="M383.952 153.848C383.715 153.281 383.193 152.856 382.528 153.045C381.958 153.187 381.483 153.895 381.721 154.462C382.813 157.155 383.43 159.989 383.383 162.87C383.383 164.382 385.709 164.382 385.709 162.87C385.709 159.8 385.14 156.682 383.952 153.848Z" fill="#10C9E1"/>
<path d="M348.388 228.2C344.97 232.121 340.696 235.475 335.568 236.892C330.63 238.262 325.027 237.742 320.991 234.388C318.997 232.735 317.478 230.562 316.813 228.058C316.433 226.594 314.154 227.208 314.581 228.672C315.958 233.821 320.327 237.789 325.407 239.254C331.247 240.907 337.61 239.443 342.643 236.278C345.445 234.53 347.866 232.31 350.05 229.853C351 228.72 349.386 227.066 348.388 228.2Z" fill="#10C9E1"/>
<path d="M337.183 244.922C334.714 247.001 331.722 248.796 328.446 249.032C325.74 249.221 322.748 248.371 321.086 246.15C320.706 245.631 320.089 245.395 319.472 245.725C318.997 246.009 318.665 246.812 319.045 247.331C321.181 250.166 324.695 251.583 328.209 251.394C332.245 251.205 335.806 249.079 338.797 246.576C339.984 245.631 338.322 243.977 337.183 244.922Z" fill="#10C9E1"/>
<path d="M354.941 137.173C352.235 135.756 349.243 135 346.204 135C345.587 135 345.017 135.52 345.017 136.181C345.017 136.795 345.54 137.362 346.204 137.362C348.816 137.362 351.427 137.976 353.754 139.204C354.324 139.488 355.036 139.346 355.368 138.779C355.653 138.259 355.511 137.456 354.941 137.173Z" fill="#10C9E1"/>
</g>
</g>
<defs>
<clipPath id="clip0_214_1117">
<rect width="552" height="279" fill="white"/>
</clipPath>
<clipPath id="clip1_214_1117">
<rect width="132" height="118" fill="white" transform="translate(285 135)"/>
</clipPath>
</defs>
</svg>
