<svg width="471" height="226" viewBox="0 0 471 226" fill="none" xmlns="http://www.w3.org/2000/svg">
<g clip-path="url(#clip0_344_3743)">
<path d="M450.885 84.525C447.059 76.8502 410.25 25.3337 372.831 17.6928C335.413 10.0859 252.855 10.0859 252.855 10.0859C252.855 10.0859 117.505 13.2442 102.977 16.4364C88.4163 19.6285 38.807 53.9615 38.807 53.9615C38.807 53.9615 7.04357 80.1103 1.32073 89.9925C-4.40211 99.8407 8.93989 176.283 31.154 186.471C34.371 187.965 41.1774 189.018 50.4559 189.731C49.4061 196.082 49.3723 205.013 52.4199 216.967C53.1311 219.717 53.9776 222.604 55.0613 225.66C55.0613 225.66 54.7565 202.602 59.9375 190.309C119.875 193.161 247.64 186.471 266.332 186.471C289.427 186.471 422.305 182.023 431.854 169.288C441.336 156.519 454.678 92.1998 450.885 84.525Z" fill="#10C9E1"/>
<path d="M468.901 75.9335C465.074 68.2586 428.265 16.7422 390.846 9.10132C353.428 1.46045 270.87 1.46045 270.87 1.46045C270.87 1.46045 135.554 4.65264 120.992 7.81086C106.431 11.003 56.8222 45.336 56.8222 45.336C56.8222 45.336 25.0587 71.5187 19.3359 81.367C13.613 91.2152 26.955 167.658 49.1691 177.846C52.3861 179.34 59.1926 180.393 68.471 181.106C67.4213 187.456 67.3874 196.388 70.4351 208.341C71.1462 211.092 71.9928 213.979 73.0764 217.035C73.0764 217.035 72.7716 193.976 77.9527 181.683C137.89 184.536 265.655 177.846 284.347 177.846C307.442 177.846 440.32 173.397 449.87 160.662C459.385 147.927 472.693 83.6083 468.901 75.9335Z" fill="white"/>
<path d="M74.6678 226L71.7217 217.476C70.7059 214.488 69.7916 211.533 69.0466 208.681C66.5407 198.968 65.7957 190.139 66.8116 182.396C57.6348 181.615 51.6749 180.562 48.5595 179.136C37.9265 174.28 30.3073 156.247 25.8036 142.018C18.0828 117.635 14.2224 87.2078 18.0828 80.5857C23.8734 70.6696 54.5871 45.3019 55.8739 44.2152L55.9755 44.1473C58.0072 42.7549 106.025 9.61052 120.688 6.41833C135.215 3.22615 265.316 0.135838 270.836 0H270.87C271.683 0 354.003 0.101879 391.117 7.67483C411.266 11.7839 430.737 28.3222 443.503 41.4984C457.658 56.067 468.02 70.9412 470.187 75.2881C472.558 80.0424 469.273 100.588 465.785 116.719C462.06 133.8 456.236 154.549 450.987 161.545C449.429 163.65 444.858 166.843 423.423 170.171C410.588 172.174 393.352 173.974 372.256 175.502C335.48 178.151 296.233 179.306 284.347 179.306C279.336 179.306 266.535 179.781 248.825 180.46C201.654 182.226 122.923 185.181 78.9346 183.177C74.3292 195.267 74.5662 216.763 74.5662 217.001L74.6678 226ZM57.6686 46.5244C56.2802 47.679 26.0067 72.7751 20.5887 82.1139C19.4373 84.0835 18.7939 90.9094 20.4532 104.154C21.9432 116.141 24.9231 129.623 28.5803 141.203C34.7095 160.526 42.2271 173.091 49.7785 176.555C52.6908 177.88 59.0231 178.932 68.5725 179.679L70.164 179.815L69.8931 181.377C68.6063 189.052 69.2836 197.983 71.8233 207.968C72.2297 200.055 73.381 188.713 76.598 181.14L77.0044 180.189L78.0203 180.223C121.67 182.294 201.214 179.306 248.69 177.54C266.434 176.861 279.234 176.385 284.313 176.385C296.165 176.385 335.311 175.231 372.052 172.582C393.081 171.054 410.216 169.288 422.982 167.284C442.758 164.194 447.567 161.273 448.684 159.779C452.782 154.312 458.369 137.162 462.941 116.073C467.749 93.9997 468.9 79.2613 467.58 76.5785C465.751 72.9109 455.626 58.1725 441.404 43.536C428.908 30.6654 409.945 14.5007 390.508 10.5614C353.868 3.02239 272.495 2.92051 270.904 2.92051C268.77 2.95447 135.52 6.14666 121.297 9.27092C107.379 12.2933 59.5311 45.234 57.6686 46.5244Z" fill="#07171A"/>
</g>
<defs>
<clipPath id="clip0_344_3743">
<rect width="471" height="226" fill="white"/>
</clipPath>
</defs>
</svg>
