<svg width="471" height="226" viewBox="0 0 471 226" fill="none" xmlns="http://www.w3.org/2000/svg">
<g clip-path="url(#clip0_214_1122)">
<path d="M450.885 84.525C447.059 76.8502 410.25 25.3337 372.831 17.6928C335.413 10.0859 252.855 10.0859 252.855 10.0859C252.855 10.0859 117.505 13.2442 102.977 16.4364C88.4162 19.6285 38.807 53.9615 38.807 53.9615C38.807 53.9615 7.04351 80.1103 1.32067 89.9925C-4.40218 99.8407 8.93983 176.283 31.1539 186.471C34.3709 187.965 41.1774 189.018 50.4558 189.731C49.4061 196.082 49.3722 205.013 52.4199 216.967C53.131 219.717 53.9776 222.604 55.0612 225.66C55.0612 225.66 54.7564 202.602 59.9375 190.309C119.875 193.161 247.64 186.471 266.332 186.471C289.427 186.471 422.305 182.023 431.854 169.288C441.336 156.519 454.678 92.1998 450.885 84.525Z" fill="#07171A"/>
<path d="M468.9 75.9332C465.074 68.2584 428.265 16.7419 390.846 9.10108C353.428 1.46021 270.87 1.46021 270.87 1.46021C270.87 1.46021 135.553 4.65239 120.992 7.81062C106.431 11.0028 56.822 45.3358 56.822 45.3358C56.822 45.3358 25.0586 71.5185 19.3357 81.3667C13.6129 91.215 26.9549 167.658 49.169 177.845C52.386 179.34 59.1925 180.392 68.4709 181.106C67.4212 187.456 67.3873 196.387 70.435 208.341C71.1461 211.092 71.9927 213.978 73.0763 217.035C73.0763 217.035 72.7715 193.976 77.9525 181.683C137.89 184.535 265.655 177.845 284.347 177.845C307.442 177.845 440.32 173.397 449.87 160.662C459.385 147.927 472.693 83.6081 468.9 75.9332Z" fill="white"/>
<path d="M74.6678 226L71.7217 217.476C70.7059 214.488 69.7916 211.533 69.0466 208.681C66.5407 198.968 65.7957 190.139 66.8116 182.396C57.6348 181.615 51.6749 180.562 48.5595 179.136C37.9265 174.28 30.3073 156.247 25.8036 142.018C18.0828 117.635 14.2224 87.2078 18.0828 80.5857C23.8734 70.6696 54.5871 45.3019 55.8739 44.2152L55.9755 44.1473C58.0072 42.7549 106.025 9.61052 120.688 6.41833C135.215 3.22615 265.316 0.135838 270.836 0H270.87C271.683 0 354.003 0.101879 391.117 7.67483C411.266 11.7839 430.737 28.3222 443.503 41.4984C457.658 56.067 468.02 70.9412 470.187 75.2881C472.558 80.0424 469.273 100.588 465.785 116.719C462.06 133.8 456.236 154.549 450.987 161.545C449.429 163.65 444.858 166.843 423.423 170.171C410.588 172.174 393.352 173.974 372.256 175.502C335.48 178.151 296.233 179.306 284.347 179.306C279.336 179.306 266.535 179.781 248.825 180.46C201.654 182.226 122.923 185.181 78.9346 183.177C74.3292 195.267 74.5662 216.763 74.5662 217.001L74.6678 226ZM57.6686 46.5244C56.2802 47.679 26.0067 72.7751 20.5887 82.1139C19.4373 84.0835 18.7939 90.9094 20.4532 104.154C21.9432 116.141 24.9231 129.623 28.5803 141.203C34.7095 160.526 42.2271 173.091 49.7785 176.555C52.6908 177.88 59.0231 178.932 68.5725 179.679L70.164 179.815L69.8931 181.377C68.6063 189.052 69.2836 197.983 71.8233 207.968C72.2297 200.055 73.381 188.713 76.598 181.14L77.0044 180.189L78.0203 180.223C121.67 182.294 201.214 179.306 248.69 177.54C266.434 176.861 279.234 176.385 284.313 176.385C296.165 176.385 335.311 175.231 372.052 172.582C393.081 171.054 410.216 169.288 422.982 167.284C442.758 164.194 447.567 161.273 448.684 159.779C452.782 154.312 458.369 137.162 462.941 116.073C467.749 93.9997 468.9 79.2613 467.58 76.5785C465.751 72.9109 455.626 58.1725 441.404 43.536C428.908 30.6654 409.945 14.5007 390.508 10.5614C353.868 3.02239 272.495 2.92051 270.904 2.92051C268.77 2.95447 135.52 6.14666 121.297 9.27092C107.379 12.2933 59.5311 45.234 57.6686 46.5244Z" fill="#07171A"/>
<g clip-path="url(#clip1_214_1122)">
<path d="M413.617 96.4783C407.85 90.0242 399.161 93.657 393.849 98.6425C390.472 101.812 387.816 105.599 385.957 109.773C385.122 107.184 383.946 104.749 382.124 102.585C378.064 97.7923 371.69 95.8213 365.999 98.7198C353.933 104.826 355.83 122.952 360.686 133.232C363.684 139.531 368.427 144.903 374.27 148.614C377.078 150.43 379.696 145.87 376.888 144.092C366.719 137.638 360.003 124.266 362.66 112.053C363.836 106.179 369.186 99.9566 375.446 103.667C381.555 107.261 382.2 115.3 382.731 121.715C382.997 125.116 387.55 125.077 387.892 121.715C388.537 115.531 391.117 109.502 395.139 104.826C398.44 101 405.725 94.7392 410.202 100.42C413.959 105.213 411.606 112.903 409.595 117.966C407.508 123.222 404.245 127.976 400.299 131.957C395.784 136.44 390.32 139.841 384.287 141.773C381.138 142.778 382.466 147.841 385.653 146.836C399.085 142.546 409.975 131.918 414.907 118.507C417.411 111.512 418.967 102.507 413.617 96.4783Z" fill="#10C9E1"/>
<path d="M423.141 107.532C422.534 115.261 419.878 122.797 415.628 129.251C414.414 131.068 413.086 132.768 411.644 134.391C410.847 135.28 412.137 136.633 412.972 135.744C418.36 129.754 422.154 122.333 423.976 114.411C424.469 112.131 424.81 109.85 425 107.532C425.114 106.295 423.217 106.333 423.141 107.532Z" fill="#10C9E1"/>
<path d="M407.888 139.763C407.508 139.415 406.977 139.415 406.56 139.763C405.649 140.575 404.776 141.387 403.866 142.198C403.486 142.546 403.524 143.203 403.866 143.551C404.245 143.899 404.776 143.899 405.194 143.551C406.104 142.739 406.977 141.928 407.888 141.116C408.267 140.768 408.267 140.072 407.888 139.763Z" fill="#10C9E1"/>
<path d="M356.133 100.73C356.437 100.343 356.513 99.7633 356.133 99.3769C355.792 99.029 355.147 98.9904 354.805 99.3769C349.987 105.56 348.051 113.754 349.455 121.522C349.835 123.725 350.518 125.85 351.428 127.86C351.656 128.324 352.301 128.44 352.718 128.208C353.174 127.937 353.25 127.358 353.06 126.894C350.1 120.362 350.176 112.44 353.06 105.908C353.857 104.053 354.881 102.314 356.133 100.73Z" fill="#10C9E1"/>
<path d="M357.12 136.208C357.272 136.44 357.12 136.169 357.082 136.13C357.044 136.053 356.968 135.976 356.93 135.937C356.816 135.783 356.74 135.667 356.627 135.512C356.437 135.242 356.285 134.932 356.133 134.662C355.982 134.353 355.83 134.082 355.678 133.773C355.64 133.696 355.602 133.618 355.564 133.541C355.64 133.812 355.564 133.541 355.526 133.464C355.45 133.309 355.412 133.155 355.337 132.961C355.185 132.498 354.691 132.15 354.198 132.304C353.743 132.459 353.363 132.961 353.553 133.464C354.084 134.971 354.843 136.324 355.792 137.56C355.944 137.754 356.247 137.831 356.437 137.831C356.665 137.831 356.93 137.715 357.082 137.56C357.234 137.367 357.347 137.135 357.347 136.903C357.385 136.594 357.272 136.401 357.12 136.208Z" fill="#10C9E1"/>
</g>
</g>
<defs>
<clipPath id="clip0_214_1122">
<rect width="471" height="226" fill="white"/>
</clipPath>
<clipPath id="clip1_214_1122">
<rect width="76" height="56" fill="white" transform="translate(349 93)"/>
</clipPath>
</defs>
</svg>
