<svg width="539" height="347" viewBox="0 0 539 347" fill="none" xmlns="http://www.w3.org/2000/svg">
<g clip-path="url(#clip0_2016_5328)">
<path d="M450.885 205.525C447.059 197.85 410.25 146.334 372.831 138.693C335.413 131.086 252.855 131.086 252.855 131.086C252.855 131.086 117.504 134.244 102.977 137.436C88.4162 140.629 38.807 174.962 38.807 174.962C38.807 174.962 7.04349 201.11 1.32065 210.992C-4.40219 220.841 8.93982 297.283 31.1539 307.471C34.3709 308.965 41.1774 310.018 50.4558 310.731C49.4061 317.082 49.3722 326.013 52.4199 337.967C53.131 340.717 53.9776 343.604 55.0612 346.66C55.0612 346.66 54.7564 323.602 59.9374 311.309C119.875 314.161 247.64 307.471 266.332 307.471C289.427 307.471 422.305 303.023 431.854 290.288C441.336 277.519 454.678 213.2 450.885 205.525Z" fill="#10C9E1"/>
<path d="M468.9 196.933C465.074 189.258 428.265 137.742 390.846 130.101C353.428 122.46 270.87 122.46 270.87 122.46C270.87 122.46 135.553 125.652 120.992 128.811C106.431 132.003 56.8221 166.336 56.8221 166.336C56.8221 166.336 25.0586 192.519 19.3358 202.367C13.6129 212.215 26.9549 288.658 49.169 298.845C52.386 300.34 59.1925 301.392 68.4709 302.106C67.4212 308.456 67.3873 317.387 70.435 329.341C71.1461 332.092 71.9927 334.978 73.0763 338.035C73.0763 338.035 72.7715 314.976 77.9525 302.683C137.89 305.535 265.655 298.845 284.347 298.845C307.442 298.845 440.32 294.397 449.87 281.662C459.385 268.927 472.693 204.608 468.9 196.933Z" fill="white"/>
<path d="M74.6678 347L71.7218 338.476C70.7059 335.488 69.7916 332.533 69.0466 329.681C66.5407 319.968 65.7957 311.139 66.8116 303.396C57.6348 302.615 51.6749 301.562 48.5595 300.136C37.9265 295.28 30.3073 277.247 25.8036 263.018C18.0828 238.635 14.2224 208.208 18.0828 201.586C23.8734 191.67 54.5871 166.302 55.8739 165.215L55.9755 165.147C58.0073 163.755 106.025 130.611 120.688 127.418C135.215 124.226 265.316 121.136 270.836 121H270.87C271.683 121 354.003 121.102 391.117 128.675C411.266 132.784 430.737 149.322 443.503 162.498C457.658 177.067 468.02 191.941 470.187 196.288C472.558 201.042 469.273 221.588 465.785 237.719C462.06 254.8 456.236 275.549 450.987 282.545C449.429 284.65 444.858 287.843 423.423 291.171C410.588 293.174 393.352 294.974 372.256 296.502C335.48 299.151 296.233 300.306 284.347 300.306C279.336 300.306 266.535 300.781 248.825 301.46C201.654 303.226 122.923 306.181 78.9346 304.177C74.3292 316.267 74.5662 337.763 74.5662 338.001L74.6678 347ZM57.6686 167.524C56.2802 168.679 26.0068 193.775 20.5887 203.114C19.4373 205.084 18.7939 211.909 20.4532 225.154C21.9432 237.141 24.9231 250.623 28.5803 262.203C34.7095 281.526 42.2271 294.091 49.7786 297.555C52.6908 298.88 59.0231 299.932 68.5725 300.679L70.1641 300.815L69.8932 302.377C68.6064 310.052 69.2836 318.983 71.8234 328.968C72.2297 321.055 73.381 309.713 76.598 302.14L77.0044 301.189L78.0203 301.223C121.67 303.294 201.214 300.306 248.69 298.54C266.434 297.861 279.234 297.385 284.313 297.385C296.165 297.385 335.311 296.231 372.052 293.582C393.081 292.054 410.216 290.288 422.982 288.284C442.758 285.194 447.567 282.273 448.684 280.779C452.782 275.312 458.369 258.162 462.941 237.073C467.749 215 468.9 200.261 467.58 197.579C465.751 193.911 455.626 179.173 441.404 164.536C428.908 151.665 409.945 135.501 390.508 131.561C353.868 124.022 272.495 123.921 270.904 123.921C268.77 123.954 135.52 127.147 121.297 130.271C107.379 133.293 59.5311 166.234 57.6686 167.524Z" fill="#07171A"/>
</g>
<g clip-path="url(#clip1_2016_5328)">
<path d="M385.219 83.4842C384.395 68.8567 383.521 54.2032 382.697 39.5757C382.406 34.6483 374.749 35.1183 375.041 40.0458C375.864 54.6733 376.739 69.3268 377.562 83.9543C377.827 88.9333 385.484 88.4632 385.219 83.4842Z" fill="#07171A"/>
<path d="M424.202 87.3004C425.683 83.9768 427.164 80.6532 428.645 77.3296C430.646 72.8466 423.777 69.3206 421.802 73.8811C420.321 77.2047 418.839 80.5283 417.358 83.8519C415.331 88.3864 422.175 91.8349 424.202 87.3004Z" fill="#07171A"/>
<path d="M506.853 61.0513C488.15 72.8162 470.164 85.718 452.973 99.602C449.147 102.713 453.299 109.198 457.151 106.036C474.342 92.1517 492.328 79.2499 511.031 67.485C515.216 64.8133 511.039 58.3796 506.853 61.0513Z" fill="#07171A"/>
<path d="M508.216 118.911C500.683 120.672 493.15 122.432 485.644 124.14C480.82 125.263 483.268 132.569 488.04 131.42C495.573 129.66 503.105 127.9 510.612 126.192C515.487 125.095 513.039 117.789 508.216 118.911Z" fill="#07171A"/>
<path d="M491.305 91.2673C483.588 93.9039 476.229 97.6249 469.536 102.328C468.038 103.381 469.55 105.758 471.048 104.705C477.534 100.156 484.636 96.5635 492.145 93.9521C493.926 93.3635 493.008 90.7043 491.305 91.2673Z" fill="#07171A"/>
<path d="M486.447 101.805C486.293 101.469 486.062 101.159 485.753 101.003C485.445 100.848 485.033 100.769 484.697 100.923C483.716 101.333 482.735 101.743 481.728 102.205C481.573 102.256 481.393 102.359 481.263 102.488C481.083 102.59 481.005 102.745 480.927 102.899C480.771 103.209 480.744 103.647 480.846 103.957C480.999 104.292 481.23 104.603 481.539 104.758C481.847 104.914 482.259 104.992 482.595 104.838C483.576 104.428 484.557 104.018 485.564 103.556C485.719 103.505 485.899 103.402 486.029 103.274C486.21 103.171 486.287 103.017 486.365 102.862C486.521 102.553 486.6 102.14 486.447 101.805Z" fill="#07171A"/>
<path d="M371.47 65.0568C370.953 58.5295 370.358 52.0278 369.84 45.5005C369.666 43.6687 366.856 43.8677 367.03 45.6995C367.548 52.2268 368.143 58.7285 368.66 65.2559C368.86 67.0362 371.644 66.8887 371.47 65.0568Z" fill="#07171A"/>
<path d="M373.078 83.633C373.501 80.7452 373.331 77.8815 372.62 75.0681C372.416 74.3195 371.515 73.9303 370.819 74.1606C370.044 74.4165 369.732 75.1637 369.91 75.9638C370.012 76.2736 370.062 76.5575 370.113 76.8414L370.138 76.9188C370.138 76.9188 370.138 77.0478 370.189 77.0737C370.24 77.2286 370.24 77.3576 370.265 77.564C370.34 78.1833 370.415 78.8025 370.464 79.4733C370.488 80.0666 370.486 80.7115 370.483 81.3563C370.509 81.4338 370.483 81.4853 370.482 81.6143C370.482 81.6143 370.482 81.6143 370.456 81.6658C370.456 81.7948 370.429 81.9753 370.429 82.1042C370.402 82.4137 370.349 82.7747 370.322 83.0841C370.217 83.8061 370.652 84.6069 371.425 84.7378C372.146 84.8429 372.946 84.4065 373.078 83.633Z" fill="#07171A"/>
</g>
<defs>
<clipPath id="clip0_2016_5328">
<rect width="471" height="226" fill="white" transform="translate(0 121)"/>
</clipPath>
<clipPath id="clip1_2016_5328">
<rect width="166" height="84" fill="white" transform="translate(389.8) rotate(26.7439)"/>
</clipPath>
</defs>
</svg>
