<svg width="492" height="335" viewBox="0 0 492 335" fill="none" xmlns="http://www.w3.org/2000/svg">
<g clip-path="url(#clip0_2020_2155)">
<path d="M451.885 116.525C448.058 108.85 411.249 57.3337 373.831 49.6928C336.412 42.0859 253.854 42.0859 253.854 42.0859C253.854 42.0859 118.504 45.2442 103.977 48.4364C89.4158 51.6285 39.8065 85.9615 39.8065 85.9615C39.8065 85.9615 8.04308 112.11 2.32024 121.992C-3.4026 131.841 9.93941 208.283 32.1535 218.471C35.3705 219.965 42.1769 221.018 51.4554 221.731C50.4057 228.082 50.3718 237.013 53.4195 248.967C54.1306 251.717 54.9772 254.604 56.0608 257.66C56.0608 257.66 55.756 234.602 60.937 222.309C120.874 225.161 248.639 218.471 267.332 218.471C290.426 218.471 423.305 214.023 432.854 201.288C442.336 188.519 455.678 124.2 451.885 116.525Z" fill="#10C9E1"/>
<path d="M469.901 107.933C466.074 100.259 429.265 48.7422 391.846 41.1013C354.428 33.4604 271.87 33.4604 271.87 33.4604C271.87 33.4604 136.554 36.6526 121.992 39.8109C107.431 43.003 57.8222 77.336 57.8222 77.336C57.8222 77.336 26.0587 103.519 20.3359 113.367C14.613 123.215 27.955 199.658 50.1691 209.846C53.3861 211.34 60.1926 212.393 69.471 213.106C68.4213 219.456 68.3874 228.388 71.4351 240.341C72.1462 243.092 72.9928 245.979 74.0764 249.035C74.0764 249.035 73.7716 225.976 78.9527 213.683C138.89 216.536 266.655 209.846 285.347 209.846C308.442 209.846 441.32 205.397 450.87 192.662C460.385 179.927 473.693 115.608 469.901 107.933Z" fill="white"/>
<path d="M75.6678 258L72.7217 249.476C71.7059 246.488 70.7916 243.533 70.0466 240.681C67.5407 230.968 66.7957 222.139 67.8116 214.396C58.6348 213.615 52.6749 212.562 49.5595 211.136C38.9265 206.28 31.3073 188.247 26.8036 174.018C19.0828 149.635 15.2224 119.208 19.0828 112.586C24.8734 102.67 55.5871 77.3019 56.8739 76.2152L56.9755 76.1473C59.0072 74.7549 107.025 41.6105 121.688 38.4183C136.215 35.2261 266.316 32.1358 271.836 32H271.87C272.683 32 355.003 32.1019 392.117 39.6748C412.266 43.7839 431.737 60.3222 444.503 73.4984C458.658 88.067 469.02 102.941 471.187 107.288C473.558 112.042 470.273 132.588 466.785 148.719C463.06 165.8 457.236 186.549 451.987 193.545C450.429 195.65 445.858 198.843 424.423 202.171C411.588 204.174 394.352 205.974 373.256 207.502C336.48 210.151 297.233 211.306 285.347 211.306C280.336 211.306 267.535 211.781 249.825 212.46C202.654 214.226 123.923 217.181 79.9346 215.177C75.3292 227.267 75.5662 248.763 75.5662 249.001L75.6678 258ZM58.6686 78.5244C57.2802 79.679 27.0067 104.775 21.5887 114.114C20.4373 116.084 19.7939 122.909 21.4532 136.154C22.9432 148.141 25.9231 161.623 29.5803 173.203C35.7095 192.526 43.2271 205.091 50.7785 208.555C53.6908 209.88 60.0231 210.932 69.5725 211.679L71.164 211.815L70.8931 213.377C69.6063 221.052 70.2836 229.983 72.8233 239.968C73.2297 232.055 74.381 220.713 77.598 213.14L78.0044 212.189L79.0203 212.223C122.67 214.294 202.214 211.306 249.69 209.54C267.434 208.861 280.234 208.385 285.313 208.385C297.165 208.385 336.311 207.231 373.052 204.582C394.081 203.054 411.216 201.288 423.982 199.284C443.758 196.194 448.567 193.273 449.684 191.779C453.782 186.312 459.369 169.162 463.941 148.073C468.749 126 469.9 111.261 468.58 108.579C466.751 104.911 456.626 90.1725 442.404 75.536C429.908 62.6654 410.945 46.5007 391.508 42.5614C354.868 35.0224 273.495 34.9205 271.904 34.9205C269.77 34.9545 136.52 38.1467 122.297 41.2709C108.379 44.2933 60.5311 77.234 58.6686 78.5244Z" fill="#07171A"/>
<g clip-path="url(#clip1_2020_2155)">
<path d="M338.219 71.4842C337.396 56.8567 336.521 42.2032 335.698 27.5757C335.407 22.6483 327.75 23.1183 328.041 28.0458C328.865 42.6733 329.739 57.3268 330.563 71.9543C330.828 76.9333 338.485 76.4632 338.219 71.4842Z" fill="#10C9E1"/>
<path d="M377.203 75.3004C378.684 71.9768 380.165 68.6532 381.647 65.3296C383.648 60.8466 376.779 57.3206 374.803 61.8811C373.322 65.2047 371.841 68.5283 370.359 71.8519C368.333 76.3864 375.176 79.8349 377.203 75.3004Z" fill="#10C9E1"/>
<path d="M459.854 49.0513C441.151 60.8162 423.164 73.718 405.974 87.602C402.148 90.7131 406.3 97.1983 410.152 94.0357C427.342 80.1517 445.328 67.2499 464.032 55.485C468.217 52.8133 464.039 46.3796 459.854 49.0513Z" fill="#10C9E1"/>
<path d="M461.217 106.912C453.684 108.672 446.151 110.432 438.645 112.14C433.821 113.263 436.269 120.569 441.041 119.421C448.574 117.661 456.106 115.9 463.613 114.192C468.488 113.095 466.041 105.789 461.217 106.912Z" fill="#10C9E1"/>
<path d="M444.306 79.2675C436.59 81.9042 429.23 85.6251 422.538 90.328C421.039 91.3817 422.551 93.7587 424.05 92.705C430.536 88.1564 437.637 84.5637 445.147 81.9523C446.927 81.3637 446.009 78.7045 444.306 79.2675Z" fill="#10C9E1"/>
<path d="M439.447 89.8044C439.294 89.4687 439.063 89.1586 438.754 89.003C438.446 88.8474 438.033 88.769 437.698 88.9228C436.717 89.333 435.736 89.7431 434.729 90.2048C434.574 90.256 434.393 90.3587 434.264 90.4873C434.083 90.59 434.005 90.7446 433.928 90.8992C433.772 91.2083 433.744 91.6467 433.846 91.9565C434 92.2922 434.231 92.6024 434.539 92.7579C434.848 92.9135 435.26 92.992 435.596 92.8381C436.577 92.4279 437.558 92.0178 438.565 91.5561C438.719 91.5049 438.9 91.4022 439.03 91.2736C439.21 91.1709 439.288 91.0163 439.366 90.8618C439.522 90.5527 439.601 90.1401 439.447 89.8044Z" fill="#10C9E1"/>
<path d="M324.471 53.0571C323.953 46.5298 323.358 40.0281 322.841 33.5007C322.667 31.6689 319.857 31.8679 320.03 33.6998C320.548 40.2271 321.143 46.7288 321.66 53.2561C321.86 55.0364 324.644 54.8889 324.471 53.0571Z" fill="#10C9E1"/>
<path d="M326.079 71.633C326.502 68.7452 326.332 65.8815 325.62 63.0681C325.417 62.3195 324.516 61.9303 323.819 62.1606C323.045 62.4165 322.733 63.1637 322.911 63.9638C323.013 64.2736 323.063 64.5575 323.114 64.8414L323.139 64.9188C323.139 64.9188 323.139 65.0478 323.19 65.0737C323.241 65.2286 323.241 65.3576 323.266 65.564C323.341 66.1833 323.416 66.8025 323.465 67.4733C323.489 68.0666 323.486 68.7115 323.484 69.3563C323.51 69.4338 323.484 69.4853 323.483 69.6143C323.483 69.6143 323.483 69.6143 323.457 69.6658C323.457 69.7948 323.43 69.9753 323.43 70.1042C323.403 70.4137 323.35 70.7747 323.323 71.0841C323.217 71.8061 323.653 72.6069 324.425 72.7378C325.147 72.8429 325.947 72.4065 326.079 71.633Z" fill="#10C9E1"/>
</g>
</g>
<g clip-path="url(#clip2_2020_2155)">
<path d="M339.685 332.616C350.313 325.449 358.627 315.466 363.996 303.872C365.528 300.553 360.107 297.566 358.227 300.815C355.618 305.418 352.678 309.731 349.399 313.865C352.404 301.96 355.428 290.1 358.433 278.196C360.513 270.052 362.546 261.927 364.626 253.783C365.461 250.588 365.975 246.994 367.608 244.057C369.296 240.992 371.156 241.243 373.762 243.201C379.414 247.416 383.786 252.679 387.647 258.52C391.103 263.625 396.727 267.904 402.911 263.969C405.692 262.153 407.536 259.342 409.288 256.568C411.223 253.456 413.094 250.317 414.901 247.151C418.56 240.8 421.879 234.27 424.814 227.578C431.531 212.475 436.515 196.647 439.868 180.475C440.692 176.332 434.169 175.75 433.308 179.802C430.372 194.112 425.952 208.178 420.23 221.66C417.378 228.424 414.186 235.009 410.674 241.459C408.986 244.524 407.189 247.58 405.372 250.591C403.793 253.136 402.025 257.186 399.207 258.646C396.691 259.931 394.807 257.256 393.558 255.488C391.508 252.669 389.734 249.738 387.447 247.121C385.427 244.767 383.214 242.595 380.901 240.571C378.34 238.329 375.311 235.59 371.765 235.124C365.159 234.205 361.417 240.484 359.909 245.962C357.646 253.916 355.832 262.058 353.807 270.073C350.012 285.155 346.153 300.21 342.358 315.291C342.303 311.082 341.872 306.866 341.102 302.734C340.333 298.602 333.804 299.716 334.619 303.829C336.26 312.474 336.17 321.186 334.339 329.811C333.649 332.842 337.582 333.998 339.685 332.616Z" fill="#10C9E1"/>
<path d="M418.191 256.185C424.869 248.081 430.409 239.01 434.601 229.375C435.776 226.624 436.842 223.864 437.779 221.051C438.252 219.589 436.051 218.63 435.533 220.11C432.211 229.921 427.56 239.213 421.579 247.722C419.899 250.149 418.118 252.459 416.227 254.759C415.25 255.897 417.186 257.386 418.191 256.185Z" fill="#10C9E1"/>
<path d="M439.395 210.45C439.697 210.539 440.045 210.609 440.302 210.453C440.576 210.341 440.86 210.12 440.951 209.819C441.424 208.358 441.915 206.942 442.342 205.499C442.433 205.197 442.46 204.869 442.35 204.596C442.239 204.324 441.973 204.061 441.716 203.954C441.414 203.865 441.084 203.84 440.809 203.951C440.535 204.063 440.251 204.284 440.16 204.585C439.687 206.046 439.196 207.462 438.768 208.905C438.677 209.207 438.651 209.535 438.761 209.808C438.826 210.099 439.092 210.361 439.395 210.45Z" fill="#10C9E1"/>
<path d="M352.37 233.942C354.028 229.884 355.722 225.389 359.105 222.43C361.893 219.977 365.993 218.525 369.487 220.177C370.918 220.814 371.829 218.593 370.444 217.937C366.308 216.017 361.347 217.447 357.955 220.251C353.996 223.497 352.001 228.432 350.124 233.002C349.541 234.455 351.787 235.396 352.37 233.942Z" fill="#10C9E1"/>
</g>
<defs>
<clipPath id="clip0_2020_2155">
<rect width="492" height="258" fill="white"/>
</clipPath>
<clipPath id="clip1_2020_2155">
<rect width="166" height="84" fill="white" transform="translate(342.801 -12) rotate(26.7439)"/>
</clipPath>
<clipPath id="clip2_2020_2155">
<rect width="155" height="108" fill="white" transform="translate(479.225 276.084) rotate(157.927)"/>
</clipPath>
</defs>
</svg>
