<svg width="347" height="192" viewBox="0 0 347 192" fill="none" xmlns="http://www.w3.org/2000/svg">
<g clip-path="url(#clip0_2003_2507)">
<path d="M38.909 126.959L47.1783 117.013L38.909 116.231L12.5345 85.9136L19.1281 21.6304L73.6617 10.446L271.253 13.443L312.491 6.51514L343 40.6113V116.231L285.725 123.441L215.958 129.153L121.166 124.114L77.7092 119.945L51.8569 129.153L66.067 150.479H44.4364L51.8569 172.196L31.8802 142.704H49.3326L38.909 126.959Z" fill="#07171A"/>
<path d="M27.332 121.443L35.6012 111.518L27.332 110.715L0.957367 80.3975L7.55103 16.1143L62.0846 4.95157L259.676 7.94856L300.892 0.999023L331.423 35.1169V110.715L274.147 117.947L204.381 123.637L109.568 118.598L66.1322 114.428L40.2799 123.637L54.4899 144.963H32.8593L40.2799 166.68L20.3031 137.188H37.7338L27.332 121.443Z" fill="white"/>
<path d="M43.4353 173L34.165 145.897H56.2309L41.7379 124.114L66.2628 115.384L109.502 119.532H109.524L204.381 124.57H204.446L274.256 118.881H274.278L332.359 111.54V34.7477L301.262 0L259.611 7.01469L61.9976 4.0177L61.8888 4.03942L6.68063 15.3541L-0.0218201 80.7232L26.8532 111.627L33.7298 112.278L26.1569 121.378L35.993 136.254H18.5405L43.4353 173ZM52.7491 144.029H31.5537L37.1463 160.361L22.0658 138.1H39.4748L28.4854 121.487L37.4292 110.737L27.789 109.803L1.93668 80.0717L8.39978 16.8743L62.1499 5.86367L259.742 8.88238L300.544 2.01971L330.487 35.4644V109.89L274.061 117.013L204.359 122.703L109.655 117.664L66.0234 113.473L38.8654 123.137L52.7491 144.029Z" fill="#07171A"/>
</g>
<g clip-path="url(#clip1_2003_2507)">
<path d="M329.349 156.841C326.246 147.399 319.08 140.089 309.904 136.347C307.5 135.389 305.01 134.693 302.519 134.258C304.66 126.73 305.141 118.724 302.475 111.196C299.023 101.362 291.114 94.1826 280.67 92.5726C258.254 89.1786 235.225 104.234 225.35 123.684C223.645 127.078 228.758 130.081 230.462 126.687C237.803 112.284 251.655 101.71 267.605 98.7514C276.257 97.1415 285.914 98.0988 292.119 104.93C297.931 111.283 299.373 120.551 297.8 128.775C297.494 130.472 297.057 132.169 296.532 133.866C291.682 133.91 286.832 134.998 282.374 137.173C273.985 141.264 267.43 148.922 264.59 157.755C263.191 162.063 262.012 168.068 266.25 171.244C270.052 174.116 275.208 172.071 278.616 169.547C287.356 163.02 294.522 153.273 299.11 143.483C299.635 142.351 300.159 141.177 300.64 140.002C301.426 140.089 302.169 140.219 302.912 140.393C311.652 142.351 319.342 148.095 322.925 156.406C326.552 164.891 325.766 174.856 320.959 182.688C318.949 185.951 324.105 188.91 326.072 185.69C331.272 177.118 332.495 166.371 329.349 156.841ZM276.126 163.89C273.941 165.761 268.697 168.981 269.265 163.716C270.62 150.967 281.937 141.307 294.216 139.915C291.944 145.006 288.885 149.836 285.433 154.143C282.637 157.668 279.534 160.931 276.126 163.89Z" fill="#10C9E1"/>
<path d="M341.366 168.068C336.253 172.854 331.14 177.641 325.984 182.427C325.11 183.254 323.843 184.124 323.013 185.038C323.056 184.429 322.925 183.602 322.969 183.254C323.1 179.86 323.275 176.466 323.406 173.072C323.581 169.286 317.638 169.286 317.463 173.072C317.288 177.423 316.633 182.035 316.939 186.387C317.245 190.433 320.784 192.957 324.63 191.13C326.509 190.216 327.994 188.649 329.48 187.257C331.228 185.647 332.976 183.994 334.724 182.384C338.35 179.033 341.934 175.639 345.561 172.289C348.357 169.634 344.162 165.457 341.366 168.068Z" fill="#10C9E1"/>
<path d="M311.739 108.281C310.647 103.147 308.068 98.4037 304.485 94.6181C302.519 92.5295 300.247 90.7454 297.756 89.353C296.532 88.6568 295.484 90.5279 296.663 91.1806C300.771 93.5303 304.223 96.9678 306.626 101.058C309.248 105.54 310.428 110.718 310.166 115.852C309.991 118.898 309.292 121.901 308.112 124.729C307.894 125.251 308.331 125.904 308.855 126.034C309.467 126.208 309.947 125.817 310.166 125.295C312.438 119.943 312.962 113.938 311.739 108.281Z" fill="#10C9E1"/>
<path d="M316.065 100.362C315.846 99.8396 315.366 99.4479 314.754 99.622C314.23 99.7525 313.793 100.405 314.011 100.927C315.016 103.408 315.584 106.018 315.541 108.673C315.541 110.065 317.682 110.065 317.682 108.673C317.682 105.844 317.157 102.972 316.065 100.362Z" fill="#10C9E1"/>
<path d="M283.336 168.851C280.19 172.462 276.257 175.552 271.538 176.857C266.993 178.119 261.837 177.64 258.122 174.551C256.287 173.028 254.889 171.027 254.277 168.72C253.928 167.371 251.83 167.937 252.223 169.286C253.491 174.029 257.511 177.684 262.186 179.033C267.561 180.556 273.416 179.207 278.048 176.292C280.627 174.682 282.855 172.637 284.865 170.374C285.739 169.33 284.253 167.807 283.336 168.851Z" fill="#10C9E1"/>
<path d="M273.023 184.254C270.751 186.169 267.998 187.823 264.983 188.04C262.492 188.214 259.739 187.431 258.21 185.386C257.86 184.907 257.292 184.69 256.724 184.994C256.287 185.255 255.981 185.995 256.331 186.474C258.297 189.084 261.531 190.39 264.764 190.216C268.479 190.042 271.756 188.084 274.509 185.777C275.601 184.907 274.072 183.384 273.023 184.254Z" fill="#10C9E1"/>
<path d="M289.366 85.0016C286.875 83.6962 284.122 83 281.326 83C280.758 83 280.233 83.4786 280.233 84.0878C280.233 84.6535 280.714 85.1756 281.326 85.1756C283.729 85.1756 286.132 85.7413 288.274 86.8727C288.798 87.1337 289.453 87.0032 289.759 86.481C290.021 86.0024 289.89 85.2627 289.366 85.0016Z" fill="#10C9E1"/>
</g>
<defs>
<clipPath id="clip0_2003_2507">
<rect width="343" height="173" fill="white" transform="matrix(-1 0 0 1 343 0)"/>
</clipPath>
<clipPath id="clip1_2003_2507">
<rect width="121.478" height="108.695" fill="white" transform="translate(225 83)"/>
</clipPath>
</defs>
</svg>
