<svg width="607" height="381" viewBox="0 0 607 381" fill="none" xmlns="http://www.w3.org/2000/svg">
<path d="M475.527 307.644L464.091 292.635L475.527 291.455L512 245.709L502.882 148.711L427.467 131.834L154.218 136.356L97.1911 125.903L55 177.351V291.455L134.206 302.335L230.686 310.953L361.773 303.351L421.87 297.059L457.621 310.953L437.97 343.133H467.883L457.621 375.903L485.247 331.402H461.112L475.527 307.644Z" fill="#07171A"/>
<path d="M491.201 299.081L479.775 284.119L491.201 282.908L527.647 237.203L518.535 140.293L443.179 123.465L170.14 127.983L113.186 117.506L70.9974 168.94V282.908L150.143 293.81L246.549 302.388L377.565 294.792L437.586 288.506L473.31 302.388L453.674 334.539H483.564L473.31 367.278L500.914 322.818H476.828L491.201 299.081Z" fill="white"/>
<path d="M468.949 376.806L481.759 335.946H451.268L471.295 303.108L437.405 289.947L377.656 296.2H377.625L246.549 303.796H246.458L149.992 295.218H149.962L69.7044 284.152V168.384L112.675 116L170.23 126.575L443.299 122.057L443.45 122.09L519.738 139.147L529 237.694L491.863 284.283L482.361 285.265L492.825 298.983L479.233 321.41H503.35L468.949 376.806ZM456.079 333.131H485.368L477.64 357.751L498.479 324.193H474.422L489.608 299.147L477.249 282.941L490.57 281.533L526.294 236.712L517.363 141.439L443.089 124.84L170.049 129.391L113.667 119.045L72.2905 169.464V281.664L150.263 292.402L246.579 300.98L377.445 293.385L437.736 287.066L475.264 301.635L456.079 333.131Z" fill="#07171A"/>
<g clip-path="url(#clip0_2010_17580)">
<path d="M184.31 78.0534C178.014 81.623 169.996 81.8661 163.761 77.9241C157.313 73.7877 154.05 66.1563 154.947 58.6568C155.413 54.5724 149.401 53.4328 148.006 57.1928C145.862 63.2149 143.511 70.2867 137.813 73.8649C132.09 77.5146 126.882 75.3339 123.104 70.2073C118.74 64.2348 115.566 57.0354 112.529 50.3643C109.167 42.899 106.311 35.2496 103.912 27.4393C102.769 23.7145 97.3175 23.4922 96.8484 27.8158C95.0819 44.1072 99.8159 62.5499 90.9888 77.3756C87.2378 83.6376 81.2601 88.3602 73.7253 88.2514C66.1905 88.1426 59.2858 84.167 53.6605 79.3965C50.73 76.8899 47.2975 80.9793 48.4753 83.9152C51.9837 92.7942 54.3468 103.116 51.2453 112.45C48.6179 120.427 41.217 127.617 32.37 127.25C27.7788 127.088 27.2217 134.186 31.8129 134.348C43.3857 134.826 53.2407 126.69 57.4341 116.295C60.6362 108.279 60.2839 99.5413 58.2753 91.1864C62.9051 93.6457 68.0255 95.2748 73.2397 95.374C82.0901 95.5018 89.8798 91.2121 95.1495 84.1586C103.298 73.2229 103.604 60.3078 103.577 47.3162C104.824 50.3966 106.145 53.3824 107.537 56.3931C109.649 60.8976 111.931 65.2609 114.428 69.5796C116.318 72.8846 118.353 76.1199 121.187 78.673C127.068 83.9736 135.105 84.1375 141.697 79.9501C145.15 77.751 147.681 74.7491 149.668 71.3565C151.7 76.434 155.176 80.9343 159.822 83.9202C168.048 89.159 178.979 89.4125 187.446 84.5584C191.379 82.2466 188.338 75.8148 184.31 78.0534Z" fill="#07171A"/>
<path d="M110.482 26.4098C113.345 36.9063 117.193 47.1061 122.101 56.7948C122.893 58.3135 125.254 57.1753 124.462 55.6566C119.647 46.1606 115.796 36.2 113.049 25.9444C112.618 24.3113 110.028 24.7284 110.482 26.4098Z" fill="#07171A"/>
<path d="M138.17 59.0844C137.934 58.8417 137.602 58.6455 137.291 58.6171C136.502 58.5818 136.04 59.1015 135.862 59.8406C135.864 59.721 135.937 59.6263 135.839 59.7924C135.814 59.8638 135.789 59.9352 135.764 60.0066C135.714 60.1495 135.689 60.2209 135.639 60.3637C135.639 60.3637 135.639 60.3637 135.591 60.3869C135.541 60.5298 135.541 60.5298 135.566 60.4584C135.518 60.4816 135.541 60.5298 135.541 60.5298C135.468 60.6244 135.418 60.7672 135.345 60.8619C135.272 60.9565 135.199 61.0512 135.077 61.1691C135.029 61.1923 135.004 61.2637 134.956 61.2869C134.762 61.4994 134.592 61.6405 134.374 61.8049C134.326 61.8281 134.278 61.8513 134.278 61.8513C134.133 61.921 134.037 61.9675 133.892 62.0372C133.796 62.0836 133.7 62.1301 133.555 62.1998C133.555 62.1998 133.555 62.1998 133.603 62.1765L133.555 62.1998C133.507 62.223 133.459 62.2462 133.459 62.2462L133.411 62.2695C133.146 62.3374 132.931 62.3821 132.643 62.4019C132.595 62.4251 132.524 62.4002 132.475 62.4234C132.356 62.4217 132.165 62.395 132.045 62.3933C131.352 62.3115 130.626 62.8991 130.616 63.6167C130.606 64.3343 131.075 64.9393 131.839 65.046C133.367 65.2595 134.835 64.7304 136.091 63.8872C137.324 62.9959 138.109 61.6674 138.417 60.2124C138.543 59.7358 138.334 59.3021 138.17 59.0844Z" fill="#07171A"/>
<path d="M135.687 60.3405C135.687 60.3405 135.662 60.4119 135.614 60.4351C135.614 60.4351 135.639 60.3637 135.687 60.3405C135.639 60.3637 135.639 60.3637 135.687 60.3405Z" fill="#07171A"/>
<path d="M86.4433 57.4761C85.839 62.8744 85.1813 68.6547 81.9811 73.2261C80.5398 75.2867 78.5771 77.0049 76.2426 77.9521C74.0528 78.8296 71.6358 78.8665 69.3686 78.4749C66.6712 78.0531 64.1287 76.8441 61.8288 75.3993C60.4307 74.47 58.9394 76.6734 60.3858 77.5796C64.8659 80.4674 70.629 82.3211 75.8906 80.7941C81.8001 79.1329 85.5373 73.8277 87.2214 68.2057C88.2515 64.7993 88.6622 61.2165 89.096 57.6819C89.288 55.986 86.6353 55.7802 86.4433 57.4761Z" fill="#07171A"/>
<path d="M89.2662 44.2385C88.5486 44.2281 87.8955 44.7211 87.837 45.462C87.7182 47.0632 87.5993 48.6645 87.4323 50.289C87.3987 50.9584 87.9149 51.6597 88.6558 51.7182C89.3734 51.7286 90.0265 51.2356 90.085 50.4948C90.2039 48.8935 90.3227 47.2922 90.4897 45.6678C90.5482 44.9269 89.9838 44.2489 89.2662 44.2385Z" fill="#07171A"/>
</g>
<defs>
<clipPath id="clip0_2010_17580">
<rect width="167.057" height="92.2208" fill="white" transform="translate(0 72.5446) rotate(-25.7377)"/>
</clipPath>
</defs>
</svg>
