<svg width="343" height="202" viewBox="0 0 343 202" fill="none" xmlns="http://www.w3.org/2000/svg">
<g clip-path="url(#clip0_2018_2508)">
<path d="M38.909 126.959L47.1783 117.013L38.909 116.231L12.5345 85.9136L19.1281 21.6304L73.6617 10.446L271.253 13.443L312.491 6.51514L343 40.6113V116.231L285.725 123.441L215.958 129.153L121.166 124.114L77.7092 119.945L51.8569 129.153L66.067 150.479H44.4364L51.8569 172.196L31.8802 142.704H49.3326L38.909 126.959Z" fill="#07171A"/>
<path d="M27.3318 121.443L35.6011 111.518L27.3318 110.715L0.957245 80.3975L7.5509 16.1143L62.0845 4.95157L259.676 7.94856L300.892 0.999023L331.423 35.1169V110.715L274.147 117.947L204.381 123.637L109.567 118.598L66.132 114.428L40.2798 123.637L54.4898 144.963H32.8592L40.2798 166.68L20.3029 137.188H37.7337L27.3318 121.443Z" fill="white"/>
<path d="M43.4349 173L34.1647 145.897H56.2305L41.7375 124.114L66.2625 115.384L109.502 119.532H109.524L204.381 124.57H204.446L274.256 118.881H274.278L332.358 111.54V34.7477L301.262 0L259.611 7.01469L61.9972 4.0177L61.8884 4.03942L6.68027 15.3541L-0.0221863 80.7232L26.8529 111.627L33.7295 112.278L26.1566 121.378L35.9926 136.254H18.5401L43.4349 173ZM52.7487 144.029H31.5533L37.1459 160.361L22.0654 138.1H39.4744L28.485 121.487L37.4289 110.737L27.7886 109.803L1.93631 80.0717L8.39941 16.8743L62.1496 5.86367L259.741 8.88238L300.544 2.01971L330.487 35.4644V109.89L274.06 117.013L204.359 122.703L109.654 117.664L66.023 113.473L38.8651 123.137L52.7487 144.029Z" fill="#07171A"/>
</g>
<g clip-path="url(#clip1_2018_2508)">
<path d="M273.349 166.841C270.247 157.399 263.08 150.089 253.904 146.347C251.501 145.389 249.01 144.693 246.519 144.258C248.66 136.73 249.141 128.724 246.475 121.196C243.023 111.362 235.114 104.183 224.671 102.573C202.254 99.1786 179.225 114.234 169.35 133.684C167.646 137.078 172.758 140.081 174.462 136.687C181.804 122.284 195.656 111.71 211.605 108.751C220.257 107.141 229.914 108.099 236.119 114.93C241.931 121.283 243.373 130.551 241.8 138.775C241.494 140.472 241.057 142.169 240.533 143.866C235.682 143.91 230.832 144.998 226.375 147.173C217.985 151.264 211.43 158.922 208.59 167.755C207.192 172.063 206.012 178.068 210.25 181.244C214.052 184.116 219.208 182.071 222.617 179.547C231.356 173.02 238.523 163.273 243.111 153.483C243.635 152.351 244.159 151.177 244.64 150.002C245.427 150.089 246.17 150.219 246.912 150.393C255.652 152.351 263.343 158.095 266.926 166.406C270.553 174.891 269.766 184.856 264.959 192.688C262.949 195.951 268.106 198.91 270.072 195.69C275.272 187.118 276.495 176.371 273.349 166.841ZM220.126 173.89C217.941 175.761 212.697 178.981 213.266 173.716C214.62 160.967 225.938 151.307 238.217 149.915C235.944 155.006 232.886 159.836 229.434 164.143C226.637 167.668 223.534 170.931 220.126 173.89Z" fill="#10C9E1"/>
<path d="M285.366 178.068C280.254 182.854 275.141 187.641 269.985 192.427C269.111 193.254 267.844 194.124 267.013 195.038C267.057 194.429 266.926 193.602 266.97 193.254C267.101 189.86 267.276 186.466 267.407 183.072C267.582 179.286 261.639 179.286 261.464 183.072C261.289 187.423 260.634 192.035 260.94 196.387C261.245 200.433 264.785 202.957 268.63 201.13C270.509 200.216 271.995 198.649 273.481 197.257C275.229 195.647 276.976 193.994 278.724 192.384C282.351 189.033 285.934 185.639 289.561 182.289C292.358 179.634 288.163 175.457 285.366 178.068Z" fill="#10C9E1"/>
<path d="M255.739 118.281C254.647 113.147 252.068 108.404 248.485 104.618C246.519 102.529 244.247 100.745 241.756 99.353C240.532 98.6568 239.484 100.528 240.663 101.181C244.771 103.53 248.223 106.968 250.626 111.058C253.248 115.54 254.428 120.718 254.166 125.852C253.991 128.898 253.292 131.901 252.112 134.729C251.894 135.251 252.331 135.904 252.855 136.034C253.467 136.208 253.947 135.817 254.166 135.295C256.438 129.943 256.962 123.938 255.739 118.281Z" fill="#10C9E1"/>
<path d="M260.065 110.362C259.847 109.84 259.366 109.448 258.755 109.622C258.23 109.753 257.793 110.405 258.012 110.927C259.017 113.408 259.585 116.018 259.541 118.673C259.541 120.065 261.682 120.065 261.682 118.673C261.682 115.844 261.158 112.972 260.065 110.362Z" fill="#10C9E1"/>
<path d="M227.336 178.851C224.19 182.462 220.257 185.552 215.538 186.857C210.993 188.119 205.837 187.64 202.123 184.551C200.288 183.028 198.889 181.027 198.277 178.72C197.928 177.371 195.83 177.937 196.224 179.286C197.491 184.029 201.511 187.684 206.187 189.033C211.561 190.556 217.417 189.207 222.049 186.292C224.627 184.682 226.855 182.637 228.866 180.374C229.739 179.33 228.254 177.807 227.336 178.851Z" fill="#10C9E1"/>
<path d="M217.024 194.254C214.752 196.169 211.999 197.823 208.984 198.04C206.493 198.214 203.74 197.431 202.21 195.386C201.861 194.907 201.293 194.69 200.725 194.994C200.288 195.255 199.982 195.995 200.332 196.474C202.298 199.084 205.531 200.39 208.765 200.216C212.479 200.042 215.757 198.084 218.51 195.777C219.602 194.907 218.073 193.384 217.024 194.254Z" fill="#10C9E1"/>
<path d="M233.366 95.0016C230.875 93.6962 228.122 93 225.326 93C224.758 93 224.233 93.4786 224.233 94.0878C224.233 94.6535 224.714 95.1756 225.326 95.1756C227.729 95.1756 230.133 95.7413 232.274 96.8727C232.798 97.1337 233.454 97.0032 233.759 96.481C234.022 96.0024 233.89 95.2627 233.366 95.0016Z" fill="#10C9E1"/>
</g>
<defs>
<clipPath id="clip0_2018_2508">
<rect width="343" height="173" fill="white" transform="matrix(-1 0 0 1 343 0)"/>
</clipPath>
<clipPath id="clip1_2018_2508">
<rect width="121.478" height="108.695" fill="white" transform="translate(169 93)"/>
</clipPath>
</defs>
</svg>
