<svg width="361" height="223" viewBox="0 0 361 223" fill="none" xmlns="http://www.w3.org/2000/svg">
<path d="M320.226 163.57L311.518 150.723L320.226 149.713L348 110.554L341.057 27.5234L283.629 13.0772L75.5535 16.9482L32.128 8L0 52.0398V149.713L60.3145 159.026L133.783 166.403L233.604 159.895L279.367 154.51L306.591 166.403L291.627 193.949H314.405L306.591 222L327.628 183.907H309.249L320.226 163.57Z" fill="#07171A"/>
<path d="M332.212 156.43L323.509 143.646L332.212 142.611L359.969 103.559L353.029 20.7565L295.638 6.37788L87.6897 10.2383L44.3138 1.28662L12.1826 45.2337V142.611L72.46 151.926L145.883 159.255L245.666 152.765L291.378 147.394L318.585 159.255L303.63 186.726H326.395L318.585 214.7L339.609 176.711H321.265L332.212 156.43Z" fill="white"/>
<path d="M315.265 222.84L325.021 187.929H301.799L317.051 159.871L291.241 148.625L245.735 153.969H245.712L145.883 160.458H145.815L72.3459 153.129H72.323L11.1982 143.674V44.7583L43.9249 0L87.7588 9.03558L295.73 5.17518L295.844 5.20315L353.946 19.7776L361 103.979L332.716 143.786L325.479 144.625L333.449 156.346L323.097 175.508H341.464L315.265 222.84ZM305.463 185.523H327.769L321.883 206.559L337.754 177.886H319.433L330.998 156.486L321.586 142.639L331.731 141.436L358.939 103.14L352.137 21.7357L295.569 7.55296L87.6214 11.4413L44.6806 2.60158L13.1678 45.6814V141.548L72.552 150.724L145.906 158.053L245.575 151.563L291.493 146.164L320.074 158.612L305.463 185.523Z" fill="#07171A"/>
</svg>
