<svg width="573" height="364" viewBox="0 0 573 364" fill="none" xmlns="http://www.w3.org/2000/svg">
<path d="M420.527 290.644L409.091 275.635L420.527 274.455L457 228.709L447.882 131.711L372.467 114.834L99.2183 119.356L42.1911 108.903L0 160.351V274.455L79.2061 285.335L175.686 293.953L306.773 286.351L366.87 280.059L402.621 293.953L382.97 326.133H412.883L402.621 358.903L430.247 314.402H406.112L420.527 290.644Z" fill="#07171A"/>
<path d="M436.201 282.081L424.775 267.119L436.201 265.908L472.647 220.203L463.535 123.293L388.179 106.465L115.14 110.983L58.1862 100.506L15.9974 151.94V265.908L95.1428 276.81L191.549 285.388L322.565 277.792L382.586 271.506L418.31 285.388L398.674 317.538H428.564L418.31 350.278L445.914 305.818H421.828L436.201 282.081Z" fill="white"/>
<path d="M413.949 359.806L426.759 318.946H396.268L416.295 286.108L382.405 272.947L322.656 279.2H322.625L191.549 286.796H191.458L94.9924 278.218H94.9623L14.7044 267.152V151.384L57.675 99L115.23 109.575L388.299 105.057L388.45 105.09L464.738 122.147L474 220.694L436.863 267.283L427.361 268.265L437.825 281.983L424.233 304.41H448.35L413.949 359.806ZM401.079 316.131H430.368L422.64 340.751L443.479 307.193H419.422L434.608 282.147L422.249 265.94L435.57 264.533L471.294 219.712L462.363 124.439L388.089 107.84L115.049 112.391L58.6674 102.045L17.2905 152.464V264.664L95.2631 275.402L191.579 283.98L322.445 276.384L382.736 270.066L420.264 284.635L401.079 316.131Z" fill="#07171A"/>
<g clip-path="url(#clip0_2008_9532)">
<path d="M419.219 83.4842C418.395 68.8567 417.521 54.2032 416.697 39.5757C416.406 34.6483 408.749 35.1183 409.041 40.0458C409.864 54.6733 410.739 69.3268 411.562 83.9543C411.827 88.9333 419.484 88.4632 419.219 83.4842Z" fill="#07171A"/>
<path d="M458.202 87.3004C459.683 83.9768 461.164 80.6532 462.645 77.3296C464.646 72.8466 457.777 69.3206 455.802 73.8811C454.321 77.2047 452.839 80.5283 451.358 83.8519C449.331 88.3864 456.175 91.8349 458.202 87.3004Z" fill="#07171A"/>
<path d="M540.853 61.0513C522.15 72.8162 504.164 85.718 486.973 99.602C483.147 102.713 487.299 109.198 491.151 106.036C508.342 92.1517 526.328 79.2499 545.031 67.485C549.216 64.8133 545.039 58.3796 540.853 61.0513Z" fill="#07171A"/>
<path d="M542.216 118.911C534.683 120.672 527.15 122.432 519.644 124.14C514.82 125.263 517.268 132.569 522.04 131.42C529.573 129.66 537.105 127.9 544.612 126.192C549.487 125.095 547.039 117.789 542.216 118.911Z" fill="#07171A"/>
<path d="M525.305 91.2673C517.588 93.9039 510.229 97.6249 503.536 102.328C502.038 103.381 503.55 105.758 505.048 104.705C511.534 100.156 518.636 96.5635 526.145 93.9521C527.926 93.3635 527.008 90.7043 525.305 91.2673Z" fill="#07171A"/>
<path d="M520.447 101.805C520.293 101.469 520.062 101.159 519.754 101.003C519.445 100.848 519.033 100.769 518.697 100.923C517.716 101.333 516.735 101.743 515.728 102.205C515.573 102.256 515.393 102.359 515.263 102.488C515.083 102.59 515.005 102.745 514.927 102.899C514.771 103.209 514.744 103.647 514.846 103.957C514.999 104.292 515.23 104.603 515.539 104.758C515.847 104.914 516.259 104.992 516.595 104.838C517.576 104.428 518.557 104.018 519.564 103.556C519.719 103.505 519.899 103.402 520.029 103.274C520.21 103.171 520.287 103.017 520.365 102.862C520.521 102.553 520.6 102.14 520.447 101.805Z" fill="#07171A"/>
<path d="M405.47 65.0568C404.953 58.5295 404.358 52.0278 403.84 45.5005C403.666 43.6687 400.856 43.8677 401.03 45.6995C401.548 52.2268 402.143 58.7285 402.66 65.2559C402.86 67.0362 405.644 66.8887 405.47 65.0568Z" fill="#07171A"/>
<path d="M407.078 83.633C407.501 80.7452 407.331 77.8815 406.62 75.0681C406.416 74.3195 405.515 73.9303 404.819 74.1606C404.044 74.4165 403.732 75.1637 403.91 75.9638C404.012 76.2736 404.062 76.5575 404.113 76.8414L404.138 76.9188C404.138 76.9188 404.138 77.0478 404.189 77.0737C404.24 77.2286 404.24 77.3576 404.265 77.564C404.34 78.1833 404.415 78.8025 404.464 79.4733C404.488 80.0666 404.486 80.7115 404.483 81.3563C404.509 81.4338 404.483 81.4853 404.482 81.6143C404.482 81.6143 404.482 81.6143 404.456 81.6658C404.456 81.7948 404.429 81.9753 404.429 82.1042C404.402 82.4137 404.349 82.7747 404.322 83.0841C404.217 83.8061 404.652 84.6069 405.425 84.7378C406.146 84.8429 406.946 84.4065 407.078 83.633Z" fill="#07171A"/>
</g>
<defs>
<clipPath id="clip0_2008_9532">
<rect width="166" height="84" fill="white" transform="translate(423.8) rotate(26.7439)"/>
</clipPath>
</defs>
</svg>
