<svg width="157" height="165" viewBox="0 0 157 165" fill="none" xmlns="http://www.w3.org/2000/svg">
<g clip-path="url(#clip0_2003_785)">
<path d="M98.9978 119.098C93.6054 118.064 88.4205 116.341 83.7195 113.722C92.9833 106.898 101.279 98.9035 108.331 89.8746C110.474 87.0488 109.644 83.0513 105.98 82.0864C98.1682 80.0188 90.3562 77.9511 82.4751 75.8834C76.5988 74.2982 74.4557 83.4649 80.332 84.9812C85.7243 86.4285 91.1858 87.8759 96.5781 89.3233C89.5958 97.2493 81.7147 104.142 72.7966 109.931C70.5152 111.378 69.4782 115.445 72.0361 117.306C79.5024 122.751 87.7292 126.541 96.8547 128.264C102.8 129.367 105.012 120.269 98.9978 119.098Z" fill="white"/>
<path d="M153.198 155.695C148.289 155.006 143.588 153.835 138.956 152.318C139.993 151.491 140.961 150.664 141.998 149.837C144.556 147.769 148.428 145.564 148.981 141.98C150.363 133.64 136.191 133.296 130.937 132.124C124.992 130.883 123.54 140.119 129.416 141.36C131.559 141.842 133.702 142.256 135.845 142.738C135.362 143.152 134.878 143.565 134.325 143.979C131.905 145.977 129.485 147.907 126.997 149.906C124.3 152.111 124.3 156.454 127.757 158.039C135.362 161.416 143.381 163.759 151.677 164.931C157.691 165.758 159.212 156.522 153.198 155.695Z" fill="white"/>
<path d="M55.1678 3.30825C50.7433 -0.206787 43.8992 0.275669 38.5068 0.137824C31.5936 -0.137865 24.6112 -2.01773e-05 17.6288 0.482436C11.6143 0.89597 11.6143 10.2694 17.6288 9.85587C24.1273 9.44234 30.5566 9.30449 37.0551 9.44234C40.3043 9.51126 43.8992 9.44234 47.1484 9.99371C49.9828 10.4762 49.8446 11.9925 48.3928 14.1291C44.9362 18.9536 39.7512 23.089 35.6033 27.4311C31.1788 32.1178 26.7543 36.8734 22.399 41.6291C18.0436 46.3847 13.7574 51.2093 9.5403 56.1027C6.42934 59.6867 -0.138252 64.8559 1.31567e-05 70.094C0.138278 76.7105 7.53546 76.8484 12.3056 77.5376C18.9423 78.5025 25.6482 79.5363 32.2849 80.5012C38.2303 81.3972 40.7191 72.3684 34.7737 71.4724C27.5839 70.4386 20.4632 69.3358 13.2735 68.302C12.8587 68.2331 12.2365 68.0952 11.6143 67.9574C13.4809 65.8208 15.2783 63.6842 17.1449 61.5476C26.1321 51.2782 35.3959 41.1466 44.7979 31.2907C50.8816 25.0188 66.5055 12.3371 55.1678 3.30825Z" fill="white"/>
<path d="M110.266 93.5965C105.289 99.0413 100.311 104.417 95.3338 109.862C93.882 111.447 96.2325 113.86 97.7534 112.274C102.731 106.83 107.708 101.454 112.686 96.0088C114.138 94.3546 111.787 91.9423 110.266 93.5965Z" fill="white"/>
<path d="M110.958 105.382C110.889 105.175 110.75 104.969 110.612 104.831C110.474 104.762 110.405 104.624 110.266 104.555C109.99 104.417 109.713 104.348 109.437 104.348C109.299 104.348 109.16 104.417 108.953 104.417C108.676 104.486 108.4 104.624 108.192 104.831C107.639 105.382 107.086 105.934 106.533 106.485C106.395 106.623 106.257 106.83 106.188 107.036C106.049 107.243 106.049 107.45 106.049 107.657C106.049 107.863 106.118 108.139 106.188 108.277C106.257 108.484 106.395 108.69 106.533 108.828C106.672 108.897 106.741 109.035 106.879 109.104C107.155 109.242 107.432 109.311 107.709 109.311C107.847 109.311 107.985 109.242 108.192 109.242C108.469 109.173 108.745 109.035 108.953 108.828C109.506 108.277 110.059 107.726 110.612 107.174C110.75 107.036 110.889 106.83 110.958 106.623C111.096 106.416 111.096 106.209 111.096 106.003C111.165 105.796 111.096 105.52 110.958 105.382Z" fill="white"/>
<path d="M33.7367 18.9536C28.8974 23.985 24.1272 29.0163 19.288 34.0476C17.7671 35.6328 20.1867 38.0451 21.7076 36.4599C26.5469 31.4286 31.317 26.3973 36.1563 21.3659C37.6772 19.7807 35.2576 17.3684 33.7367 18.9536Z" fill="white"/>
<path d="M16.6609 40.8709C15.9696 40.2506 14.9326 40.1817 14.2413 40.8709C11.9599 43.2832 9.60943 45.6955 7.32805 48.1078C6.70586 48.7281 6.63673 49.8998 7.32805 50.5201C8.01938 51.1404 9.05637 51.2093 9.74769 50.5201C12.0291 48.1078 14.3796 45.6955 16.6609 43.2832C17.2831 42.6629 17.3523 41.4912 16.6609 40.8709Z" fill="white"/>
</g>
<defs>
<clipPath id="clip0_2003_785">
<rect width="157" height="165" fill="white"/>
</clipPath>
</defs>
</svg>
